{"glyphs":{"0":{"ha":821,"x_min":54,"x_max":765,"o":"m 54 371 q 129 713 54 532 q 275 935 183 845 q 493 1029 372 1029 q 719 890 652 1029 q 765 663 765 796 q 733 423 765 536 q 662 237 702 311 q 571 106 623 163 q 449 14 520 48 q 312 -20 378 -20 q 203 4 245 -20 q 92 149 130 45 q 54 371 54 252 m 636 845 q 631 858 636 845 q 604 885 625 870 q 557 900 583 900 q 509 891 532 900 q 435 846 477 878 q 240 578 309 743 q 172 260 172 414 q 172 225 172 242 q 260 97 178 97 q 370 131 315 97 q 469 221 425 165 q 550 346 513 276 q 648 627 621 481 q 659 708 659 682 q 658 752 659 734 q 652 795 657 770 q 636 845 647 820 z "},"1":{"ha":481,"x_min":16,"x_max":457,"o":"m 440 1029 q 457 1010 457 1029 q 456 985 457 991 l 268 150 q 246 26 257 53 q 221 0 235 0 l 83 0 q 65 31 65 0 q 80 131 65 62 q 111 261 95 199 q 149 400 127 324 q 222 683 170 477 q 277 890 275 888 q 137 788 214 841 q 33 736 60 736 q 16 763 16 743 q 57 808 16 783 q 440 1029 404 1029 z "},"2":{"ha":779,"x_min":39,"x_max":736,"o":"m 367 -1 q 346 -1 367 -1 q 230 -11 326 -1 q 86 -20 134 -20 q 39 12 39 -20 q 74 64 39 31 q 156 140 110 98 l 237 213 q 528 561 452 409 q 579 763 579 665 q 551 908 579 861 q 458 956 522 956 q 313 889 385 956 q 255 801 277 857 q 232 677 232 746 q 298 620 260 638 q 330 578 330 604 q 322 556 330 566 q 295 546 314 546 q 191 606 277 546 q 104 682 104 667 q 131 829 104 763 q 202 939 157 896 q 435 1029 296 1029 q 665 946 585 1029 q 736 771 736 872 q 563 399 736 597 q 390 223 468 289 q 227 93 264 118 q 357 120 241 95 q 533 144 473 144 q 633 98 633 144 q 614 24 633 68 q 565 -20 594 -20 q 471 -11 535 -20 q 367 -1 407 -1 z "},"3":{"ha":806,"x_min":33,"x_max":764,"o":"m 368 699 q 342 663 365 663 q 244 715 323 663 q 165 781 165 768 q 210 898 165 840 q 328 992 254 956 q 464 1029 401 1029 q 566 1024 527 1029 q 643 1005 606 1019 q 707 968 681 991 q 764 822 764 918 q 695 649 764 726 q 534 532 627 571 q 650 453 606 512 q 694 322 694 393 q 659 186 694 252 q 567 76 623 120 q 439 6 510 32 q 313 -20 368 -20 q 213 -8 257 -20 q 128 24 169 3 q 60 82 87 45 q 33 161 33 118 q 64 234 33 205 q 139 264 95 264 q 193 209 180 264 q 218 117 204 153 q 306 52 243 52 q 419 97 368 52 q 499 207 471 142 q 528 335 528 272 q 497 436 528 397 q 401 475 466 475 l 372 473 q 342 481 353 473 q 332 508 332 490 q 336 536 332 527 q 350 548 340 545 q 367 552 359 551 q 389 553 376 553 q 507 605 455 553 q 585 719 558 656 q 611 841 611 783 q 583 936 611 900 q 496 971 554 971 q 415 938 465 971 q 327 858 366 905 q 288 777 288 810 q 329 734 297 761 q 368 699 360 707 z "},"4":{"ha":857,"x_min":14,"x_max":844,"o":"m 273 335 q 412 301 341 314 q 513 550 454 409 q 583 568 524 568 l 646 568 q 542 290 634 519 q 684 319 631 290 q 736 349 693 322 q 811 403 779 376 l 844 345 q 774 289 810 319 q 719 243 738 259 q 674 212 700 227 q 543 183 626 183 q 500 184 515 183 l 452 65 q 433 21 445 41 q 412 0 422 0 l 309 0 l 304 14 q 372 197 349 138 q 180 231 286 211 q 87 201 125 201 q 35 222 57 201 q 14 263 14 242 q 17 295 14 285 q 31 313 21 306 q 71 332 46 323 l 146 358 l 345 819 q 405 966 390 947 q 435 998 420 985 q 466 1017 449 1012 q 542 1029 504 1029 q 587 1017 580 1029 q 273 335 507 833 z "},"5":{"ha":900,"x_min":153,"x_max":964,"o":"m 219 32 q 205 41 219 32 q 172 81 191 50 q 153 144 153 111 q 186 209 153 177 q 272 240 220 240 q 293 132 272 176 q 419 50 331 50 q 648 191 581 50 q 682 335 682 262 q 622 463 682 408 q 481 518 562 518 q 322 429 399 518 q 294 447 302 432 q 373 751 313 524 q 444 989 434 979 q 461 999 454 999 l 465 999 q 725 982 640 982 q 925 996 810 982 l 964 983 q 948 932 961 956 q 918 879 935 909 q 885 833 902 848 q 816 816 867 818 l 779 815 q 596 847 660 815 q 570 863 589 851 q 505 886 532 886 q 471 785 495 854 q 407 587 415 620 q 603 642 505 642 q 770 573 700 642 q 840 408 840 504 q 802 235 840 313 q 701 101 763 157 q 557 13 638 46 q 393 -20 476 -20 q 294 -3 342 -20 q 219 32 247 14 z "},"6":{"ha":742,"x_min":45,"x_max":690,"o":"m 161 6 q 138 19 161 6 q 88 76 114 32 q 53 165 62 120 q 45 270 45 211 q 71 405 45 330 q 124 534 96 481 q 197 652 151 587 q 337 838 258 741 q 451 963 416 934 q 521 991 486 991 l 627 991 q 373 703 457 817 q 240 484 273 565 q 172 200 172 323 q 179 128 172 147 q 195 97 186 109 q 216 77 203 85 q 285 60 243 60 q 372 98 327 60 q 452 189 418 136 q 511 299 487 242 q 536 383 534 356 q 538 430 538 410 q 532 475 538 450 q 516 516 527 500 q 477 541 505 533 q 353 551 438 551 q 396 600 372 588 q 464 612 421 612 q 636 566 581 612 q 690 427 690 519 q 651 253 690 335 q 557 112 612 170 q 427 17 503 53 q 280 -20 352 -20 q 161 6 209 -20 z "},"7":{"ha":693,"x_min":54,"x_max":684,"o":"m 681 918 q 549 663 634 818 q 273 94 346 290 q 249 37 266 74 q 233 0 233 0 l 78 0 q 279 465 123 210 q 435 704 356 589 q 522 831 515 820 q 370 785 471 802 q 192 768 269 768 q 85 774 115 768 q 54 798 54 779 q 64 828 54 812 q 76 849 73 844 q 91 877 87 871 q 99 897 94 883 q 109 919 104 910 q 119 940 113 928 q 146 964 132 964 q 348 949 273 949 q 508 957 422 949 q 648 965 594 965 q 669 954 655 965 q 684 935 684 943 q 681 918 684 926 z "},"8":{"ha":872,"x_min":36,"x_max":843,"o":"m 507 13 q 479 -1 507 13 q 393 -26 451 -14 q 284 -39 336 -39 q 189 -26 232 -39 q 111 12 145 -13 q 36 178 36 67 q 58 267 36 223 q 113 342 81 310 q 179 399 146 374 q 236 444 212 425 q 264 469 261 462 q 150 649 150 568 q 190 799 150 730 q 294 918 229 868 q 444 999 358 968 q 618 1029 529 1029 q 699 1021 656 1029 q 779 969 779 1005 q 754 898 779 934 q 703 861 728 861 q 681 885 698 869 q 647 913 663 902 q 555 940 606 940 q 402 887 466 940 q 339 765 339 835 q 457 607 339 671 q 556 663 467 612 q 821 775 747 772 l 843 743 q 769 703 820 730 q 689 658 718 675 q 533 550 612 614 q 669 399 639 455 q 704 274 704 335 q 677 161 704 212 q 606 75 650 111 q 507 13 562 39 m 345 400 q 184 146 184 275 q 218 61 184 95 q 320 28 252 28 q 451 77 389 28 q 513 193 513 126 q 464 312 513 260 q 345 400 415 365 z "},"9":{"ha":742,"x_min":29,"x_max":703,"o":"m 559 796 q 449 951 559 951 q 352 917 400 951 q 268 830 303 882 q 211 715 233 778 q 189 589 189 652 q 225 484 189 527 q 336 441 261 441 q 382 443 366 441 q 312 366 375 373 q 288 366 302 366 q 103 431 178 366 q 29 607 29 496 q 61 762 29 685 q 146 897 93 838 q 276 992 199 956 q 435 1028 352 1028 q 633 950 563 1028 q 703 741 703 873 q 696 655 703 723 q 650 465 690 588 q 558 235 611 342 q 437 54 505 127 q 309 -20 369 -20 l 214 -20 q 559 796 559 509 z "},"\r":{"ha":264,"x_min":0,"x_max":0,"o":""},"\u0000":{"ha":0,"x_min":0,"x_max":0,"o":""}," ":{"ha":264,"x_min":0,"x_max":0,"o":""},"!":{"ha":412,"x_min":98,"x_max":503,"o":"m 252 257 q 215 250 235 250 q 200 268 200 250 q 201 294 200 286 l 304 879 q 333 1009 319 988 q 357 1029 346 1029 l 481 1029 q 503 993 503 1029 q 417 718 503 956 q 292 369 332 479 q 252 257 252 259 m 267 80 q 267 65 267 80 q 232 15 267 50 q 160 -20 197 -20 q 98 33 98 -20 q 125 105 98 71 q 192 140 153 140 q 249 125 230 140 q 267 80 267 111 z "},"\"":{"ha":460,"x_min":88,"x_max":406,"o":"m 88 838 q 136 1043 88 1043 q 207 1036 189 1043 q 224 1008 224 1029 q 206 945 224 987 q 159 823 189 903 q 126 734 130 743 l 89 734 q 90 766 90 749 l 88 838 m 270 838 q 318 1043 270 1043 q 388 1036 371 1043 q 406 1009 406 1029 q 392 951 406 989 q 340 822 368 899 q 309 734 313 745 l 271 734 q 271 766 271 749 l 270 838 z "},"#":{"ha":725,"x_min":25,"x_max":705,"o":"m 600 347 l 507 349 l 479 349 l 374 26 q 366 0 371 19 q 356 -34 361 -20 q 345 -63 351 -47 q 312 -96 330 -96 q 288 -85 293 -96 q 283 -55 283 -75 q 292 -2 283 -35 q 300 33 300 32 q 385 347 330 119 l 237 343 l 151 26 q 144 -1 149 20 q 134 -34 138 -21 q 122 -64 130 -47 q 89 -96 108 -96 q 66 -85 71 -96 q 61 -51 61 -75 q 82 53 61 -26 q 142 339 103 131 q 64 336 122 339 q 25 364 25 336 q 58 422 25 411 l 158 429 l 179 547 q 94 545 158 547 q 56 572 56 545 q 77 627 56 618 q 119 635 94 635 q 196 637 149 635 q 250 937 248 931 q 259 962 252 942 q 270 992 266 982 q 280 1017 273 1002 q 290 1037 286 1031 q 302 1050 294 1042 q 319 1061 311 1059 q 340 1066 327 1063 q 403 1071 358 1071 q 419 1059 411 1071 q 428 1035 428 1048 l 321 643 q 458 647 451 647 q 538 970 525 928 q 565 1036 551 1012 q 608 1065 578 1059 q 681 1071 637 1071 q 697 1059 689 1071 q 705 1035 705 1048 l 704 1026 l 579 648 q 699 621 699 646 q 677 578 699 600 q 631 555 656 555 l 549 557 l 510 440 l 526 440 q 668 412 668 440 q 647 370 668 392 q 600 347 626 347 m 408 439 q 436 555 433 544 q 296 551 387 555 l 262 439 l 408 439 z "},"$":{"ha":725,"x_min":-47,"x_max":777,"o":"m 513 965 l 489 964 l 403 591 q 528 494 496 524 q 628 302 627 401 q 467 41 628 140 q 257 -32 375 -15 l 253 -54 q 248 -85 251 -64 q 243 -117 245 -107 q 232 -135 241 -126 q 208 -144 223 -144 q 189 -125 189 -144 q 196 -74 189 -113 l 201 -37 q 162 -39 192 -39 q 96 -29 133 -39 q 26 0 58 -19 q -27 51 -7 19 q -47 125 -47 83 q -15 195 -47 168 q 65 224 18 222 l 94 225 q 92 163 92 189 q 92 129 92 138 q 94 103 92 120 q 101 77 96 85 q 114 57 105 68 q 136 39 123 45 q 214 24 167 25 q 313 450 247 182 q 185 563 216 530 q 115 697 115 635 q 144 816 115 759 q 222 913 174 873 q 454 1019 322 996 l 460 1051 q 485 1161 475 1137 q 511 1185 494 1185 q 528 1177 521 1185 q 534 1160 534 1170 l 503 1026 q 555 1029 526 1029 q 622 1019 584 1029 q 696 988 660 1009 q 754 926 732 966 q 777 832 777 886 q 643 741 777 819 q 473 650 509 663 l 473 717 q 536 747 483 722 q 654 831 654 803 q 513 965 654 965 m 481 233 q 449 317 481 274 q 359 410 418 359 l 271 28 q 412 94 350 43 q 481 233 481 150 m 439 954 q 314 884 366 935 q 262 767 262 833 q 357 627 262 701 l 439 954 z "},"%":{"ha":950,"x_min":36,"x_max":918,"o":"m 340 661 q 327 644 340 661 q 273 604 315 626 q 188 582 232 582 q 114 601 144 582 q 68 651 85 621 q 36 763 36 712 q 43 847 36 813 q 67 915 51 882 q 106 972 83 947 q 236 1029 157 1029 q 385 897 353 1029 q 393 823 393 863 q 379 740 393 783 q 340 661 366 696 m 300 860 q 300 877 300 860 q 287 919 300 893 q 248 945 275 945 q 197 921 220 945 q 161 863 174 898 q 136 727 136 793 q 168 660 136 660 q 238 697 206 660 q 285 781 270 735 q 300 860 300 827 m 842 34 q 830 22 842 34 q 783 -5 818 9 q 709 -20 748 -20 q 640 0 669 -20 q 594 50 610 20 q 561 166 561 113 q 573 264 561 220 q 609 345 585 307 q 672 407 632 383 q 758 431 711 431 q 836 412 804 431 q 885 362 867 393 q 910 297 902 331 q 918 228 918 264 q 910 157 918 192 q 884 90 902 122 q 842 34 867 58 m 822 299 q 820 307 822 299 q 805 331 818 316 q 769 346 793 346 q 723 322 745 346 q 688 263 700 298 q 663 125 663 192 q 693 58 663 58 q 763 96 731 58 q 810 180 795 134 q 825 254 825 226 q 822 299 825 281 m 640 932 q 682 993 673 980 q 702 1020 690 1006 q 718 1039 713 1034 q 734 1051 724 1043 q 753 1061 745 1059 q 774 1066 761 1063 q 838 1071 795 1071 q 847 1064 843 1071 q 851 1049 851 1057 q 847 1026 851 1040 l 236 26 q 221 -1 231 19 q 202 -34 210 -20 q 182 -63 193 -47 q 137 -96 158 -96 q 115 -79 115 -96 q 164 33 115 -47 q 640 932 456 589 z "},"&":{"ha":978,"x_min":47,"x_max":1061,"o":"m 550 -357 q 542 -335 542 -346 q 559 -308 542 -323 q 600 -273 576 -293 q 648 -228 624 -254 q 707 -71 707 -168 q 677 46 707 -20 q 648 104 667 66 q 482 13 560 46 q 329 -20 404 -20 q 192 7 254 -20 q 89 90 130 35 q 47 216 47 144 q 100 378 47 309 q 172 459 140 433 q 223 500 205 486 q 273 534 241 514 q 359 587 323 566 q 404 614 395 608 q 385 734 385 688 q 435 880 385 810 q 560 989 485 949 q 710 1029 635 1029 q 872 983 797 1029 q 931 923 909 960 q 954 842 954 886 q 881 770 954 808 q 774 721 829 743 q 710 694 719 699 q 690 733 695 711 q 725 749 697 737 q 772 772 752 762 q 809 798 791 782 q 827 829 827 814 q 787 913 827 880 q 704 946 748 946 q 633 931 661 946 q 590 890 605 916 q 559 784 559 840 q 571 683 559 728 q 596 601 582 637 q 637 514 610 564 q 681 434 663 464 q 731 354 699 405 q 775 283 763 304 q 876 377 826 316 q 958 497 926 439 q 979 580 966 512 q 1006 660 991 648 l 1032 661 q 1036 661 1034 661 q 1061 632 1061 661 q 1024 493 1061 576 q 927 333 986 410 q 811 222 867 257 q 860 126 840 180 q 880 28 880 72 q 835 -142 880 -53 q 711 -294 789 -231 q 550 -357 633 -357 m 618 161 l 419 546 q 247 393 280 464 q 232 322 232 359 q 298 166 232 234 q 452 98 363 98 q 531 114 494 98 q 618 161 568 129 z "},"'":{"ha":240,"x_min":81,"x_max":214,"o":"m 214 1009 q 214 999 214 1009 q 200 951 214 989 q 173 870 186 914 q 146 785 159 826 q 131 734 134 744 l 93 734 q 81 892 81 805 q 126 1043 81 1043 q 197 1036 180 1043 q 214 1009 214 1029 z "},"(":{"ha":633,"x_min":33,"x_max":624,"o":"m 452 -16 l 449 -68 q 341 -79 395 -79 q 234 -57 287 -79 q 144 5 181 -35 q 82 101 107 45 q 33 367 33 211 q 114 746 33 569 q 358 1025 205 947 q 543 1069 444 1069 q 624 1063 578 1069 l 621 993 q 572 997 596 997 q 449 967 507 997 q 349 887 391 937 q 274 772 307 836 q 221 635 241 707 q 180 359 180 490 q 272 45 180 149 q 421 -17 326 -17 q 452 -16 440 -17 z "},")":{"ha":632,"x_min":9,"x_max":600,"o":"m 182 1006 l 184 1059 q 293 1069 241 1069 q 399 1047 346 1069 q 489 985 452 1025 q 551 889 526 945 q 600 624 600 779 q 519 248 600 429 q 278 -37 429 44 q 98 -82 195 -82 q 9 -72 51 -82 l 12 -3 q 61 -7 37 -7 q 185 23 127 -7 q 284 103 243 53 q 359 218 326 154 q 412 355 393 283 q 453 631 453 500 q 381 922 453 818 q 311 983 355 960 q 212 1007 268 1007 q 182 1006 193 1007 z "},"*":{"ha":590,"x_min":24,"x_max":568,"o":"m 318 991 q 370 956 370 991 q 311 733 370 908 q 381 776 335 745 q 514 850 492 850 q 552 821 536 850 q 568 777 568 792 q 554 751 568 761 q 512 734 540 741 q 457 721 485 726 q 325 693 357 701 q 390 630 345 670 q 461 560 435 589 q 488 513 488 531 q 464 474 488 494 q 426 453 441 453 q 389 480 410 453 q 345 548 367 508 q 285 669 302 629 q 214 535 262 616 q 143 454 167 454 q 105 474 126 454 q 83 513 83 494 q 109 562 83 532 q 180 633 134 591 q 245 694 227 675 q 87 734 119 724 q 24 782 24 757 q 39 830 24 801 q 68 859 54 859 q 113 842 82 859 q 174 804 144 825 q 265 742 260 746 l 267 771 l 260 917 q 268 972 260 954 q 292 991 275 991 l 318 991 z "},"+":{"ha":760,"x_min":109,"x_max":624,"o":"m 542 282 l 449 283 l 396 283 l 350 98 q 331 76 347 86 q 288 65 314 65 q 262 87 262 65 q 265 104 262 99 l 307 279 l 142 271 q 109 289 109 271 q 114 320 109 307 q 127 340 119 334 q 155 357 143 354 q 328 371 209 366 l 338 408 q 352 475 342 430 q 367 543 362 519 q 392 561 369 553 q 435 570 415 570 q 449 532 449 570 q 433 428 449 494 l 419 374 q 488 375 441 375 q 624 350 624 375 q 595 306 624 330 q 542 282 567 282 z "},",":{"ha":328,"x_min":77,"x_max":241,"o":"m 77 40 q 77 55 77 40 q 104 105 77 71 q 171 140 132 140 q 225 120 209 140 q 241 73 241 100 q 232 20 241 45 q 206 -38 223 -5 q 176 -93 189 -71 q 125 -179 132 -172 l 86 -165 q 129 -20 113 -93 q 90 -5 102 -20 q 77 40 77 10 z "},"-":{"ha":585,"x_min":106,"x_max":513,"o":"m 444 416 l 351 418 q 144 406 298 418 q 106 433 106 406 q 139 492 106 482 q 248 503 159 496 q 371 510 337 510 q 513 482 513 510 q 491 439 513 462 q 444 416 470 416 z "},".":{"ha":286,"x_min":53,"x_max":222,"o":"m 222 80 q 222 65 222 80 q 187 15 222 50 q 115 -20 152 -20 q 53 33 53 -20 q 81 105 53 71 q 147 140 109 140 q 204 125 185 140 q 222 80 222 111 z "},"/":{"ha":688,"x_min":4,"x_max":684,"o":"m 528 932 q 581 1044 554 1017 q 669 1071 608 1071 q 679 1064 675 1071 q 684 1047 684 1057 q 679 1026 684 1037 l 151 -29 q 139 -57 147 -37 q 122 -91 130 -77 q 102 -119 115 -104 q 20 -151 75 -151 q 4 -130 4 -151 q 26 -69 4 -108 q 64 11 49 -30 q 197 284 79 52 q 419 719 314 516 q 528 932 525 922 z "},":":{"ha":286,"x_min":53,"x_max":222,"o":"m 222 594 q 222 579 222 594 q 187 529 222 564 q 115 494 152 494 q 53 547 53 494 q 81 619 53 584 q 147 654 109 654 q 204 640 185 654 q 222 594 222 625 m 222 80 q 222 65 222 80 q 187 15 222 50 q 115 -20 152 -20 q 53 33 53 -20 q 81 105 53 71 q 147 140 109 140 q 204 125 185 140 q 222 80 222 111 z "},";":{"ha":328,"x_min":77,"x_max":279,"o":"m 77 40 q 77 55 77 40 q 104 105 77 71 q 171 140 132 140 q 225 120 209 140 q 241 73 241 100 q 232 20 241 45 q 206 -38 223 -5 q 176 -93 189 -71 q 125 -179 132 -172 l 86 -165 q 129 -20 113 -93 q 90 -5 102 -20 q 77 40 77 10 m 279 594 q 279 579 279 594 q 244 529 279 564 q 172 494 209 494 q 110 547 110 494 q 138 619 110 584 q 204 654 165 654 q 261 640 242 654 q 279 594 279 625 z "},"<":{"ha":1047,"x_min":490,"x_max":1044,"o":"m 724 269 q 899 35 812 132 q 971 -77 971 -45 q 953 -104 971 -95 q 907 -114 935 -114 q 855 -97 879 -114 q 802 -53 831 -80 q 744 7 772 -26 q 695 67 717 39 q 648 135 674 95 q 606 201 623 176 q 563 273 590 227 q 513 355 536 319 q 490 410 490 391 q 493 437 490 429 q 505 457 496 446 q 521 477 513 469 q 546 505 529 486 q 594 558 563 523 q 678 653 625 593 q 757 743 731 713 q 812 806 783 773 q 854 852 842 838 q 884 881 867 865 q 932 917 907 903 q 983 932 958 932 q 1026 922 1008 932 q 1044 897 1044 913 q 1023 862 1044 880 q 972 826 1002 844 q 899 771 942 808 q 821 690 855 734 q 606 440 743 589 l 724 269 z "},"=":{"ha":760,"x_min":114,"x_max":646,"o":"m 578 416 l 485 418 q 180 406 403 418 q 142 433 142 406 q 175 492 142 481 q 303 503 199 496 q 526 510 407 510 q 646 482 646 510 q 624 439 646 462 q 578 416 603 416 m 550 264 l 457 265 q 153 253 375 265 q 114 281 114 253 q 147 339 114 329 q 275 350 171 344 q 498 357 379 357 q 618 329 618 357 q 596 286 618 309 q 550 264 575 264 z "},">":{"ha":1047,"x_min":444,"x_max":1047,"o":"m 777 269 l 936 440 q 797 661 836 590 q 726 768 759 732 q 669 822 694 804 q 607 888 607 867 q 628 921 607 910 q 672 932 650 932 q 707 929 694 932 q 733 916 719 926 q 759 894 747 906 q 789 854 770 882 q 826 798 808 826 q 863 739 844 770 q 896 683 882 709 q 952 593 909 658 q 1021 487 994 529 q 1047 431 1047 446 q 996 342 1047 400 q 929 263 979 323 q 857 178 879 203 q 790 103 836 153 q 712 24 744 53 q 546 -103 626 -54 q 497 -114 528 -114 q 444 -85 444 -114 q 482 -25 444 -62 q 608 95 519 12 q 777 269 697 178 z "},"?":{"ha":677,"x_min":25,"x_max":659,"o":"m 227 288 q 175 315 175 288 q 245 476 175 397 q 358 584 288 523 q 460 677 429 645 q 530 818 530 750 q 500 898 530 863 q 340 966 444 966 q 259 954 283 966 q 220 933 234 942 q 196 910 207 925 q 178 884 185 895 q 163 854 170 873 q 153 825 157 836 q 143 794 149 814 q 135 765 138 773 l 106 766 q 25 832 25 770 q 32 867 25 852 q 102 958 52 920 q 313 1029 194 1029 q 551 970 448 1029 q 629 893 600 941 q 659 791 659 846 q 638 691 659 736 q 585 613 618 646 q 513 553 553 581 q 432 499 473 524 q 357 451 391 475 q 272 338 279 397 q 252 300 265 313 q 227 288 239 288 m 309 80 q 309 65 309 80 q 273 15 309 50 q 202 -20 238 -20 q 139 33 139 -20 q 167 105 139 71 q 233 140 195 140 q 290 125 271 140 q 309 80 309 111 z "},"@":{"ha":1076,"x_min":37,"x_max":1035,"o":"m 957 628 q 1014 508 993 579 q 1035 362 1035 436 q 1018 229 1035 289 q 968 117 1000 169 q 885 33 937 65 q 767 0 833 0 q 655 37 701 0 q 610 135 610 75 q 523 24 590 70 q 390 -21 456 -21 q 281 22 323 -21 q 240 145 240 64 q 277 302 240 227 q 373 436 313 377 q 517 532 433 495 q 689 570 601 570 q 803 547 731 570 q 767 376 801 535 q 727 189 732 216 q 722 136 722 162 q 777 58 722 58 q 887 140 830 58 q 947 347 947 225 q 755 670 947 600 q 626 690 701 690 q 462 656 551 690 q 301 564 374 622 q 183 420 229 506 q 138 239 138 334 q 240 -31 138 66 q 514 -129 343 -129 q 875 -52 684 -129 l 916 -135 q 529 -212 747 -212 q 250 -148 372 -212 q 65 60 116 -77 q 37 228 37 135 q 73 407 37 320 q 169 558 108 493 q 307 673 229 624 q 642 772 463 772 q 957 628 850 772 m 675 518 q 533 466 602 518 q 425 338 465 414 q 385 196 385 262 q 405 99 385 130 q 460 68 426 68 q 531 99 494 68 q 597 184 568 130 l 675 518 z "},"A":{"ha":943,"x_min":54,"x_max":1164,"o":"m 895 863 q 913 840 913 863 q 911 829 913 832 q 766 223 851 669 q 769 118 749 134 q 785 113 775 113 q 850 134 821 113 q 1026 300 895 169 l 1026 224 q 972 166 1006 203 q 920 111 939 130 q 873 63 901 91 q 826 21 846 36 q 783 -10 806 5 q 701 -39 739 -39 q 644 -24 663 -39 q 604 92 604 3 q 607 131 604 111 q 446 8 534 55 q 286 -39 357 -39 q 110 27 165 -39 q 54 222 54 92 q 89 415 54 316 q 184 603 124 515 q 326 770 243 691 q 499 906 408 849 q 890 1029 697 1029 q 1029 1008 959 1029 q 1164 896 1164 967 q 1121 828 1164 867 q 1047 781 1078 789 q 850 964 1008 964 q 579 860 729 964 q 335 612 436 761 q 229 314 229 456 q 281 149 229 206 q 424 92 333 92 q 547 141 484 92 q 623 264 609 191 q 687 555 637 338 q 752 817 738 772 q 895 863 767 863 z "},"B":{"ha":1157,"x_min":9,"x_max":1069,"o":"m 143 205 l 142 144 q 159 53 142 78 q 212 28 178 28 q 272 46 246 28 q 318 99 298 65 q 352 169 337 132 q 378 252 367 205 q 404 367 395 315 q 415 424 414 418 l 488 808 q 643 847 494 847 q 597 603 623 692 q 572 481 597 600 q 498 180 525 251 q 576 90 518 126 q 710 53 633 53 q 832 106 787 53 q 876 237 876 159 q 832 394 876 315 q 718 513 788 474 l 718 591 q 869 640 810 596 q 928 750 928 683 q 606 943 928 943 q 394 897 500 943 q 227 770 273 844 q 200 681 200 727 q 310 566 200 604 q 294 453 310 505 q 157 529 218 477 q 90 668 90 588 q 138 817 90 748 q 266 931 186 885 q 663 1029 436 1029 q 971 938 865 1029 q 1048 764 1048 872 q 1025 672 1048 711 q 977 611 1002 633 q 811 558 918 559 q 1005 401 941 492 q 1069 235 1069 311 q 1043 107 1069 158 q 971 26 1017 57 q 759 -39 879 -39 q 569 -3 638 -39 q 457 106 500 33 q 334 -7 393 24 q 204 -39 275 -39 q 76 -1 137 -39 q 28 47 47 16 q 9 117 9 79 q 143 205 9 205 z "},"C":{"ha":860,"x_min":56,"x_max":951,"o":"m 743 779 q 628 961 707 961 q 485 926 553 958 q 366 843 417 895 q 278 726 315 791 q 201 432 201 594 q 283 177 201 270 q 498 85 365 85 q 722 141 604 85 q 951 306 840 198 l 951 231 q 418 -39 667 -39 q 111 142 209 -39 q 56 380 56 248 q 161 749 56 571 q 353 948 232 870 q 648 1029 479 1029 q 821 960 749 1029 q 892 799 892 890 q 861 744 892 760 q 711 663 831 729 q 529 570 543 570 q 503 597 503 570 q 623 683 503 631 q 706 729 668 703 q 743 779 743 755 z "},"D":{"ha":1171,"x_min":-36,"x_max":1141,"o":"m 103 221 l 98 150 q 116 61 98 94 q 179 28 133 28 q 230 46 205 28 q 269 97 254 64 q 368 403 319 200 l 449 819 q 536 846 458 846 l 600 846 q 577 690 591 795 q 552 520 563 585 q 514 360 542 456 q 444 179 486 264 q 521 80 464 119 q 638 40 578 40 q 758 74 699 40 q 863 168 817 109 q 938 317 909 228 q 966 494 966 407 q 952 644 966 581 q 908 763 939 707 q 831 859 877 819 q 570 945 734 945 q 374 905 471 945 q 216 806 277 866 q 155 688 155 745 q 267 566 155 608 q 260 500 267 534 q 249 456 254 466 q 97 547 148 488 q 46 668 46 606 q 68 778 46 729 q 140 873 91 827 q 259 954 189 919 q 659 1029 414 1029 q 838 1001 756 1029 q 975 926 920 972 q 1068 818 1029 879 q 1141 571 1141 701 q 1103 329 1141 440 q 999 138 1065 218 q 841 9 934 57 q 644 -39 749 -39 q 396 90 490 -39 q 282 -12 343 14 q 143 -37 221 -37 q 15 14 65 -37 q -36 125 -36 65 q 103 221 -36 221 z "},"E":{"ha":951,"x_min":-5,"x_max":1064,"o":"m 418 163 l 457 161 q 482 163 473 161 q 545 139 487 161 q 726 81 699 81 q 789 98 754 81 q 888 166 806 101 q 1034 297 970 231 l 1034 222 q 974 169 1013 204 q 917 117 935 133 q 866 75 899 102 q 814 35 833 47 q 766 5 795 22 q 715 -20 737 -12 q 606 -39 656 -39 q 592 -33 602 -39 q 572 -22 583 -28 q 539 -8 562 -17 q 487 12 517 1 q 300 74 434 33 q 175 -7 238 25 q 68 -39 113 -39 q 33 -30 52 -39 q -5 29 -5 -12 q 77 100 -5 65 q 98 110 94 108 l 272 189 q 349 428 290 215 q 262 413 303 422 q 213 404 222 404 q 195 411 204 404 q 186 437 186 418 q 221 476 186 467 q 374 515 267 494 q 500 856 452 790 q 571 922 525 891 q 431 928 503 928 q 181 887 261 928 q 102 775 102 846 q 136 703 102 737 q 235 646 171 669 q 229 594 235 622 q 215 559 222 566 q 56 649 111 596 q 1 760 1 703 q 121 955 1 881 q 446 1029 240 1029 l 643 1029 q 1064 1011 1064 1029 q 1051 990 1064 1003 l 983 913 q 912 889 948 889 q 786 903 877 889 q 653 920 694 918 q 611 759 648 899 q 549 539 574 619 q 710 546 637 546 q 863 542 783 546 q 888 520 888 542 q 866 477 888 499 q 819 454 845 454 q 525 447 619 454 l 525 446 q 396 161 490 319 l 418 163 z "},"F":{"ha":890,"x_min":-12,"x_max":1023,"o":"m 610 908 l 579 909 q 424 890 500 909 q 292 839 348 870 q 202 769 237 808 q 168 693 168 730 q 277 562 168 610 q 270 495 277 534 q 257 449 263 457 q 96 556 149 493 q 43 689 43 619 q 180 909 43 816 q 551 1022 318 1002 q 764 1029 659 1029 q 932 1029 870 1029 q 1023 1028 994 1028 l 928 885 q 783 894 864 885 q 671 905 701 903 q 633 701 656 831 q 604 539 610 572 q 723 546 662 546 q 863 542 783 546 q 888 518 888 542 q 866 467 888 494 q 819 440 845 440 q 583 433 660 440 q 472 76 534 193 q 352 -71 418 -26 q 171 -122 275 -122 q -1 -19 44 -122 q -12 33 -12 7 q 132 139 -12 139 q 125 49 125 98 q 141 -26 125 0 q 195 -54 157 -53 q 266 -18 233 -56 q 327 92 298 20 q 422 407 375 212 l 364 390 q 352 390 361 390 q 334 397 343 389 q 325 421 325 404 q 331 451 325 438 q 367 480 340 469 q 446 509 394 492 q 464 586 456 551 q 477 647 471 621 q 488 689 484 673 q 497 726 492 705 q 506 760 502 747 q 515 787 510 773 q 532 828 524 815 q 610 908 568 882 z "},"G":{"ha":989,"x_min":-79,"x_max":1074,"o":"m 504 -317 q 413 -297 459 -317 q 335 -237 368 -277 q 302 -157 302 -197 q 358 -60 302 -73 l 668 31 q 704 193 696 135 l 715 252 q 545 132 646 184 q 374 79 445 79 q 129 307 214 79 l 47 260 q -4 230 9 238 q -30 216 -18 222 q -61 203 -53 203 q -74 215 -68 203 q -79 248 -79 228 q -65 273 -79 268 q -3 308 -51 282 q 117 379 114 370 q 164 626 117 507 q 291 833 211 745 q 486 976 372 922 q 728 1029 601 1029 q 827 1009 779 1029 q 907 957 875 989 q 979 806 979 886 q 951 732 979 750 q 924 719 939 724 q 907 711 909 713 l 864 692 l 301 397 q 372 258 319 318 q 494 199 425 199 q 720 294 600 199 q 735 352 722 300 q 751 421 748 403 l 886 421 l 806 81 q 1074 298 893 121 l 1074 224 q 921 86 1017 163 q 785 -7 825 9 q 679 -238 753 -159 q 504 -317 605 -317 m 647 -50 q 575 -73 621 -61 q 499 -93 529 -85 q 445 -119 469 -101 q 421 -173 421 -138 q 448 -242 421 -208 q 510 -277 474 -277 q 570 -249 546 -277 q 609 -179 593 -221 q 647 -50 638 -101 m 787 709 q 835 766 835 730 q 793 904 835 839 q 707 970 751 970 q 573 940 638 970 q 457 858 508 909 q 368 742 407 807 q 289 460 289 608 l 572 602 q 657 644 609 620 q 787 709 762 699 z "},"H":{"ha":1268,"x_min":3,"x_max":1516,"o":"m 218 555 q 90 626 138 587 q 3 779 3 699 q 165 991 3 922 q 336 1028 252 1028 q 543 1004 419 1028 q 715 979 667 979 q 812 994 762 979 q 884 1010 861 1008 q 856 929 877 967 q 804 872 836 892 q 753 789 768 818 q 733 749 739 760 q 719 715 728 738 q 706 683 709 692 q 692 648 702 675 q 681 616 683 622 q 656 546 663 569 q 844 558 741 554 q 985 819 899 703 q 1197 1000 1083 949 q 1308 1028 1259 1028 q 1400 1016 1356 1028 q 1480 974 1443 1003 q 1516 915 1516 945 q 1470 840 1516 884 q 1398 794 1423 795 l 1393 808 q 1291 914 1362 914 q 1053 747 1166 914 q 951 562 997 666 l 1002 562 q 1167 554 1158 562 q 1175 531 1175 545 q 1154 493 1175 516 q 1107 471 1133 471 q 924 467 1013 471 q 895 267 895 366 q 922 114 895 167 q 998 61 950 61 q 1111 98 1046 61 q 1353 300 1219 159 l 1352 222 q 1135 37 1251 111 q 928 -37 1019 -37 q 826 19 864 -37 q 787 206 787 76 q 818 461 787 336 q 632 446 739 456 q 581 262 593 297 q 429 15 524 84 q 260 -37 358 -37 q 158 -19 203 -37 q 88 26 113 -1 q 37 132 37 82 q 140 211 37 200 q 197 214 164 214 l 197 174 q 229 48 197 74 q 269 36 244 36 q 318 48 294 36 q 360 82 342 61 q 394 133 378 104 q 420 194 409 161 q 441 263 431 227 q 466 375 458 331 q 476 428 474 418 l 332 407 q 293 435 293 407 q 312 486 293 473 q 328 493 318 490 q 498 525 398 510 q 554 713 526 653 q 613 804 582 772 q 686 859 644 836 q 549 881 650 862 q 402 900 448 900 q 315 895 357 900 q 223 876 273 889 q 141 837 174 863 q 109 774 109 810 q 239 647 109 703 q 218 555 239 582 z "},"I":{"ha":720,"x_min":140,"x_max":950,"o":"m 273 205 l 272 144 q 290 53 272 79 q 347 28 309 28 q 543 410 475 28 q 544 415 544 413 q 545 419 545 416 q 546 424 545 422 l 555 476 q 290 562 370 490 q 245 647 245 602 q 350 834 245 727 q 532 955 419 904 q 799 1007 650 1007 q 879 1022 829 1007 q 950 1038 928 1036 q 916 945 942 987 q 847 889 889 903 q 717 538 762 743 l 694 439 q 619 165 656 243 q 514 20 569 60 q 335 -39 435 -39 q 208 -1 268 -39 q 159 47 178 16 q 140 117 140 79 q 273 205 140 205 m 357 644 q 579 571 357 583 q 654 763 610 685 q 777 884 698 840 q 617 863 691 884 q 497 811 543 842 q 418 747 451 781 q 357 644 357 683 z "},"J":{"ha":730,"x_min":26,"x_max":831,"o":"m 728 889 q 611 570 656 765 q 798 585 701 570 q 777 507 798 530 q 591 475 688 483 l 511 90 q 596 137 528 100 q 712 209 663 174 q 821 302 761 244 l 821 227 q 662 96 768 164 q 496 7 555 28 q 393 -214 465 -138 q 224 -290 321 -290 q 135 -270 180 -290 q 58 -211 90 -250 q 26 -132 26 -172 q 83 -26 26 -41 l 367 50 q 416 286 379 125 q 458 473 453 446 l 458 475 q 160 575 239 486 q 131 625 138 599 q 133 682 121 644 q 161 746 144 721 q 198 798 178 772 q 247 849 218 823 q 309 898 277 875 q 384 941 342 921 q 471 975 426 961 q 679 1007 568 1007 q 759 1022 709 1007 q 831 1038 808 1036 q 796 945 823 987 q 728 889 770 903 m 237 644 q 297 594 237 614 q 479 570 357 574 q 547 761 506 682 q 657 884 587 840 q 498 863 572 884 q 378 811 424 842 q 298 747 332 781 q 237 644 237 683 m 355 -45 q 276 -65 332 -53 q 198 -85 221 -77 q 150 -140 150 -102 q 173 -210 150 -179 q 230 -241 197 -241 q 283 -221 262 -241 q 317 -165 303 -200 q 355 -45 341 -109 z "},"K":{"ha":1280,"x_min":0,"x_max":1489,"o":"m 215 555 q 88 626 136 586 q 0 779 0 699 q 163 991 0 922 q 332 1028 250 1028 q 533 1004 414 1028 q 699 979 652 979 q 795 994 746 979 q 867 1010 844 1008 q 787 872 851 911 q 702 723 736 802 q 636 538 667 643 l 624 496 q 807 696 716 590 q 953 858 897 802 q 1054 949 1008 914 q 1263 1029 1158 1029 q 1338 1019 1293 1029 q 1414 996 1383 1008 q 1466 961 1444 984 q 1489 911 1489 939 q 1442 840 1489 884 q 1371 794 1396 795 l 1365 808 q 1263 914 1334 914 q 1099 851 1169 914 q 991 732 1036 795 q 836 545 903 606 l 978 267 q 1011 204 990 244 q 1042 145 1032 163 q 1067 107 1053 127 q 1119 80 1093 71 q 1198 136 1145 89 q 1362 296 1251 184 l 1362 220 q 1067 -36 1130 -36 q 974 15 1021 -36 q 871 183 927 66 l 736 488 l 604 424 q 511 145 552 220 q 408 13 460 49 q 243 -37 334 -37 q 141 -19 186 -37 q 72 26 96 -1 q 21 132 21 82 q 122 211 21 200 q 180 214 147 214 l 180 174 q 212 48 180 74 q 255 36 227 36 q 310 53 283 36 q 358 100 338 69 q 393 166 378 132 q 420 247 408 201 q 440 329 433 293 q 457 409 448 365 q 471 473 466 453 l 485 538 q 595 804 527 734 q 669 859 627 836 q 543 881 641 862 q 399 900 444 900 q 312 895 354 900 q 221 876 270 889 q 139 837 172 863 q 106 774 106 810 q 236 647 106 701 q 215 555 236 581 z "},"L":{"ha":851,"x_min":-100,"x_max":943,"o":"m 220 79 q -26 -20 69 -20 q -60 -11 -41 -20 q -100 49 -100 7 q -71 92 -100 74 q 4 129 -40 111 l 182 210 l 339 771 q 381 838 352 814 q 411 862 396 851 q 444 886 426 872 q 508 930 463 899 q 619 995 553 960 q 714 1029 684 1029 q 872 958 802 1029 q 943 799 943 887 q 913 745 943 760 q 764 663 884 730 q 581 570 594 570 q 554 597 554 570 q 673 682 554 630 q 755 728 718 701 q 794 778 793 754 l 791 797 q 726 942 770 902 q 679 961 705 961 q 600 910 646 957 q 518 809 553 863 q 476 724 483 754 q 318 180 409 393 q 345 172 327 178 q 371 163 363 165 q 440 139 378 161 q 637 81 601 81 q 827 195 697 81 q 933 297 877 238 l 933 221 q 693 17 780 68 q 511 -39 597 -39 q 497 -34 506 -39 q 479 -24 489 -29 q 447 -9 469 -19 q 397 12 426 0 q 220 79 317 45 z "},"M":{"ha":1161,"x_min":-279,"x_max":1243,"o":"m 433 -12 q 397 28 397 -2 l 416 765 l 407 765 l 82 89 q -1 -23 53 37 q -124 -130 -54 -83 q -248 -176 -194 -176 q -279 -83 -279 -176 q -218 -18 -279 -42 q -100 31 -146 10 q 33 144 -7 73 q 227 553 88 263 q 412 943 366 844 q 494 1026 440 994 q 607 1059 548 1059 q 615 1054 607 1058 q 579 635 591 873 q 564 329 568 397 l 574 329 q 613 406 586 355 q 899 971 731 631 l 897 970 q 986 1035 916 1000 q 1096 1071 1057 1069 l 1101 1068 q 983 414 1008 586 q 957 169 957 242 q 989 96 957 96 q 1243 297 1038 96 l 1243 220 q 871 -37 979 -37 q 794 104 794 -37 q 814 331 794 208 q 863 612 844 507 q 892 768 882 718 q 903 826 903 817 q 895 835 903 835 q 884 827 886 835 q 433 -12 467 5 z "},"N":{"ha":999,"x_min":-1,"x_max":1083,"o":"m 909 132 l 1083 298 l 1082 224 q 990 131 1002 140 q 746 -39 813 -39 q 653 187 653 -39 q 714 713 653 412 q 726 760 718 728 q 746 860 746 831 q 728 888 746 888 q 681 872 719 888 q 594 826 643 856 q 508 765 545 795 q 438 697 471 734 q 382 628 405 660 q 339 555 359 595 q 307 486 319 515 q 283 419 295 456 q 259 332 265 361 q 236 223 252 302 q 184 0 220 144 l 45 0 q 70 169 45 63 q 137 428 94 275 q 200 675 179 581 l 256 890 l 37 736 l 17 729 q -1 764 -1 729 q 16 791 -1 780 l 307 975 q 422 1028 389 1028 q 436 1015 436 1028 q 410 872 436 976 q 383 761 383 769 l 372 705 q 785 1018 594 969 q 861 1028 825 1028 q 918 965 918 1028 q 890 807 918 946 q 806 244 806 389 q 852 100 806 100 q 909 132 878 100 z "},"O":{"ha":1121,"x_min":68,"x_max":1257,"o":"m 996 763 q 1053 662 1031 725 q 1075 537 1075 600 q 1067 432 1075 474 q 1257 504 1160 446 l 1257 441 q 1044 346 1165 370 q 912 143 1003 232 q 710 8 822 54 q 485 -39 598 -39 q 151 129 267 -39 q 68 450 68 250 q 175 768 68 618 q 472 994 291 931 q 682 1029 572 1029 q 775 1021 724 1029 l 772 951 q 680 957 741 957 q 542 929 619 957 q 407 856 464 902 q 307 753 349 810 q 222 507 222 635 q 371 170 222 275 q 578 109 458 109 q 795 172 699 109 q 946 336 892 235 l 937 336 q 690 408 792 336 q 611 500 641 444 q 582 637 582 557 q 644 779 582 718 q 825 840 705 840 q 996 763 922 840 m 699 677 q 779 498 699 570 q 982 425 859 427 q 1000 542 1000 483 q 950 701 1000 639 q 807 764 901 764 q 725 741 752 764 q 699 677 699 718 z "},"P":{"ha":893,"x_min":-90,"x_max":1036,"o":"m 43 119 l 41 45 q 121 -56 41 -56 q 231 30 185 -56 q 293 189 274 111 q 340 416 327 330 l 415 807 q 452 836 419 827 q 510 846 485 846 l 570 847 q 539 674 562 794 q 498 482 516 553 l 515 482 q 777 559 684 482 q 864 724 864 632 q 780 881 864 817 q 542 945 696 945 q 370 920 461 945 q 210 847 279 895 q 142 746 142 799 q 170 666 142 692 q 253 619 197 640 q 235 511 253 549 q 64 628 122 546 q 32 734 32 673 q 80 854 32 795 q 208 951 129 913 q 583 1029 373 1029 q 968 909 850 1029 q 1036 746 1036 839 q 1004 622 1036 683 q 914 511 971 560 q 769 431 857 461 q 581 400 682 400 q 485 408 534 400 q 281 -58 434 64 q 114 -122 201 -122 q -32 -81 27 -122 q -90 36 -90 -39 q 43 119 -90 119 z "},"Q":{"ha":1107,"x_min":41,"x_max":1230,"o":"m 511 -155 q 715 -103 677 -130 l 722 -184 q 616 -216 694 -199 q 494 -236 538 -232 q 419 -318 474 -285 q 285 -351 364 -351 q 148 -317 210 -351 q 95 -269 115 -300 q 75 -196 75 -237 q 121 -142 75 -142 l 382 -160 q 441 -28 401 -136 q 505 147 481 81 q 533 224 528 213 q 560 243 537 235 q 663 252 589 252 l 511 -155 m 286 -227 l 204 -220 q 179 -222 184 -220 q 174 -235 174 -224 q 210 -269 174 -251 q 284 -288 246 -288 q 337 -271 321 -288 q 364 -227 353 -254 l 286 -227 m 968 763 q 1027 662 1005 725 q 1048 537 1048 600 q 1040 432 1048 474 q 1230 504 1133 446 l 1230 441 q 1018 346 1139 370 q 886 143 977 232 q 684 8 795 54 q 458 -39 572 -39 q 125 129 240 -39 q 41 450 41 250 q 148 768 41 618 q 446 994 264 931 q 656 1029 545 1029 q 749 1021 697 1029 l 746 951 q 653 957 714 957 q 515 929 593 957 q 380 856 437 902 q 281 753 323 810 q 196 507 196 635 q 345 170 196 275 q 552 109 431 109 q 769 172 673 109 q 920 336 865 235 l 911 336 q 665 408 766 336 q 585 500 614 444 q 555 637 555 557 q 617 779 555 718 q 799 840 679 840 q 968 763 895 840 m 672 677 q 752 498 672 570 q 956 425 832 427 q 974 542 974 483 q 924 701 974 639 q 781 764 874 764 q 699 741 726 764 q 672 677 672 718 z "},"R":{"ha":1096,"x_min":-78,"x_max":1179,"o":"m 517 467 q 662 493 594 467 q 773 559 730 519 q 842 646 817 600 q 867 734 867 692 q 789 881 867 818 q 590 945 711 945 q 301 891 435 945 q 198 825 237 865 q 158 738 158 784 q 188 665 158 691 q 268 619 218 640 q 250 511 268 557 q 113 587 170 537 q 49 718 49 642 q 97 852 49 794 q 224 949 146 911 q 604 1029 391 1029 q 909 954 777 1029 q 1009 864 971 918 q 1047 746 1047 809 q 1022 635 1047 683 q 944 552 996 587 q 665 440 850 488 q 742 357 702 420 q 810 230 782 294 q 864 116 838 166 q 905 65 891 65 q 946 83 920 65 q 1006 130 973 100 q 1069 188 1040 160 q 1132 250 1099 216 q 1178 294 1166 283 l 1179 225 q 1139 180 1172 217 q 1090 128 1105 144 q 1044 81 1076 113 q 990 33 1012 49 q 940 -3 969 17 q 844 -39 886 -39 q 777 -30 802 -39 q 733 -4 751 -21 q 705 29 715 14 q 681 68 694 44 q 660 102 667 92 q 507 407 583 307 q 497 369 505 400 q 481 310 489 337 q 455 231 473 282 q 420 149 437 180 q 375 78 404 117 q 315 16 347 38 q 146 -39 239 -39 q -4 5 64 -39 q -78 139 -78 54 q -36 196 -78 176 q 69 216 7 216 q 79 214 74 216 q 77 164 77 186 q 161 36 77 36 q 248 105 207 36 q 318 280 290 175 q 369 488 347 385 q 406 680 391 591 q 427 784 422 769 q 433 803 431 798 q 443 820 435 808 q 461 835 451 831 q 528 847 492 847 q 582 846 564 847 q 517 467 564 699 z "},"S":{"ha":725,"x_min":-47,"x_max":777,"o":"m 399 942 q 371 930 399 942 q 302 871 342 919 q 262 776 262 824 q 282 692 262 728 q 335 624 302 656 q 406 560 368 593 q 484 491 445 527 q 555 415 523 454 q 628 220 628 328 q 600 97 628 154 q 527 1 572 41 q 421 -66 481 -38 q 171 -122 304 -122 q 26 -83 92 -122 q -27 -32 -7 -64 q -47 42 -47 0 q -15 111 -47 84 q 65 140 18 138 l 94 142 q 92 80 92 105 q 92 45 92 55 q 95 18 92 36 q 101 -8 97 1 q 115 -28 106 -16 q 138 -45 125 -40 q 215 -60 175 -60 q 290 -51 255 -60 q 359 -24 326 -42 q 420 18 393 -7 q 481 149 481 72 q 408 306 481 221 q 296 424 372 349 q 188 537 220 500 q 115 688 115 621 q 142 810 115 755 q 213 904 169 865 q 313 972 257 943 q 545 1029 425 1029 q 696 987 626 1029 q 754 926 732 966 q 777 832 777 886 q 643 741 777 819 q 473 650 509 663 l 473 717 q 536 747 483 722 q 654 831 654 803 q 513 965 654 965 q 399 942 455 965 z "},"T":{"ha":736,"x_min":-9,"x_max":1153,"o":"m 260 456 q 99 563 152 500 q 46 685 46 625 q 71 794 46 745 q 142 885 96 843 q 250 960 188 927 q 554 1029 382 1029 q 753 1004 615 1029 q 942 979 891 979 q 1030 989 994 979 q 1104 1015 1067 1000 q 1153 1034 1140 1030 q 1060 899 1128 949 q 903 850 993 850 q 815 863 854 850 q 740 891 776 877 q 689 911 704 905 q 667 801 682 876 q 645 690 653 727 q 622 581 637 652 q 593 466 606 509 q 560 357 581 422 q 519 251 540 292 q 471 159 498 210 q 413 77 444 108 q 346 16 382 45 q 174 -39 275 -39 q 2 64 47 -39 q -9 117 -9 91 q 135 222 -9 222 q 127 132 127 182 q 144 57 127 83 q 201 28 160 31 q 298 104 252 28 q 380 297 345 180 q 443 530 416 414 q 493 752 471 646 q 526 885 516 858 q 632 930 568 930 l 633 930 q 541 945 583 945 q 359 908 446 945 q 222 814 273 871 q 171 700 171 757 q 279 570 171 616 q 273 502 279 541 q 260 456 266 464 z "},"U":{"ha":1116,"x_min":-29,"x_max":1235,"o":"m 542 1023 q 506 935 542 1016 q 427 754 470 854 q 349 527 385 654 q 313 310 313 400 q 505 100 313 100 q 681 146 597 100 q 826 267 766 193 q 923 436 886 342 q 966 627 961 531 q 889 659 927 633 q 830 708 852 684 q 778 846 778 765 q 810 967 778 910 q 924 1031 847 1031 q 980 1010 956 1031 q 1017 957 1004 989 q 1040 885 1030 924 q 1050 810 1049 846 q 1054 744 1052 773 q 1055 705 1056 714 q 1054 694 1054 696 q 1183 748 1112 704 q 1235 787 1211 766 l 1235 710 q 1053 624 1138 639 q 909 244 1026 414 q 613 -3 785 66 q 436 -39 522 -39 q 298 -16 351 -39 q 213 49 245 7 q 151 276 151 132 q 212 592 151 420 q 364 889 273 764 q 361 892 364 892 q 353 888 359 892 l 275 828 q 216 791 263 821 q -29 642 83 709 l -29 717 q 188 848 45 760 q 417 987 330 936 q 523 1038 505 1038 q 542 1023 542 1038 m 970 697 l 971 724 q 950 850 971 791 q 896 908 929 908 q 859 851 859 908 q 891 751 859 795 q 970 697 923 707 z "},"V":{"ha":960,"x_min":-43,"x_max":1203,"o":"m 174 848 q 245 892 174 848 q 404 987 317 936 q 509 1038 491 1038 q 528 1023 528 1038 q 488 904 528 1038 q 425 679 448 770 q 368 311 368 460 q 473 123 368 123 q 565 158 515 123 q 660 248 614 193 q 747 370 705 302 q 872 625 829 500 q 760 683 824 633 q 706 751 728 708 q 684 834 684 793 q 692 906 684 876 q 716 966 700 937 q 829 1029 753 1029 q 966 693 966 1029 q 1134 755 1040 703 q 1203 800 1171 775 l 1203 722 q 958 623 1081 643 q 861 343 930 492 q 679 79 789 189 q 558 -7 625 25 q 422 -39 491 -39 q 305 -11 354 -39 q 229 65 256 16 q 176 298 176 159 q 212 575 176 437 q 292 781 248 714 q 329 842 309 806 q 349 885 349 878 q 347 892 349 892 q 339 888 345 892 l 261 828 q 201 791 250 821 q -43 642 54 700 l -43 717 q 174 848 32 760 m 879 697 l 880 724 q 846 879 880 821 q 806 908 828 908 q 768 851 768 908 q 801 751 768 795 q 879 697 833 707 z "},"W":{"ha":1341,"x_min":-50,"x_max":1581,"o":"m 1278 697 l 1279 724 q 1244 879 1279 821 q 1204 908 1227 908 q 1166 851 1166 908 q 1199 751 1166 795 q 1278 697 1232 707 m 1358 710 l 1358 697 l 1358 693 q 1516 755 1425 703 q 1581 800 1550 775 l 1581 722 q 1357 623 1463 642 q 1242 282 1347 463 q 990 6 1128 87 q 838 -39 913 -39 q 686 34 745 -39 q 652 94 664 62 q 636 146 640 125 q 498 20 586 77 q 351 -37 411 -37 q 247 -7 290 -37 q 178 70 203 22 q 129 283 129 164 q 171 542 129 402 q 285 781 212 682 q 321 841 300 803 q 342 885 342 878 q 340 892 342 892 q 332 888 338 892 l 254 828 q 195 791 243 822 q -50 642 64 710 l -50 717 q 168 848 26 760 q 503 1038 473 1038 q 521 1023 521 1038 q 452 832 521 997 q 321 375 321 519 q 471 123 321 123 q 556 154 506 123 q 629 221 607 184 q 624 306 624 248 q 630 425 624 363 q 651 555 636 488 q 689 675 667 623 q 748 762 711 728 q 828 796 784 796 q 884 718 884 796 q 800 389 884 619 q 769 305 782 338 l 755 272 q 779 203 755 233 q 917 147 825 147 q 1051 198 984 147 q 1165 323 1118 249 q 1241 479 1212 397 q 1271 625 1271 562 q 1194 657 1232 631 q 1134 707 1156 683 q 1082 844 1082 764 q 1114 966 1082 909 q 1227 1029 1151 1029 q 1358 710 1358 1029 z "},"X":{"ha":1047,"x_min":-17,"x_max":1131,"o":"m 45 100 l 146 92 q 281 181 192 92 q 496 424 370 270 q 368 712 418 608 q 312 829 318 817 q 303 846 307 842 q 295 859 300 851 q 262 871 286 871 q 209 852 239 871 q 166 826 180 833 q 115 799 152 819 q 24 747 78 779 l 24 822 q 333 1002 289 975 q 403 1029 377 1029 q 478 968 449 1029 q 628 589 494 930 q 721 704 692 670 q 889 923 842 869 q 993 1018 937 977 q 1037 1029 1010 1029 q 1082 1020 1064 1029 q 1100 990 1100 1010 q 1074 944 1100 970 q 1010 890 1048 918 q 919 809 973 863 q 821 690 864 755 q 665 493 756 604 l 737 311 q 823 140 792 188 q 886 92 854 92 q 948 121 916 92 q 1001 170 981 150 q 1060 229 1021 189 q 1129 298 1099 269 l 1131 222 q 976 62 1007 92 q 806 -39 871 -39 q 681 41 741 -39 q 546 306 620 121 l 533 335 q 363 137 418 198 q 295 62 309 77 q 255 25 281 47 q 206 -9 229 3 q 83 -40 149 -40 q -9 1 10 -40 q -17 47 -17 18 q -1 88 -17 77 q 45 100 15 100 z "},"Y":{"ha":1054,"x_min":103,"x_max":1135,"o":"m 679 -94 l 490 -204 q 366 -283 414 -239 q 318 -372 318 -327 q 335 -442 318 -417 q 375 -471 351 -467 q 478 -427 420 -471 q 586 -314 536 -383 q 654 -176 635 -245 l 679 -94 m 443 1008 q 518 1029 474 1029 q 562 1010 562 1029 q 543 935 562 998 q 510 814 524 871 q 452 618 495 756 q 355 243 355 307 q 372 193 355 218 q 408 168 388 168 q 519 194 456 168 q 645 262 583 220 q 757 369 707 305 q 823 501 807 433 l 885 755 q 924 903 895 802 q 965 1008 953 1004 l 1112 1008 l 872 58 l 1135 298 l 1135 222 l 860 -22 q 422 -509 702 -433 q 308 -525 363 -525 q 209 -510 252 -525 q 134 -461 165 -495 q 103 -384 103 -428 q 138 -321 103 -340 l 686 -28 l 794 310 q 534 85 684 182 q 297 -12 384 -12 q 213 30 246 -12 q 180 168 180 72 q 195 295 180 233 q 217 387 210 357 q 243 474 224 416 q 269 552 262 532 q 323 714 286 607 l 396 925 l 187 781 l 180 777 q 169 771 175 771 q 157 778 163 771 q 150 800 150 784 q 164 827 150 817 l 443 1008 z "},"Z":{"ha":983,"x_min":69,"x_max":1019,"o":"m 160 143 l 328 218 q 489 444 436 360 l 791 933 q 552 945 671 945 q 338 918 432 945 q 244 868 244 892 q 286 746 244 783 q 240 720 286 729 q 120 805 160 749 q 79 929 79 861 q 317 1013 79 984 q 575 1029 446 1029 q 820 1018 704 1029 q 953 1004 935 1006 l 982 939 q 893 790 957 900 q 774 587 829 681 q 634 376 718 494 q 473 176 551 258 q 514 164 480 174 q 570 147 548 153 q 629 129 592 140 q 694 111 667 118 q 751 96 722 103 q 833 81 810 81 q 880 92 857 81 q 1019 182 958 129 l 1019 114 q 922 51 991 98 q 807 -18 854 3 q 708 -39 760 -39 q 699 -36 705 -39 q 688 -31 694 -33 q 671 -23 682 -28 q 644 -12 659 -18 q 605 4 629 -5 q 552 23 581 13 q 389 79 482 49 q 257 8 324 37 q 143 -20 191 -20 q 109 -11 130 -20 q 69 49 69 6 q 160 143 69 103 z "},"[":{"ha":667,"x_min":22,"x_max":663,"o":"m 189 -52 l 376 -50 q 395 -75 395 -54 q 353 -122 395 -96 q 58 -129 134 -128 q 39 -135 46 -135 q 27 -127 33 -135 q 22 -107 22 -119 q 24 -90 22 -94 l 297 1003 q 351 1042 308 1042 l 640 1042 q 656 1031 650 1042 q 663 1008 663 1021 q 653 984 663 996 q 629 970 643 972 l 443 964 q 189 -52 192 -22 z "},"\\":{"ha":557,"x_min":-49,"x_max":631,"o":"m 107 960 q 216 747 110 949 q 583 5 537 127 q 608 -41 586 -2 q 631 -102 631 -80 q 615 -123 631 -123 q 506 -52 538 -123 q 494 -25 501 -41 q 484 -1 488 -9 l -45 1054 q -49 1077 -49 1068 q -44 1092 -49 1085 q -35 1099 -40 1099 q 54 1072 27 1099 q 107 960 80 1045 z "},"]":{"ha":671,"x_min":9,"x_max":648,"o":"m 482 965 l 294 964 q 277 988 277 968 q 318 1036 277 1009 q 612 1043 538 1042 q 632 1048 626 1048 q 643 1041 638 1048 q 648 1021 648 1033 q 647 1004 648 1008 l 374 -89 q 368 -105 374 -92 q 336 -134 353 -134 q 319 -127 330 -134 q 31 -121 250 -127 q 9 -91 9 -101 q 11 -75 9 -80 q 41 -49 23 -52 q 129 -50 54 -49 q 228 -50 204 -50 q 227 -40 227 -50 q 288 208 227 -29 q 415 700 348 445 q 482 965 481 954 z "},"^":{"ha":1157,"x_min":410,"x_max":1000,"o":"m 760 823 l 450 486 l 410 515 q 517 669 441 570 q 673 853 594 768 q 779 937 753 937 q 854 830 799 937 q 954 620 909 722 q 1000 509 998 517 l 951 481 q 857 648 938 501 q 760 823 776 795 z "},"_":{"ha":631,"x_min":49,"x_max":595,"o":"m 526 -50 l 433 -49 q 87 -61 339 -49 q 49 -33 49 -61 q 82 25 49 16 q 255 36 112 29 q 453 43 397 43 q 595 16 595 43 q 573 -27 595 -5 q 526 -50 552 -50 z "},"`":{"ha":1157,"x_min":463,"x_max":819,"o":"m 534 734 l 475 758 q 463 780 463 762 q 487 823 463 798 q 534 847 511 847 q 673 787 585 844 q 819 675 761 729 l 804 637 q 534 734 609 705 z "},"a":{"ha":629,"x_min":-3,"x_max":713,"o":"m 102 -20 q 1 95 20 -20 q -3 153 -3 123 q 34 302 -3 227 q 131 436 71 377 q 274 532 191 495 q 446 570 358 570 q 559 547 488 570 q 546 485 559 543 q 520 368 533 428 q 485 165 485 205 q 505 126 485 126 q 713 298 550 126 l 713 222 q 516 48 610 116 q 392 -20 423 -20 q 340 69 340 -20 q 346 135 340 98 q 232 26 297 71 q 102 -20 168 -20 m 142 191 q 208 89 142 89 q 278 119 237 89 q 354 184 320 149 l 432 518 q 290 466 359 518 q 182 338 222 414 q 142 191 142 262 z "},"b":{"ha":656,"x_min":53,"x_max":743,"o":"m 292 627 q 433 778 361 671 q 505 949 505 885 q 460 994 505 994 q 396 912 438 994 q 323 742 355 831 q 292 627 292 652 m 111 454 q 116 475 111 454 q 153 605 121 495 q 197 758 184 714 q 238 857 209 802 q 308 960 268 911 q 400 1041 348 1009 q 503 1072 452 1072 q 607 983 607 1072 q 268 497 607 810 q 247 417 262 475 q 224 323 232 358 q 199 160 199 221 q 278 52 199 52 q 378 91 326 52 q 465 187 431 130 q 500 296 500 245 q 326 407 500 407 q 387 485 336 444 q 476 526 438 526 q 584 485 549 526 q 619 370 619 443 q 596 223 619 297 q 521 106 574 149 q 650 211 570 132 q 743 302 729 289 l 742 225 q 616 111 655 138 q 546 62 578 83 q 489 30 515 41 q 427 3 463 18 q 357 -20 391 -12 q 215 -39 277 -39 q 122 -28 152 -39 q 77 2 92 -18 q 53 91 53 36 q 59 202 53 146 q 83 336 65 258 q 111 454 101 413 z "},"c":{"ha":472,"x_min":-3,"x_max":558,"o":"m 154 -20 q 37 29 76 -20 q -3 150 -3 78 q 24 295 -3 222 q 95 428 50 367 q 205 530 139 490 q 345 570 272 570 q 469 524 441 570 q 479 482 479 507 q 454 437 479 456 q 390 418 429 418 q 351 461 369 418 q 329 490 344 477 q 293 504 313 504 q 219 460 254 504 q 165 353 184 416 q 146 230 146 290 q 168 133 146 170 q 233 96 189 96 q 558 300 351 96 l 558 224 q 256 0 375 45 q 154 -20 203 -20 z "},"d":{"ha":619,"x_min":7,"x_max":717,"o":"m 367 161 q 220 28 294 76 q 109 -20 146 -20 q 52 -6 72 -20 q 23 31 33 8 q 7 134 7 73 q 40 276 7 195 q 125 420 73 356 q 242 527 176 485 q 359 570 309 570 q 458 555 410 570 l 549 878 q 586 968 568 956 q 637 988 611 987 q 693 990 663 990 l 717 990 q 693 896 714 967 q 577 500 651 770 q 503 178 503 230 q 507 144 503 153 q 525 135 512 135 q 580 174 538 135 q 703 298 622 214 l 703 222 q 668 187 693 213 q 630 149 642 161 l 594 114 q 557 78 571 90 q 523 47 543 66 q 489 19 503 29 q 460 -1 475 9 q 411 -20 431 -20 q 355 71 355 -20 q 367 161 355 114 m 446 496 q 421 514 443 505 q 382 522 400 522 q 269 469 323 522 q 182 339 214 415 q 150 193 150 262 q 205 107 150 107 q 314 156 249 107 q 386 233 379 205 l 446 496 z "},"e":{"ha":496,"x_min":18,"x_max":578,"o":"m 205 383 q 319 317 257 317 q 388 355 359 317 q 416 437 416 394 q 400 494 416 479 q 354 509 385 509 q 298 495 324 509 q 254 461 272 481 q 205 383 218 421 m 578 297 l 578 222 q 385 42 470 104 q 224 -20 300 -20 q 33 80 71 -20 q 18 175 18 119 q 60 364 18 274 q 179 512 101 454 q 351 570 256 570 q 511 450 511 570 q 449 316 511 373 q 309 258 387 258 q 243 277 277 258 q 186 332 210 295 q 157 212 157 271 q 271 56 157 56 q 344 84 300 56 q 421 144 388 113 q 507 228 455 176 q 578 297 558 279 z "},"f":{"ha":307,"x_min":-50,"x_max":504,"o":"m 371 921 q 312 863 340 921 q 264 735 280 793 q 239 645 248 677 q 220 560 231 612 q 189 417 190 425 q 188 405 189 410 q 186 397 186 401 q 240 478 199 419 q 304 576 280 538 q 358 669 328 615 q 418 848 418 774 q 371 921 418 921 m 390 298 l 390 222 q 208 89 265 89 q 135 131 151 89 q 102 -43 135 120 q 64 -228 70 -207 l -50 -228 q 45 272 -23 -27 q 178 807 113 572 q 278 933 196 873 q 440 994 359 994 q 503 924 498 994 q 504 899 504 914 q 468 729 504 818 q 380 566 431 640 q 277 429 328 492 q 189 318 225 366 q 153 244 153 271 q 174 189 153 217 q 218 161 195 161 q 301 212 242 161 q 390 298 361 262 z "},"g":{"ha":629,"x_min":35,"x_max":713,"o":"m 376 -269 q 288 -344 334 -317 q 205 -371 241 -371 q 140 -361 168 -371 q 91 -328 112 -351 q 71 -284 71 -305 q 73 -254 71 -263 q 83 -234 75 -244 q 95 -217 90 -224 q 113 -199 99 -211 q 131 -184 126 -188 q 154 -166 136 -180 q 176 -149 172 -152 l 364 -4 l 386 111 q 242 7 299 34 q 134 -20 184 -20 q 59 22 84 -20 q 35 121 35 64 q 53 242 35 178 q 105 364 71 306 q 184 469 139 422 q 290 542 230 515 q 413 570 351 570 q 618 543 475 570 l 514 104 q 569 156 532 121 q 622 206 606 191 q 713 298 663 243 l 713 222 l 500 16 q 376 -269 468 -160 m 355 -79 l 244 -174 q 228 -186 240 -177 q 210 -201 216 -196 q 195 -216 205 -205 q 182 -235 186 -226 q 170 -287 170 -260 q 181 -323 170 -313 q 220 -334 193 -334 q 308 -264 274 -334 q 355 -79 342 -194 m 183 220 q 249 89 183 89 q 396 189 307 89 l 475 519 q 408 532 425 532 q 320 502 363 532 q 248 427 277 472 q 183 220 183 327 z "},"h":{"ha":597,"x_min":7,"x_max":684,"o":"m 404 989 l 227 346 q 358 504 277 439 q 517 570 439 570 q 583 490 583 570 q 539 335 583 462 q 496 158 496 208 q 509 138 496 138 q 587 208 517 138 q 684 301 656 278 l 684 225 q 404 -20 470 -20 q 361 32 361 -20 q 363 58 361 39 q 385 141 366 77 q 440 406 440 324 q 401 444 440 444 q 276 357 342 444 q 186 181 210 270 q 149 56 163 93 q 113 0 134 18 l 7 0 q 167 632 18 84 l 216 817 q 276 968 248 937 q 319 989 292 987 q 371 991 345 991 q 404 989 397 991 z "},"i":{"ha":318,"x_min":20,"x_max":400,"o":"m 157 135 q 180 90 157 90 q 274 168 195 90 q 400 297 353 245 l 400 221 q 221 52 267 90 q 79 -20 138 -17 q 35 7 50 -20 q 20 76 20 34 q 58 273 20 118 q 108 461 96 429 q 129 507 121 494 q 149 527 137 519 q 171 539 161 534 q 199 545 180 543 q 264 547 225 547 q 157 135 157 204 m 273 728 q 225 777 225 728 q 251 842 225 810 q 311 873 276 873 q 362 860 345 873 q 379 819 379 846 q 347 760 379 791 q 273 728 315 728 z "},"j":{"ha":300,"x_min":-301,"x_max":385,"o":"m -12 1 l 14 93 q 60 309 29 175 q 101 467 92 444 q 116 500 110 490 q 130 518 121 511 q 144 531 138 526 q 162 539 150 536 q 181 544 174 542 q 203 547 187 546 q 227 547 220 547 q 254 547 227 547 q 241 502 254 544 q 220 430 229 459 q 197 351 212 401 q 173 262 183 300 q 153 184 163 224 q 132 72 132 102 q 226 148 146 77 q 385 298 306 218 l 385 222 q 285 123 322 159 q 107 -11 184 26 q 96 -63 104 -27 q 86 -109 89 -99 q 79 -145 84 -119 q 71 -180 73 -172 q 64 -209 69 -189 q 57 -241 60 -230 q 49 -272 54 -252 q 39 -309 44 -291 q 28 -349 34 -326 q -72 -475 9 -414 q -235 -536 -154 -536 q -272 -523 -257 -536 q -301 -429 -301 -496 q -262 -293 -301 -366 q -182 -172 -222 -220 q -38 -20 -101 -74 l -12 1 m -190 -320 q -209 -376 -202 -349 q -215 -414 -215 -402 q -204 -445 -215 -427 q -173 -463 -194 -463 q -138 -454 -151 -463 q -114 -428 -125 -446 q -94 -392 -103 -410 q -76 -343 -85 -373 q -60 -291 -66 -313 q -46 -234 -54 -269 q -35 -179 -39 -199 q -16 -79 -24 -125 q -190 -320 -159 -249 m 264 728 q 215 777 215 728 q 240 842 215 810 q 301 873 266 873 q 353 860 336 873 q 370 819 370 846 q 337 760 370 791 q 264 728 305 728 z "},"k":{"ha":614,"x_min":-7,"x_max":697,"o":"m 465 178 l 464 127 q 476 82 464 82 q 485 86 481 82 q 515 116 488 90 q 572 172 543 143 q 697 298 664 263 l 697 222 q 490 24 535 62 q 400 -20 440 -20 q 336 77 336 -20 l 346 205 q 335 237 346 225 q 196 262 312 262 l 192 244 q 98 0 146 41 l -7 0 q 153 632 2 74 l 203 817 q 262 968 235 935 q 305 990 279 989 q 357 991 331 991 q 390 989 383 991 q 300 677 364 895 q 236 457 236 459 l 472 570 q 537 542 512 570 q 562 482 562 514 q 557 430 562 450 q 545 397 551 411 q 522 369 538 382 q 494 347 506 355 q 458 328 483 338 q 385 298 406 305 q 360 290 363 291 q 354 288 357 288 q 447 252 425 288 q 465 178 465 224 m 200 310 l 245 310 q 354 332 307 310 q 441 438 441 373 q 389 503 441 503 q 321 472 364 503 q 241 394 278 441 q 200 310 204 347 z "},"l":{"ha":375,"x_min":61,"x_max":566,"o":"m 460 961 q 367 829 412 961 q 264 419 322 696 q 359 545 315 471 q 431 688 404 618 q 489 897 489 833 q 460 961 489 961 m 122 -20 q 90 -7 98 -20 q 76 13 81 5 q 68 36 71 22 q 64 60 66 50 q 62 88 62 71 q 61 114 61 105 l 61 140 q 97 430 61 271 q 190 723 134 589 q 323 948 247 857 q 471 1039 399 1039 q 540 1009 515 1039 q 566 919 566 979 q 548 786 566 860 q 501 651 530 713 q 438 532 473 590 q 369 430 404 474 q 259 304 298 340 l 241 286 q 201 130 201 180 q 225 79 201 79 q 318 154 242 79 q 457 298 394 229 l 457 222 q 264 41 340 97 q 122 -20 188 -15 z "},"m":{"ha":914,"x_min":-17,"x_max":996,"o":"m 693 -21 q 653 39 653 -21 q 700 222 653 118 q 747 395 747 326 q 734 429 747 413 q 695 444 722 444 q 633 406 669 444 q 569 316 597 368 q 513 197 541 263 q 444 0 470 92 l 314 0 q 370 270 314 89 q 403 402 403 378 q 393 436 403 426 q 374 447 384 447 q 357 444 365 447 q 270 365 313 424 q 195 232 227 305 q 113 0 137 96 l -17 0 q 30 274 -12 87 q 106 514 72 460 q 147 542 118 536 q 245 547 176 547 q 207 410 236 500 q 171 298 177 319 q 478 568 325 568 q 517 539 505 568 q 530 463 530 509 q 494 298 530 416 q 624 477 543 393 q 712 544 665 518 q 803 570 760 570 q 879 465 879 570 q 826 213 879 369 q 811 156 811 170 q 818 142 811 142 q 831 145 824 142 q 849 158 839 149 q 870 175 860 166 q 897 200 880 184 q 926 229 913 216 q 960 262 939 241 l 996 298 l 996 222 q 819 57 911 135 q 693 -21 726 -21 z "},"n":{"ha":568,"x_min":-17,"x_max":650,"o":"m 650 296 l 650 220 q 459 45 542 110 q 348 -20 376 -20 q 297 37 297 -20 q 322 173 297 94 q 373 316 348 252 q 399 402 399 380 q 391 434 399 424 q 372 444 383 444 q 289 390 334 444 q 209 260 244 336 q 113 0 136 101 l -17 0 q 24 243 -16 73 q 97 493 65 412 q 134 536 110 526 q 199 547 158 547 l 244 547 q 171 301 195 376 q 302 473 216 386 q 394 543 345 515 q 488 570 444 570 q 554 490 554 570 q 506 310 554 452 q 458 154 458 168 q 467 139 458 139 q 489 148 475 139 q 570 221 503 157 q 650 296 636 284 z "},"o":{"ha":615,"x_min":21,"x_max":697,"o":"m 464 561 q 449 532 464 541 q 243 454 314 532 q 176 290 176 381 q 217 144 176 199 q 315 90 257 90 q 428 151 374 90 q 350 235 377 183 q 322 341 322 288 q 355 429 322 395 q 449 463 387 463 q 539 429 511 463 q 567 348 567 396 q 504 172 567 249 q 533 165 521 165 q 558 171 545 165 q 589 192 572 177 q 618 219 606 206 q 656 258 631 232 q 697 300 680 283 l 697 225 q 606 140 641 165 q 537 115 571 115 q 476 125 504 115 q 352 21 424 61 q 204 -20 281 -20 q 47 84 94 -20 q 21 215 21 142 q 138 475 21 380 q 449 570 255 570 q 464 561 463 570 m 503 335 q 447 397 503 397 q 392 332 392 397 q 411 260 392 297 q 461 201 429 223 q 489 263 475 224 q 503 335 503 303 z "},"p":{"ha":567,"x_min":-93,"x_max":667,"o":"m 467 570 q 554 467 554 570 q 492 260 554 377 q 358 98 430 143 q 541 198 428 98 q 667 318 595 245 l 667 240 q 621 195 650 224 q 577 153 591 165 q 539 117 564 140 q 501 83 514 93 q 466 56 488 73 q 430 32 444 39 q 394 14 415 24 q 354 -1 372 3 q 277 -11 308 -11 q 237 0 245 -11 q 228 24 228 11 q 229 42 228 37 q 234 54 231 47 q 241 64 238 60 q 251 77 244 69 q 260 89 257 85 q 271 102 264 93 q 363 247 323 160 q 403 389 403 334 q 358 444 403 444 q 217 320 281 444 q 113 57 160 210 l 94 -1 q 29 -264 83 -42 l -93 -264 q -38 -22 -67 -170 q 21 257 -9 125 q 90 493 52 389 q 126 538 104 528 q 192 547 148 547 l 237 547 q 164 301 202 425 q 288 472 208 387 q 375 542 328 515 q 467 570 423 570 z "},"q":{"ha":608,"x_min":37,"x_max":693,"o":"m 380 -298 l 252 -257 l 326 -32 q 253 -37 293 -37 q 37 175 37 -37 q 127 437 37 314 q 237 533 170 496 q 374 570 304 570 q 586 515 445 570 l 482 83 q 591 194 526 132 q 693 298 657 255 l 693 222 l 468 12 l 468 9 q 423 -162 454 -47 q 380 -298 392 -276 m 178 197 q 288 41 178 41 q 336 49 314 41 l 443 519 q 376 532 393 532 q 277 477 324 532 q 204 346 230 422 q 178 197 178 269 z "},"r":{"ha":447,"x_min":81,"x_max":529,"o":"m 334 494 l 415 504 q 435 494 435 504 q 388 388 435 485 q 281 123 281 168 q 280 118 281 123 q 280 112 280 114 q 281 105 281 109 q 283 99 282 101 q 297 93 288 93 q 405 173 315 93 q 529 298 496 254 l 529 222 q 203 -20 287 -20 q 158 7 173 -20 q 143 60 143 34 q 153 119 143 85 q 181 196 163 153 q 213 275 198 239 q 246 351 228 310 q 267 399 264 392 q 177 313 228 359 q 81 220 125 266 l 81 296 l 218 439 q 111 503 136 459 q 106 518 106 511 q 142 602 106 566 q 237 637 178 637 q 268 602 268 637 q 256 556 268 581 q 227 522 243 531 q 334 494 258 494 z "},"s":{"ha":437,"x_min":-58,"x_max":524,"o":"m 231 5 q 219 0 231 5 q 180 -12 208 -5 q 125 -20 153 -20 q 67 -14 98 -20 q 8 3 37 -9 q -58 97 -58 31 q -39 157 -58 123 q 4 217 -19 191 q 60 276 28 243 q 103 323 92 309 q 85 422 85 369 q 134 554 85 502 q 279 606 182 606 q 322 582 322 606 q 286 516 322 540 q 208 493 250 493 q 286 368 231 423 q 326 326 307 346 q 370 249 370 281 q 322 134 370 199 l 524 298 l 524 224 q 483 189 515 217 q 436 148 451 160 q 389 109 422 135 q 336 68 356 82 q 285 35 316 54 q 231 5 254 15 m 132 271 q 91 232 127 264 q 11 122 11 161 q 50 58 11 84 q 135 32 90 32 q 208 47 180 32 q 236 86 236 62 q 230 129 236 110 q 211 169 224 148 q 188 202 197 189 q 158 239 178 216 q 132 271 138 262 z "},"t":{"ha":370,"x_min":24,"x_max":468,"o":"m 106 498 q 90 498 96 498 q 77 499 83 498 q 68 500 71 499 q 60 502 64 500 q 53 505 56 503 q 47 510 50 507 q 43 525 43 515 q 43 536 43 534 q 68 546 46 543 l 125 551 q 170 686 157 657 q 194 738 182 715 q 217 774 206 761 q 243 802 229 787 q 275 824 258 817 q 354 842 313 842 l 357 839 q 339 786 357 836 q 261 551 281 619 l 468 561 l 453 536 q 250 505 436 505 q 229 430 250 505 q 168 158 168 205 q 179 103 168 110 q 201 96 190 96 q 460 306 238 96 l 460 229 q 396 170 437 208 q 332 111 355 132 q 274 61 309 90 q 214 18 239 33 q 104 -20 152 -20 q 24 93 24 -20 q 43 238 24 155 q 76 375 62 322 q 106 498 90 429 z "},"u":{"ha":673,"x_min":25,"x_max":755,"o":"m 104 -20 q 25 94 25 -20 q 35 170 25 133 q 147 530 75 323 q 257 547 150 547 l 281 547 q 253 458 281 546 q 170 147 170 196 q 215 98 170 98 q 311 132 254 98 q 378 184 368 165 l 452 467 q 492 537 467 524 q 555 547 512 547 l 602 547 q 500 167 515 236 q 494 105 494 115 q 497 91 494 95 q 511 87 500 87 q 755 297 546 87 l 755 221 q 699 169 739 206 q 638 112 659 131 q 582 63 617 92 q 522 19 546 34 q 421 -20 460 -20 q 363 69 363 -20 q 370 132 363 106 q 104 -20 213 -20 z "},"v":{"ha":528,"x_min":37,"x_max":615,"o":"m 425 182 q 439 144 437 159 q 481 168 456 144 q 522 207 507 192 q 566 252 536 222 q 615 302 595 282 l 615 227 q 476 96 505 112 q 433 81 448 81 q 382 143 411 81 q 297 22 326 45 q 228 -14 259 -8 q 167 -20 196 -20 q 95 37 125 -20 q 37 368 37 144 q 46 514 37 453 q 153 547 50 547 l 207 547 q 186 332 186 435 q 207 154 186 229 q 254 79 229 79 q 330 172 275 79 q 355 216 355 216 q 354 251 354 216 q 360 340 354 286 q 380 448 367 395 q 415 535 393 501 q 467 570 438 570 q 501 504 501 570 q 473 334 501 437 q 425 182 444 230 z "},"w":{"ha":772,"x_min":26,"x_max":856,"o":"m 453 -20 q 381 0 412 -20 q 336 53 351 20 q 155 -20 259 -20 q 61 20 96 -20 q 26 118 26 60 q 118 494 26 220 q 225 547 136 547 l 265 547 q 236 457 262 534 q 172 167 172 266 q 190 94 172 119 q 243 68 207 68 q 323 109 279 68 l 323 118 q 347 266 323 184 q 456 424 393 424 q 490 381 490 424 q 466 257 490 338 q 441 167 441 176 q 459 94 441 119 q 506 68 477 68 q 567 109 534 68 q 607 201 600 151 q 613 263 610 215 q 623 359 617 311 q 640 457 629 407 q 725 570 664 570 q 750 525 740 570 q 760 443 760 481 q 712 253 760 371 l 696 214 q 722 189 706 189 q 767 213 739 189 q 856 300 795 237 l 856 222 q 816 185 840 209 q 779 150 792 162 q 719 118 745 118 q 668 155 694 118 q 581 30 636 80 q 453 -20 525 -20 z "},"x":{"ha":612,"x_min":-20,"x_max":697,"o":"m 117 90 l 243 241 l 142 437 q 122 454 133 454 q 66 415 112 454 q -4 350 20 376 l -20 387 q 100 511 35 454 q 206 568 166 568 q 262 541 246 568 q 277 509 265 535 q 346 366 315 428 l 440 479 q 566 570 508 570 q 596 557 585 570 q 608 529 608 545 q 591 502 608 513 q 548 474 573 490 q 498 426 522 458 q 383 290 473 395 q 486 119 453 154 q 490 118 488 118 q 574 178 509 118 q 697 301 639 238 l 697 222 q 624 152 666 193 q 555 85 583 111 q 499 33 528 58 q 414 -20 440 -20 q 372 2 389 -20 q 332 69 356 23 l 281 168 q 186 53 245 126 q 61 -37 115 -37 q 30 -25 41 -37 q 18 2 18 -13 q 36 29 18 17 q 78 58 53 41 q 117 90 104 75 z "},"y":{"ha":583,"x_min":-3,"x_max":667,"o":"m 343 132 q 77 -20 185 -20 q 16 13 35 -20 q -3 97 -3 45 q 119 530 -3 183 q 229 547 122 547 l 253 547 q 225 458 253 546 q 142 147 142 196 q 187 98 142 98 q 283 132 226 98 q 350 184 340 165 l 424 467 q 465 537 439 524 q 528 547 484 547 l 574 547 q 531 402 558 503 q 492 259 503 301 q 457 130 467 168 l 452 111 q 667 298 606 240 l 667 222 l 440 18 l 440 16 q 391 -139 425 -71 q 315 -248 357 -208 q 139 -332 229 -332 q 52 -302 92 -332 q 11 -231 11 -272 q 38 -162 11 -191 q 117 -106 66 -134 l 321 24 l 343 132 m 313 -60 l 187 -139 q 152 -162 165 -153 q 125 -191 138 -172 q 113 -229 113 -209 q 163 -285 113 -285 q 260 -223 223 -285 q 313 -60 298 -161 z "},"z":{"ha":500,"x_min":-57,"x_max":619,"o":"m 386 494 l 467 504 q 485 484 485 504 q 484 475 485 476 l 392 283 q 326 144 376 245 q 356 127 345 138 q 370 103 367 117 q 506 221 425 139 q 591 307 587 302 l 619 257 q 412 60 478 113 l 390 43 q 299 -240 376 -127 q 107 -363 222 -354 q -14 -332 30 -363 q -57 -250 -57 -301 q 23 -75 -57 -145 q 264 47 104 -4 q 227 56 256 50 q 165 75 165 67 q 223 221 165 98 q 297 380 281 345 l 256 390 q 178 315 243 377 q 78 218 113 253 l 78 293 l 210 432 q 160 522 160 457 q 195 600 160 562 q 288 637 231 637 q 311 629 300 637 q 322 604 322 621 q 281 524 322 553 q 386 494 309 494 m 306 -3 q 201 -49 249 -34 q 129 -76 153 -64 q 92 -104 105 -89 q 61 -211 61 -137 q 75 -266 61 -242 q 121 -290 88 -290 q 197 -244 153 -290 q 272 -130 241 -199 q 306 -3 304 -62 z "},"{":{"ha":551,"x_min":24,"x_max":543,"o":"m 58 216 l 60 244 q 71 333 61 273 q 81 420 81 393 q 79 460 82 448 q 70 475 76 471 q 58 479 64 479 q 41 479 52 479 q 24 482 31 479 l 41 602 q 84 600 62 600 q 114 605 106 600 q 126 621 121 610 q 134 643 132 633 q 141 675 136 654 q 158 744 145 696 q 199 855 170 791 q 268 971 227 918 q 490 1080 353 1080 q 543 1076 515 1080 l 529 999 q 496 1004 513 1004 q 416 971 455 1004 q 349 886 378 939 q 269 668 294 785 q 222 563 252 589 q 153 530 196 540 q 202 487 189 509 q 216 434 216 465 q 207 319 216 404 q 197 183 197 235 q 205 85 197 130 q 235 9 214 40 q 284 -21 256 -21 q 326 -14 311 -21 l 318 -78 q 250 -89 285 -89 q 142 -45 186 -89 q 58 216 58 37 z "},"|":{"ha":501,"x_min":61,"x_max":437,"o":"m 202 486 q 256 706 202 486 q 318 961 310 926 q 333 1011 326 997 q 358 1028 340 1026 q 407 1029 376 1029 q 437 1026 437 1029 l 182 -29 q 177 -56 180 -37 q 172 -85 175 -75 q 161 -106 170 -96 q 138 -115 152 -115 l 61 -115 q 202 486 95 47 z "},"}":{"ha":551,"x_min":8,"x_max":528,"o":"m 492 747 q 480 659 490 718 q 470 556 471 599 q 494 513 469 513 l 510 513 q 528 510 520 513 l 510 390 q 467 392 489 392 q 438 387 446 392 q 425 371 430 382 q 417 348 420 359 q 411 317 415 338 q 403 282 406 296 q 61 -89 304 -89 q 8 -85 35 -89 l 22 -7 q 56 -12 39 -12 q 135 21 96 -12 q 202 106 174 54 q 282 323 258 212 q 329 429 298 402 q 399 461 354 451 q 349 504 363 482 q 335 557 335 526 q 345 672 335 588 q 354 809 354 757 q 346 907 354 862 q 316 982 338 952 q 268 1013 295 1013 q 225 1006 240 1013 l 233 1069 q 301 1080 267 1080 q 409 1037 365 1080 q 492 775 492 956 l 492 747 z "},"~":{"ha":758,"x_min":93,"x_max":686,"o":"m 167 806 q 222 722 174 722 q 326 742 262 722 q 456 782 390 762 q 559 802 522 802 q 618 789 596 802 q 652 758 640 777 q 671 716 663 740 q 681 675 679 693 q 686 624 686 635 l 602 611 q 550 699 592 699 q 395 656 496 699 q 212 614 294 614 q 127 657 155 614 q 100 727 104 694 q 93 791 93 780 l 167 806 z "},"":{"ha":412,"x_min":83,"x_max":489,"o":"m 335 772 q 366 779 351 779 q 383 774 380 779 q 386 756 386 770 q 385 734 386 743 l 282 150 q 244 7 265 28 q 229 0 237 0 l 106 0 q 83 36 83 0 q 169 311 83 73 q 295 661 254 549 q 335 772 335 772 m 319 949 q 319 964 319 949 q 355 1014 319 979 q 426 1048 390 1048 q 489 996 489 1048 q 461 924 489 959 q 395 889 433 889 q 338 904 357 889 q 319 949 319 919 z "},"":{"ha":528,"x_min":5,"x_max":515,"o":"m 368 653 l 380 654 q 506 608 477 654 q 515 567 515 592 q 490 522 515 541 q 427 503 465 503 q 391 536 407 503 q 351 583 374 572 l 258 180 l 269 180 q 473 278 347 180 l 501 224 q 232 69 347 89 l 160 -244 q 155 -276 157 -255 q 150 -307 152 -297 q 139 -326 147 -317 q 115 -335 130 -335 q 96 -315 96 -335 q 103 -264 96 -301 l 109 -228 q 174 65 130 -121 q 47 118 89 70 q 5 233 5 166 q 28 365 5 300 q 91 486 51 429 q 189 587 130 543 q 314 646 248 631 l 367 861 q 399 982 393 970 q 414 994 406 994 q 426 993 422 994 q 441 970 441 988 l 368 653 m 220 260 l 298 583 q 224 526 258 570 q 154 314 154 433 q 204 197 154 231 q 220 260 210 227 z "},"":{"ha":928,"x_min":-142,"x_max":901,"o":"m 178 79 q -68 -20 25 -20 q -102 -11 -83 -20 q -142 49 -142 7 q -113 92 -142 73 q -37 129 -84 110 l 140 210 l 161 285 l 64 281 q 25 309 25 281 q 58 367 25 357 q 187 378 79 371 l 204 439 l 92 433 q 53 461 53 433 q 86 519 53 510 q 231 532 115 525 l 297 771 q 313 807 304 796 q 326 824 321 819 q 339 838 330 830 q 353 849 349 846 q 370 862 357 852 q 403 886 383 871 q 467 930 422 901 q 577 995 511 960 q 672 1029 643 1029 q 830 958 760 1029 q 901 799 901 887 q 871 744 901 760 q 720 663 840 729 q 538 570 552 570 q 513 597 513 570 q 632 682 513 630 q 714 728 676 701 q 753 778 752 754 l 749 797 q 684 942 728 902 q 637 961 663 961 q 558 910 605 957 q 476 809 511 863 q 435 724 441 754 q 393 538 420 652 l 415 538 q 557 510 557 538 q 535 467 557 490 q 489 444 514 444 l 396 446 l 368 446 q 350 383 359 413 q 415 385 372 385 q 557 357 557 385 q 536 314 557 336 q 489 292 515 292 l 396 293 q 319 292 357 293 q 277 180 315 277 q 303 172 286 178 q 329 163 321 165 q 406 139 337 161 q 615 81 584 81 q 669 92 646 81 q 808 182 745 127 l 808 114 q 711 51 780 98 q 596 -18 643 3 q 497 -39 549 -39 q 488 -36 494 -39 q 477 -31 483 -33 q 460 -23 471 -28 q 433 -12 448 -18 q 394 4 418 -5 q 341 23 370 13 q 178 79 271 49 z "},"":{"ha":798,"x_min":29,"x_max":739,"o":"m 103 555 q 183 766 103 681 l 118 852 q 91 884 104 861 q 78 922 78 907 q 90 954 78 937 q 121 971 102 971 q 172 937 140 971 q 262 825 203 903 q 400 857 330 857 q 532 825 471 857 q 578 883 543 838 q 616 935 613 929 l 615 933 q 622 944 615 935 q 674 971 644 971 q 739 939 705 971 q 730 918 736 924 l 600 764 q 648 611 648 699 q 562 396 648 479 q 637 302 605 340 q 694 220 694 233 q 679 195 694 206 q 635 183 663 183 q 586 212 608 183 l 488 342 q 350 310 422 310 q 221 340 277 310 l 170 279 q 103 209 119 218 q 75 200 86 200 q 46 210 64 200 q 29 236 29 220 q 34 262 29 252 q 52 285 39 272 q 80 320 65 298 q 146 406 96 343 q 103 555 103 466 m 534 601 q 534 636 534 601 q 500 712 534 671 q 392 754 467 754 q 270 694 317 754 q 222 566 222 634 q 255 455 222 497 q 361 412 287 412 q 485 472 435 412 q 534 601 534 532 z "},"":{"ha":1048,"x_min":127,"x_max":1112,"o":"m 664 -14 l 571 -12 l 504 -12 l 476 -146 q 440 -269 454 -243 q 412 -296 426 -295 l 292 -296 q 273 -265 273 -296 q 292 -153 273 -235 q 314 -18 295 -123 l 170 -25 q 131 3 131 -25 q 164 61 131 52 q 334 72 190 65 l 346 134 l 197 127 q 158 155 158 127 q 192 214 158 204 q 325 224 209 217 q 304 304 319 247 q 281 395 289 361 q 245 570 255 498 q 219 717 236 616 q 195 848 202 819 l 174 836 q 127 808 161 828 l 127 884 q 238 969 194 933 q 300 1017 283 1005 q 343 1038 326 1038 q 361 1023 361 1038 l 365 998 q 437 575 406 717 q 491 300 462 412 l 501 262 q 787 560 684 423 q 844 653 829 615 q 732 711 796 661 q 678 779 700 736 q 656 862 656 821 q 664 934 656 903 q 688 994 672 965 q 802 1057 725 1057 q 939 721 939 1057 q 1022 752 970 726 q 1112 814 1074 779 l 1112 736 q 930 650 1019 666 q 608 232 895 504 l 618 232 q 760 204 760 232 q 739 161 760 184 q 692 139 718 139 l 599 140 l 538 140 l 524 78 l 590 79 q 732 52 732 79 q 711 9 732 31 q 664 -14 690 -14 m 851 725 l 852 751 q 832 878 852 819 q 778 936 811 936 q 741 880 741 936 q 773 779 741 823 q 851 725 805 734 z "},"":{"ha":501,"x_min":65,"x_max":437,"o":"m 65 -98 l 178 387 q 207 407 182 407 q 256 399 231 407 q 282 387 281 392 l 182 -29 q 156 -104 166 -93 q 138 -115 146 -115 q 65 -98 65 -115 m 437 1026 l 334 597 q 317 582 330 582 q 237 587 245 582 q 229 597 229 593 l 311 932 q 317 958 314 942 l 322 979 q 346 1023 331 1018 q 400 1029 362 1029 q 437 1026 437 1029 z "},"":{"ha":725,"x_min":54,"x_max":777,"o":"m 521 313 q 568 202 568 262 q 536 96 568 142 q 455 21 505 50 q 241 -39 351 -39 q 84 23 140 -39 q 54 98 54 56 q 82 163 54 140 q 151 187 111 186 l 176 189 q 174 136 174 158 q 174 106 174 115 q 176 83 174 98 q 182 61 178 68 q 194 43 186 54 q 214 28 202 33 q 244 19 226 23 q 286 16 262 16 q 338 26 310 16 q 393 54 367 36 q 437 100 419 72 q 454 165 454 129 q 421 239 454 201 q 342 305 389 276 q 248 361 295 334 q 135 475 135 425 q 172 601 135 545 q 272 696 209 657 q 204 804 204 752 q 228 898 204 855 q 292 970 252 941 q 380 1021 331 1000 q 576 1063 476 1063 q 730 1009 671 1063 q 777 893 777 966 q 661 814 777 881 q 515 736 546 747 l 515 793 q 568 819 521 796 q 671 892 671 867 q 549 1007 671 1007 q 366 936 437 1007 q 330 864 330 900 q 348 805 330 829 q 393 763 366 782 q 455 725 421 744 q 523 686 489 706 q 585 644 557 665 q 648 532 648 594 q 521 313 648 397 m 416 597 q 370 628 401 608 q 325 657 339 648 q 261 534 261 605 q 309 458 261 495 q 393 404 338 437 q 469 357 448 372 q 521 466 521 406 q 416 597 521 526 z "},"":{"ha":1157,"x_min":252,"x_max":749,"o":"m 422 767 q 422 753 422 767 q 386 703 422 738 q 315 667 350 667 q 252 720 252 667 q 280 792 252 758 q 346 827 307 827 q 403 812 384 827 q 422 767 422 797 m 749 767 q 749 752 749 767 q 713 702 749 737 q 642 667 678 667 q 579 720 579 667 q 607 792 579 758 q 673 827 635 827 q 730 812 711 827 q 749 767 749 798 z "},"":{"ha":1234,"x_min":75,"x_max":1158,"o":"m 616 564 q 597 583 597 564 q 621 618 597 602 q 673 647 645 635 q 749 703 749 679 q 728 770 749 730 q 682 811 707 811 q 576 781 627 811 q 492 705 526 751 q 419 493 419 604 q 461 338 419 401 q 600 271 505 271 q 890 418 739 271 l 890 354 q 550 180 709 180 q 422 218 476 180 q 317 450 317 293 q 363 652 317 558 q 498 804 410 746 q 694 863 585 863 q 804 819 756 863 q 852 714 852 775 q 832 673 852 687 q 718 612 812 660 q 616 564 623 564 m 1075 514 q 998 776 1071 662 q 794 942 922 897 q 641 966 726 966 q 468 933 556 966 q 308 840 379 899 q 194 690 237 781 q 150 499 150 600 q 176 320 150 399 q 244 186 201 240 q 343 96 287 133 q 585 25 452 25 q 768 60 680 25 q 925 157 857 95 q 1034 312 993 219 q 1075 514 1075 406 m 290 911 q 324 938 290 911 q 451 997 357 965 q 647 1029 545 1029 q 831 1001 748 1029 q 973 922 913 972 q 1074 806 1032 872 q 1158 510 1158 674 q 1067 199 1158 336 q 789 -8 966 49 q 599 -39 692 -39 q 436 -20 506 -39 q 300 39 366 -2 q 185 139 235 79 q 105 287 135 198 q 75 468 75 375 q 100 638 75 560 q 173 786 124 715 q 290 911 222 857 z "},"":{"ha":600,"x_min":36,"x_max":576,"o":"m 446 906 q 438 871 446 906 q 417 772 430 837 q 404 682 404 707 q 421 657 404 657 q 576 786 455 657 l 576 729 q 449 612 530 679 q 334 546 368 546 q 294 614 294 546 q 298 663 294 624 q 213 581 263 615 q 114 546 163 546 q 39 633 54 546 q 36 693 36 654 q 63 789 36 732 q 136 891 91 846 q 245 963 182 935 q 359 991 309 991 q 461 975 409 991 q 446 906 461 975 m 144 705 q 196 628 144 628 q 249 651 217 628 q 304 700 281 674 l 366 953 q 257 913 310 953 q 175 816 205 873 q 144 705 144 759 z "},"":{"ha":761,"x_min":37,"x_max":697,"o":"m 249 297 l 311 212 q 397 65 397 106 q 383 36 397 49 q 340 24 369 24 q 262 83 311 24 q 37 418 37 363 q 69 477 37 442 q 94 504 77 486 q 123 536 111 522 l 229 654 q 261 694 238 665 q 299 741 283 723 q 341 774 315 758 q 393 790 367 790 q 431 754 431 790 q 407 719 431 741 q 258 562 302 622 l 154 440 l 249 297 m 421 440 l 564 240 q 650 93 650 134 q 636 64 650 77 q 593 52 622 52 q 515 111 564 52 q 304 418 304 368 q 336 477 304 442 q 390 536 370 513 l 496 654 q 528 693 505 665 q 566 740 550 722 q 608 774 582 758 q 660 790 633 790 q 697 754 697 790 q 673 719 697 741 q 525 562 568 622 l 421 440 z "},"":{"ha":704,"x_min":144,"x_max":579,"o":"m 511 664 l 418 665 q 183 653 357 665 q 144 681 144 653 q 178 739 144 728 q 277 750 195 744 q 437 757 359 757 q 579 729 579 757 q 558 686 579 709 q 511 664 537 664 z "},"":{"ha":1234,"x_min":75,"x_max":1158,"o":"m 375 684 q 443 616 375 643 q 431 539 443 570 q 336 591 375 555 q 297 672 297 626 q 323 753 297 719 q 389 807 349 787 q 476 842 428 828 q 625 868 564 868 q 732 858 686 868 q 821 828 778 848 q 893 771 865 808 q 921 694 921 735 q 906 624 921 654 q 870 576 891 595 q 816 541 849 557 q 694 500 771 520 q 784 357 739 461 q 814 294 804 311 q 828 277 823 277 q 881 310 844 277 q 937 362 918 344 q 978 402 957 381 q 1003 427 999 423 l 1003 370 q 786 201 864 201 q 716 234 749 201 q 666 307 684 267 q 624 398 647 347 q 587 469 602 449 q 538 325 556 357 q 504 270 521 294 q 467 233 486 247 q 363 201 420 201 q 263 232 307 201 q 220 317 220 262 q 286 369 220 358 q 315 371 301 371 l 329 370 q 325 329 325 335 q 372 258 325 258 q 517 652 451 258 q 520 679 518 662 q 524 703 522 695 q 528 721 525 710 q 536 737 531 732 q 550 747 541 742 q 603 757 566 757 l 636 757 q 597 524 626 671 q 687 543 642 524 q 767 600 733 562 q 800 680 800 637 q 773 751 800 722 q 635 806 721 806 q 502 787 568 806 q 375 684 375 751 m 1075 514 q 998 776 1071 662 q 794 942 922 897 q 641 966 726 966 q 468 933 556 966 q 308 840 379 899 q 194 690 237 781 q 150 499 150 600 q 176 320 150 399 q 244 186 201 240 q 343 96 287 133 q 585 25 452 25 q 768 60 680 25 q 925 157 857 95 q 1034 312 993 219 q 1075 514 1075 406 m 290 911 q 324 938 290 911 q 451 997 357 965 q 647 1029 545 1029 q 831 1001 748 1029 q 973 922 913 972 q 1074 806 1032 872 q 1158 510 1158 674 q 1067 199 1158 336 q 789 -8 966 49 q 599 -39 692 -39 q 436 -20 506 -39 q 300 39 366 -2 q 185 139 235 79 q 105 287 135 198 q 75 468 75 375 q 100 638 75 560 q 173 786 124 715 q 290 911 222 857 z "},"":{"ha":704,"x_min":144,"x_max":579,"o":"m 511 664 l 418 665 q 183 653 357 665 q 144 681 144 653 q 178 739 144 728 q 277 750 195 744 q 437 757 359 757 q 579 729 579 757 q 558 686 579 709 q 511 664 537 664 z "},"":{"ha":463,"x_min":40,"x_max":422,"o":"m 343 864 q 343 888 343 864 q 319 942 343 912 q 242 971 295 971 q 157 929 190 971 q 123 839 123 886 q 146 762 123 791 q 221 732 169 732 q 308 773 273 732 q 343 864 343 815 m 258 1043 q 295 1043 258 1043 q 377 993 332 1043 q 422 859 422 943 q 360 718 422 776 q 220 660 297 660 q 92 704 143 660 q 40 832 40 749 q 134 1011 40 950 q 258 1043 184 1043 z "},"":{"ha":760,"x_min":94,"x_max":624,"o":"m 542 282 l 449 283 l 396 283 l 359 138 q 340 115 357 125 q 298 104 324 104 q 272 126 272 104 q 275 143 272 138 l 307 279 l 142 271 q 109 289 109 271 q 114 320 109 307 q 127 340 119 334 q 155 357 143 354 q 328 371 209 366 l 338 408 q 352 475 342 430 q 367 543 362 519 q 392 561 369 553 q 435 570 415 570 q 449 532 449 570 q 433 428 449 494 l 419 374 q 488 375 441 375 q 624 350 624 375 q 595 306 624 330 q 542 282 567 282 m 433 -39 l 340 -37 q 134 -50 288 -37 q 94 -22 94 -50 q 127 36 94 26 q 237 47 148 40 q 359 54 326 54 q 501 26 501 54 q 480 -16 501 6 q 433 -39 459 -39 z "},"":{"ha":554,"x_min":32,"x_max":519,"o":"m 265 -1 l 64 -14 q 32 4 32 -14 q 57 45 32 22 q 131 114 82 69 q 209 186 179 158 q 281 263 239 215 q 349 349 323 311 q 410 524 410 445 q 389 636 410 602 q 325 669 369 669 q 223 623 274 669 q 183 561 199 600 q 167 475 167 522 q 204 437 186 446 q 236 404 236 423 q 230 389 236 397 q 211 382 224 382 q 137 424 197 382 q 77 478 77 467 q 143 656 77 591 q 309 721 210 721 q 402 706 361 721 q 464 669 442 690 q 498 621 485 648 q 519 537 519 578 q 502 448 519 496 q 460 361 485 401 q 398 278 436 321 q 331 205 360 234 q 261 142 301 176 q 186 82 208 98 q 163 65 164 66 q 229 79 186 69 q 378 102 331 102 q 447 69 447 102 q 433 17 447 47 q 403 -14 420 -14 l 265 -1 z "},"":{"ha":571,"x_min":26,"x_max":538,"o":"m 260 489 q 241 464 260 464 q 174 500 229 464 q 118 546 118 537 q 186 666 118 610 q 338 721 254 721 q 538 576 538 721 q 490 454 538 508 q 376 372 442 399 q 457 317 426 359 q 489 218 489 276 q 447 103 489 160 q 341 17 405 47 q 225 -14 278 -14 q 132 0 173 -14 q 59 43 91 13 q 26 108 26 73 q 48 164 26 143 q 93 184 69 184 q 127 169 117 184 q 142 132 137 154 q 153 88 146 110 q 224 36 168 36 q 327 100 281 36 q 372 235 372 165 q 351 305 372 278 q 283 332 329 332 l 264 332 q 242 337 250 332 q 235 357 235 342 q 241 378 235 371 q 253 386 247 385 q 271 387 259 387 q 386 455 340 387 q 431 576 431 524 q 350 679 431 679 q 260 630 315 679 q 204 543 204 581 q 233 514 210 534 q 260 489 256 493 z "},"":{"ha":1157,"x_min":591,"x_max":949,"o":"m 936 758 l 876 734 q 607 637 801 705 l 591 675 q 739 787 651 730 q 876 847 826 844 q 924 823 899 847 q 949 780 949 798 q 936 758 949 762 z "},"":{"ha":673,"x_min":-68,"x_max":755,"o":"m 511 87 q 755 297 546 87 l 755 221 q 699 169 739 206 q 638 112 659 131 q 582 63 617 92 q 522 19 546 34 q 421 -20 460 -20 q 363 69 363 -20 q 370 132 363 90 q 271 31 336 81 q 153 -20 205 -20 q 71 16 100 -20 l 56 -131 q 31 -182 52 -164 q -14 -200 10 -200 q -53 -188 -39 -200 q -68 -157 -68 -175 q -65 -131 -68 -139 q -45 -68 -62 -122 q 54 241 21 128 q 147 530 87 354 q 257 547 150 547 l 281 547 q 253 458 281 546 q 170 147 170 196 q 215 98 170 98 q 311 132 254 98 q 378 184 368 165 l 452 467 q 492 537 467 524 q 555 547 512 547 l 602 547 q 500 167 515 236 q 494 105 494 115 q 497 91 494 95 q 511 87 500 87 z "},"":{"ha":825,"x_min":61,"x_max":808,"o":"m 325 -20 q 432 447 342 66 q 558 943 522 828 q 478 933 531 942 q 240 -20 439 774 l 126 -20 q 254 515 143 59 q 115 587 168 530 q 61 713 61 644 q 94 839 61 783 q 191 937 127 894 q 597 1029 328 1029 q 808 1022 711 1029 l 783 943 q 625 945 743 945 q 654 930 644 938 q 664 908 664 922 l 546 416 q 436 -20 505 273 l 325 -20 z "},"":{"ha":286,"x_min":53,"x_max":222,"o":"m 222 486 q 222 471 222 486 q 187 421 222 456 q 115 386 152 386 q 53 439 53 386 q 81 511 53 476 q 147 546 109 546 q 204 531 185 546 q 222 486 222 516 z "},"":{"ha":481,"x_min":146,"x_max":315,"o":"m 244 0 q 315 -79 315 0 q 288 -197 315 -133 q 157 -334 237 -317 l 146 -292 q 197 -182 182 -256 q 203 -118 203 -151 q 163 -95 177 -111 q 150 -58 150 -79 q 175 -18 150 -37 q 244 0 200 0 z "},"":{"ha":340,"x_min":12,"x_max":321,"o":"m 41 566 q 251 693 197 666 q 310 721 304 721 q 321 703 321 721 l 321 689 l 189 106 q 188 93 189 102 q 186 78 186 83 q 184 62 185 72 q 181 46 182 53 q 178 32 180 40 q 174 19 176 24 q 169 9 172 14 q 155 0 163 0 l 60 0 q 47 22 47 0 q 59 98 47 45 q 97 248 71 151 q 133 383 123 345 q 155 471 142 421 q 175 546 168 521 q 186 590 181 571 q 195 624 193 620 q 99 553 154 591 q 25 515 43 515 q 12 533 12 519 q 41 566 12 547 z "},"":{"ha":568,"x_min":39,"x_max":553,"o":"m 454 819 q 407 690 454 750 q 429 685 420 685 q 448 689 438 685 q 471 705 458 694 q 494 726 484 717 q 553 787 507 739 l 553 729 q 507 684 521 697 q 434 647 465 647 q 385 654 404 647 q 292 575 347 606 q 184 545 237 545 q 98 572 132 545 q 39 722 39 621 q 127 919 39 847 q 364 991 216 991 q 376 986 374 991 q 364 962 376 970 q 211 907 264 962 q 158 781 158 851 q 189 669 158 710 q 264 628 219 628 q 349 673 309 628 q 289 738 309 699 q 268 818 268 777 q 292 884 268 859 q 364 909 317 909 q 433 885 411 909 q 454 819 454 860 m 374 711 q 394 759 384 728 q 404 814 404 789 q 363 861 404 861 q 332 847 342 861 q 321 809 321 833 q 335 757 321 785 q 374 711 349 729 z "},"":{"ha":1047,"x_min":196,"x_max":875,"o":"m 561 798 q 599 811 561 811 q 677 751 637 811 q 875 419 875 477 q 845 372 875 399 q 822 351 837 365 q 796 326 808 337 l 679 208 q 645 169 670 199 q 602 122 619 139 q 558 88 585 104 q 510 72 530 72 q 469 109 468 72 q 511 158 471 125 q 659 300 598 227 l 772 422 l 690 566 l 635 650 q 561 794 561 752 q 561 798 561 795 m 498 443 l 372 643 q 298 787 298 745 q 298 790 298 788 q 335 804 298 804 q 415 745 372 804 q 600 440 600 493 q 570 393 600 421 q 548 372 564 387 q 521 347 532 357 l 406 229 q 370 190 395 219 q 328 142 345 160 q 283 109 311 125 q 229 93 256 93 q 196 123 196 93 q 196 134 196 126 q 222 164 197 142 q 295 230 247 186 q 383 321 344 273 l 498 443 z "},"":{"ha":1105,"x_min":36,"x_max":1090,"o":"m 165 33 q 626 905 579 821 q 677 997 673 989 q 690 1020 682 1006 q 703 1039 699 1034 q 716 1051 707 1043 q 731 1061 724 1059 q 748 1066 737 1063 q 798 1071 764 1071 q 807 1064 803 1071 q 811 1049 811 1057 q 807 1026 811 1040 l 237 26 q 193 -49 215 -18 q 158 -88 170 -80 q 134 -96 146 -96 q 117 -79 117 -96 q 165 33 117 -47 m 65 886 q 274 1014 221 987 q 334 1042 328 1042 q 345 1023 345 1042 l 345 1010 l 213 427 q 211 413 212 422 q 210 398 210 404 q 208 383 209 393 q 205 367 206 374 q 201 353 203 361 q 197 340 199 345 q 193 330 195 335 q 179 321 187 321 l 83 321 q 71 343 71 321 q 83 419 71 366 q 120 569 94 472 q 156 704 146 665 q 179 792 166 742 q 198 867 192 842 q 210 911 205 892 q 218 945 217 941 q 122 874 178 911 q 49 836 67 836 q 36 853 36 840 q 65 886 36 867 m 760 138 l 625 161 q 569 140 585 140 q 543 143 553 140 q 520 158 532 146 q 508 190 508 170 q 518 217 508 209 q 549 232 528 226 l 600 252 l 740 574 q 782 676 771 663 q 803 699 793 689 q 825 712 812 709 q 878 721 851 721 q 909 711 905 721 q 690 235 840 555 q 787 211 735 220 q 857 385 836 333 q 907 397 865 397 l 950 397 q 878 203 945 372 q 977 224 939 203 q 1014 244 983 225 q 1067 282 1044 263 l 1090 241 q 1031 195 1062 222 q 985 156 1000 168 q 879 127 947 127 q 848 129 860 127 l 814 46 q 787 0 802 0 l 713 0 l 711 9 q 760 138 743 98 z "},"":{"ha":1112,"x_min":37,"x_max":1088,"o":"m 359 433 q 468 638 359 433 q 604 895 576 843 q 644 967 633 946 q 661 997 656 989 q 674 1020 665 1006 q 687 1039 683 1034 q 700 1051 691 1043 q 714 1061 708 1059 q 731 1066 721 1063 q 781 1071 747 1071 q 790 1064 786 1071 q 794 1049 794 1057 q 790 1026 794 1040 l 221 26 q 175 -50 197 -20 q 141 -88 153 -80 q 117 -96 129 -96 q 100 -79 100 -96 q 133 6 100 -51 q 359 433 143 23 m 66 886 q 276 1014 222 987 q 335 1042 329 1042 q 346 1023 346 1042 l 346 1010 l 214 427 q 213 413 214 422 q 211 398 212 404 q 209 383 210 393 q 206 367 208 374 q 203 353 205 361 q 199 340 201 345 q 194 330 197 335 q 180 321 189 321 l 85 321 q 73 343 73 321 q 84 419 73 366 q 122 569 96 472 q 158 704 148 665 q 180 792 168 742 q 200 867 193 842 q 211 911 206 892 q 220 945 218 941 q 124 874 179 911 q 50 836 68 836 q 37 853 37 840 q 66 886 37 867 m 833 -1 l 632 -14 q 600 4 600 -14 q 625 45 600 22 q 699 114 650 69 q 777 186 747 158 q 849 263 807 215 q 917 349 892 311 q 978 524 978 445 q 958 636 978 602 q 893 669 937 669 q 791 623 842 669 q 751 561 767 600 q 735 475 735 522 q 772 437 755 446 q 804 404 804 423 q 798 389 804 397 q 779 382 792 382 q 705 424 766 382 q 645 478 645 467 q 712 656 645 591 q 877 721 779 721 q 970 706 930 721 q 1032 669 1010 690 q 1067 621 1053 648 q 1088 537 1088 578 q 1070 448 1088 496 q 1029 361 1053 401 q 966 278 1004 321 q 899 205 928 234 q 829 142 869 176 q 754 82 776 98 q 731 65 732 66 q 798 79 754 69 q 946 102 899 102 q 1015 69 1015 102 q 1002 17 1015 47 q 971 -14 988 -14 l 833 -1 z "},"":{"ha":1243,"x_min":26,"x_max":1223,"o":"m 498 328 q 578 479 498 328 q 754 810 658 631 q 855 997 850 989 q 868 1020 860 1006 q 881 1039 877 1034 q 894 1052 886 1044 q 909 1061 903 1059 q 926 1066 916 1063 q 975 1071 941 1071 q 985 1064 981 1071 q 989 1049 989 1057 q 985 1026 989 1040 l 415 26 q 370 -52 385 -35 q 347 -77 356 -68 q 312 -96 330 -96 q 294 -79 294 -96 q 328 6 294 -51 q 498 328 338 24 m 260 810 q 241 785 260 785 q 174 821 229 785 q 118 867 118 858 q 186 986 118 931 q 338 1042 254 1042 q 538 897 538 1042 q 490 774 538 829 q 376 693 442 720 q 457 638 426 680 q 489 539 489 597 q 447 424 489 481 q 341 337 405 368 q 225 307 278 307 q 132 320 173 307 q 59 364 91 334 q 26 429 26 394 q 48 485 26 464 q 93 505 69 505 q 127 490 117 505 q 142 453 137 475 q 153 409 146 431 q 224 357 168 357 q 327 421 281 357 q 372 555 372 486 q 351 626 372 599 q 283 652 329 652 l 264 652 q 242 658 250 652 q 235 677 235 663 q 241 699 235 692 q 253 706 247 705 q 271 707 259 707 q 386 776 340 707 q 431 898 431 845 q 350 1000 431 1000 q 260 950 315 1000 q 204 864 204 901 q 233 834 210 855 q 260 810 256 814 m 893 138 l 758 161 q 703 140 719 140 q 676 143 686 140 q 654 158 666 146 q 642 190 642 170 q 651 217 642 209 q 682 232 661 226 l 734 252 l 873 574 q 916 676 905 663 q 936 699 926 689 q 958 712 946 709 q 1011 721 985 721 q 1043 711 1038 721 q 824 235 974 555 q 921 211 869 220 q 990 385 970 333 q 1040 397 999 397 l 1084 397 q 1011 203 1078 372 q 1110 224 1073 203 q 1147 244 1116 225 q 1200 282 1178 263 l 1223 241 q 1164 195 1196 222 q 1119 156 1133 168 q 1013 127 1081 127 q 982 129 994 127 l 947 46 q 921 0 935 0 l 847 0 l 844 9 q 893 138 877 98 z "},"":{"ha":677,"x_min":25,"x_max":659,"o":"m 457 722 q 509 694 509 722 q 438 534 509 613 q 326 426 396 487 q 224 332 255 365 q 153 192 153 260 q 183 111 153 146 q 343 43 240 43 q 425 56 400 43 q 463 76 450 68 q 488 100 477 85 q 506 125 498 115 q 520 155 513 136 q 531 185 527 174 q 540 216 534 195 q 549 245 546 237 l 578 243 q 659 178 659 240 q 652 143 659 159 q 582 52 631 90 q 371 -20 490 -20 q 133 41 235 -20 q 55 116 84 69 q 25 218 25 163 q 45 319 25 273 q 98 396 66 364 q 171 457 131 429 q 252 510 211 486 q 327 559 292 535 q 412 672 404 612 q 431 710 418 697 q 457 722 444 722 m 375 929 q 375 945 375 929 q 410 995 375 960 q 481 1029 446 1029 q 545 977 545 1029 q 517 904 545 939 q 451 869 489 869 q 394 884 412 869 q 375 929 375 899 z "},"":{"ha":943,"x_min":54,"x_max":1164,"o":"m 895 863 q 913 840 913 863 q 911 829 913 832 q 766 223 851 669 q 769 118 749 134 q 785 113 775 113 q 850 134 821 113 q 1026 300 895 169 l 1026 224 q 972 166 1006 203 q 920 111 939 130 q 873 63 901 91 q 826 21 846 36 q 783 -10 806 5 q 701 -39 739 -39 q 644 -24 663 -39 q 604 92 604 3 q 607 131 604 111 q 446 8 534 55 q 286 -39 357 -39 q 110 27 165 -39 q 54 222 54 92 q 89 415 54 316 q 184 603 124 515 q 326 770 243 691 q 499 906 408 849 q 890 1029 697 1029 q 1029 1008 959 1029 q 1164 896 1164 967 q 1121 828 1164 867 q 1047 781 1078 789 q 850 964 1008 964 q 579 860 729 964 q 335 612 436 761 q 229 314 229 456 q 281 149 229 206 q 424 92 333 92 q 547 141 484 92 q 623 264 609 191 q 687 555 637 338 q 752 817 738 772 q 895 863 767 863 m 711 1218 l 651 1242 q 639 1263 639 1245 q 663 1306 639 1282 q 711 1331 688 1331 q 849 1270 762 1328 q 996 1158 937 1213 l 981 1121 q 711 1218 785 1189 z "},"":{"ha":943,"x_min":54,"x_max":1164,"o":"m 895 863 q 913 840 913 863 q 911 829 913 832 q 766 223 851 669 q 769 118 749 134 q 785 113 775 113 q 850 134 821 113 q 1026 300 895 169 l 1026 224 q 972 166 1006 203 q 920 111 939 130 q 873 63 901 91 q 826 21 846 36 q 783 -10 806 5 q 701 -39 739 -39 q 644 -24 663 -39 q 604 92 604 3 q 607 131 604 111 q 446 8 534 55 q 286 -39 357 -39 q 110 27 165 -39 q 54 222 54 92 q 89 415 54 316 q 184 603 124 515 q 326 770 243 691 q 499 906 408 849 q 890 1029 697 1029 q 1029 1008 959 1029 q 1164 896 1164 967 q 1121 828 1164 867 q 1047 781 1078 789 q 850 964 1008 964 q 579 860 729 964 q 335 612 436 761 q 229 314 229 456 q 281 149 229 206 q 424 92 333 92 q 547 141 484 92 q 623 264 609 191 q 687 555 637 338 q 752 817 738 772 q 895 863 767 863 m 1112 1242 l 1053 1218 q 783 1121 977 1188 l 768 1158 q 915 1271 827 1213 q 1053 1331 1002 1328 q 1100 1306 1076 1331 q 1125 1263 1125 1282 q 1112 1242 1125 1245 z "},"":{"ha":943,"x_min":54,"x_max":1164,"o":"m 895 863 q 913 840 913 863 q 911 829 913 832 q 766 223 851 669 q 769 118 749 134 q 785 113 775 113 q 850 134 821 113 q 1026 300 895 169 l 1026 224 q 972 166 1006 203 q 920 111 939 130 q 873 63 901 91 q 826 21 846 36 q 783 -10 806 5 q 701 -39 739 -39 q 644 -24 663 -39 q 604 92 604 3 q 607 131 604 111 q 446 8 534 55 q 286 -39 357 -39 q 110 27 165 -39 q 54 222 54 92 q 89 415 54 316 q 184 603 124 515 q 326 770 243 691 q 499 906 408 849 q 890 1029 697 1029 q 1029 1008 959 1029 q 1164 896 1164 967 q 1121 828 1164 867 q 1047 781 1078 789 q 850 964 1008 964 q 579 860 729 964 q 335 612 436 761 q 229 314 229 456 q 281 149 229 206 q 424 92 333 92 q 547 141 484 92 q 623 264 609 191 q 687 555 637 338 q 752 817 738 772 q 895 863 767 863 m 758 1124 l 718 1153 q 844 1333 771 1246 q 956 1421 917 1421 q 1009 1352 975 1421 q 1065 1224 1043 1284 q 1090 1152 1088 1164 l 1042 1124 q 990 1210 1029 1141 q 936 1307 951 1280 q 868 1236 909 1279 q 758 1124 778 1141 z "},"":{"ha":943,"x_min":54,"x_max":1164,"o":"m 895 863 q 913 840 913 863 q 911 829 913 832 q 766 223 851 669 q 769 118 749 134 q 785 113 775 113 q 850 134 821 113 q 1026 300 895 169 l 1026 224 q 972 166 1006 203 q 920 111 939 130 q 873 63 901 91 q 826 21 846 36 q 783 -10 806 5 q 701 -39 739 -39 q 644 -24 663 -39 q 604 92 604 3 q 607 131 604 111 q 446 8 534 55 q 286 -39 357 -39 q 110 27 165 -39 q 54 222 54 92 q 89 415 54 316 q 184 603 124 515 q 326 770 243 691 q 499 906 408 849 q 890 1029 697 1029 q 1029 1008 959 1029 q 1164 896 1164 967 q 1121 828 1164 867 q 1047 781 1078 789 q 850 964 1008 964 q 579 860 729 964 q 335 612 436 761 q 229 314 229 456 q 281 149 229 206 q 424 92 333 92 q 547 141 484 92 q 623 264 609 191 q 687 555 637 338 q 752 817 738 772 q 895 863 767 863 m 766 1289 q 822 1234 774 1234 q 921 1259 848 1234 q 1025 1285 993 1285 q 1079 1274 1057 1285 q 1112 1248 1101 1263 q 1132 1213 1124 1233 q 1142 1178 1139 1194 q 1147 1135 1147 1145 l 1062 1122 q 1011 1182 1051 1182 q 920 1154 989 1182 q 818 1125 852 1125 q 761 1136 783 1125 q 728 1162 739 1147 q 708 1197 716 1177 q 699 1232 701 1217 q 693 1275 693 1265 l 766 1289 z "},"":{"ha":943,"x_min":54,"x_max":1173,"o":"m 895 863 q 913 840 913 863 q 911 829 913 832 q 766 223 851 669 q 769 118 749 134 q 785 113 775 113 q 850 134 821 113 q 1026 300 895 169 l 1026 224 q 972 166 1006 203 q 920 111 939 130 q 873 63 901 91 q 826 21 846 36 q 783 -10 806 5 q 701 -39 739 -39 q 644 -24 663 -39 q 604 92 604 3 q 607 131 604 111 q 446 8 534 55 q 286 -39 357 -39 q 110 27 165 -39 q 54 222 54 92 q 89 415 54 316 q 184 603 124 515 q 326 770 243 691 q 499 906 408 849 q 890 1029 697 1029 q 1029 1008 959 1029 q 1164 896 1164 967 q 1121 828 1164 867 q 1047 781 1078 789 q 850 964 1008 964 q 579 860 729 964 q 335 612 436 761 q 229 314 229 456 q 281 149 229 206 q 424 92 333 92 q 547 141 484 92 q 623 264 609 191 q 687 555 637 338 q 752 817 738 772 q 895 863 767 863 m 846 1227 q 846 1212 846 1227 q 810 1162 846 1198 q 739 1127 774 1127 q 676 1180 676 1127 q 704 1252 676 1217 q 769 1287 731 1287 q 827 1272 808 1287 q 846 1227 846 1257 m 1173 1227 q 1173 1212 1173 1227 q 1137 1162 1173 1197 q 1065 1127 1102 1127 q 1003 1180 1003 1127 q 1031 1252 1003 1217 q 1097 1287 1059 1287 q 1154 1272 1135 1287 q 1173 1227 1173 1257 z "},"":{"ha":943,"x_min":54,"x_max":1164,"o":"m 895 863 q 913 840 913 863 q 911 829 913 832 q 766 223 851 669 q 769 118 749 134 q 785 113 775 113 q 850 134 821 113 q 1026 300 895 169 l 1026 224 q 972 166 1006 203 q 920 111 939 130 q 873 63 901 91 q 826 21 846 36 q 783 -10 806 5 q 701 -39 739 -39 q 644 -24 663 -39 q 604 92 604 3 q 607 131 604 111 q 446 8 534 55 q 286 -39 357 -39 q 110 27 165 -39 q 54 222 54 92 q 89 415 54 316 q 184 603 124 515 q 326 770 243 691 q 499 906 408 849 q 890 1029 697 1029 q 1029 1008 959 1029 q 1164 896 1164 967 q 1121 828 1164 867 q 1047 781 1078 789 q 850 964 1008 964 q 579 860 729 964 q 335 612 436 761 q 229 314 229 456 q 281 149 229 206 q 424 92 333 92 q 547 141 484 92 q 623 264 609 191 q 687 555 637 338 q 752 817 738 772 q 895 863 767 863 m 998 1244 q 937 1310 998 1310 q 881 1284 901 1310 q 860 1227 860 1258 q 918 1160 860 1160 q 976 1186 954 1160 q 998 1244 998 1212 m 934 1356 q 962 1356 934 1356 q 1019 1324 990 1356 q 1048 1240 1048 1292 q 1008 1151 1048 1187 q 920 1114 968 1114 q 839 1142 871 1114 q 807 1223 807 1170 q 842 1316 807 1276 q 934 1356 878 1356 z "},"":{"ha":1274,"x_min":54,"x_max":1386,"o":"m 741 163 l 779 161 q 804 163 796 161 q 868 139 809 161 q 1054 81 1021 81 q 1249 195 1118 81 q 1356 297 1299 238 l 1356 222 q 1296 169 1335 203 q 1239 117 1257 134 q 1188 74 1221 101 q 1137 35 1156 47 q 1089 5 1118 22 q 1037 -20 1060 -12 q 928 -39 978 -39 q 915 -33 924 -39 q 895 -22 905 -28 q 862 -8 884 -17 q 810 12 840 1 q 623 74 752 35 l 608 132 q 444 9 532 56 q 286 -39 355 -39 q 110 27 165 -39 q 54 222 54 92 q 180 603 54 414 q 509 906 302 787 q 965 1029 723 1029 q 1386 1011 1386 1029 q 1373 990 1386 1003 l 1305 913 q 1235 889 1270 889 q 1108 903 1199 889 q 975 920 1017 918 q 933 760 970 901 q 871 539 897 619 q 1032 546 959 546 q 1185 542 1105 546 q 1210 520 1210 542 q 1188 477 1210 499 q 1141 454 1167 454 q 847 447 942 454 l 847 446 q 718 161 811 315 l 741 163 m 671 428 q 542 403 608 419 q 509 432 509 403 q 549 481 509 465 q 634 504 586 495 q 696 515 683 513 q 822 856 774 790 q 893 922 847 891 l 921 964 q 600 859 765 962 q 338 611 441 758 q 229 314 229 456 q 281 149 229 206 q 424 92 333 92 q 512 119 464 92 q 595 187 559 146 l 595 189 q 671 428 612 215 z "},"":{"ha":860,"x_min":56,"x_max":951,"o":"m 628 961 q 743 779 707 961 q 706 729 743 755 q 623 683 668 703 q 503 597 503 631 q 509 578 503 586 q 525 570 515 570 q 563 583 534 570 q 711 663 591 597 q 861 744 831 729 q 892 799 892 760 q 821 960 892 890 q 657 1029 749 1029 q 488 1008 564 1029 q 353 948 412 986 q 245 859 294 910 q 161 749 195 808 q 102 627 126 690 q 56 380 56 505 q 111 142 56 248 q 418 -39 209 -39 q 951 231 667 -39 l 951 306 q 722 141 840 198 q 498 85 604 85 q 283 177 365 85 q 201 447 201 270 q 278 726 201 594 q 486 926 359 867 q 628 961 553 958 m 418 0 q 489 -79 489 0 q 462 -197 489 -133 q 330 -334 410 -317 l 319 -292 q 370 -182 355 -256 q 376 -118 376 -151 q 337 -95 351 -111 q 323 -58 323 -79 q 349 -18 323 -37 q 418 0 374 0 z "},"":{"ha":951,"x_min":-5,"x_max":1064,"o":"m 418 163 l 457 161 q 482 163 473 161 q 545 139 487 161 q 726 81 699 81 q 789 98 754 81 q 888 166 806 101 q 1034 297 970 231 l 1034 222 q 974 169 1013 204 q 917 117 935 133 q 866 75 899 102 q 814 35 833 47 q 766 5 795 22 q 715 -20 737 -12 q 606 -39 656 -39 q 592 -33 602 -39 q 572 -22 583 -28 q 539 -8 562 -17 q 487 12 517 1 q 300 74 434 33 q 175 -7 238 25 q 68 -39 113 -39 q 33 -30 52 -39 q -5 29 -5 -12 q 77 100 -5 65 q 98 110 94 108 l 272 189 q 349 428 290 215 q 262 413 303 422 q 213 404 222 404 q 195 411 204 404 q 186 437 186 418 q 221 476 186 467 q 374 515 267 494 q 500 856 452 790 q 571 922 525 891 q 431 928 503 928 q 181 887 261 928 q 102 775 102 846 q 136 703 102 737 q 235 646 171 669 q 229 594 235 622 q 215 559 222 566 q 56 649 111 596 q 1 760 1 703 q 121 955 1 881 q 446 1029 240 1029 l 643 1029 q 1064 1011 1064 1029 q 1051 990 1064 1003 l 983 913 q 912 889 948 889 q 786 903 877 889 q 653 920 694 918 q 611 759 648 899 q 549 539 574 619 q 710 546 637 546 q 863 542 783 546 q 888 520 888 542 q 866 477 888 499 q 819 454 845 454 q 525 447 619 454 l 525 446 q 396 161 490 319 l 418 163 m 464 1218 l 404 1242 q 392 1263 392 1245 q 416 1306 392 1282 q 464 1331 441 1331 q 603 1270 515 1328 q 749 1158 690 1213 l 734 1121 q 464 1218 538 1189 z "},"":{"ha":951,"x_min":-5,"x_max":1064,"o":"m 418 163 l 457 161 q 482 163 473 161 q 545 139 487 161 q 726 81 699 81 q 789 98 754 81 q 888 166 806 101 q 1034 297 970 231 l 1034 222 q 974 169 1013 204 q 917 117 935 133 q 866 75 899 102 q 814 35 833 47 q 766 5 795 22 q 715 -20 737 -12 q 606 -39 656 -39 q 592 -33 602 -39 q 572 -22 583 -28 q 539 -8 562 -17 q 487 12 517 1 q 300 74 434 33 q 175 -7 238 25 q 68 -39 113 -39 q 33 -30 52 -39 q -5 29 -5 -12 q 77 100 -5 65 q 98 110 94 108 l 272 189 q 349 428 290 215 q 262 413 303 422 q 213 404 222 404 q 195 411 204 404 q 186 437 186 418 q 221 476 186 467 q 374 515 267 494 q 500 856 452 790 q 571 922 525 891 q 431 928 503 928 q 181 887 261 928 q 102 775 102 846 q 136 703 102 737 q 235 646 171 669 q 229 594 235 622 q 215 559 222 566 q 56 649 111 596 q 1 760 1 703 q 121 955 1 881 q 446 1029 240 1029 l 643 1029 q 1064 1011 1064 1029 q 1051 990 1064 1003 l 983 913 q 912 889 948 889 q 786 903 877 889 q 653 920 694 918 q 611 759 648 899 q 549 539 574 619 q 710 546 637 546 q 863 542 783 546 q 888 520 888 542 q 866 477 888 499 q 819 454 845 454 q 525 447 619 454 l 525 446 q 396 161 490 319 l 418 163 m 865 1242 l 806 1218 q 536 1121 730 1188 l 521 1158 q 668 1271 581 1213 q 806 1331 755 1328 q 853 1306 829 1331 q 878 1263 878 1282 q 865 1242 878 1245 z "},"":{"ha":951,"x_min":-5,"x_max":1064,"o":"m 418 163 l 457 161 q 482 163 473 161 q 545 139 487 161 q 726 81 699 81 q 789 98 754 81 q 888 166 806 101 q 1034 297 970 231 l 1034 222 q 974 169 1013 204 q 917 117 935 133 q 866 75 899 102 q 814 35 833 47 q 766 5 795 22 q 715 -20 737 -12 q 606 -39 656 -39 q 592 -33 602 -39 q 572 -22 583 -28 q 539 -8 562 -17 q 487 12 517 1 q 300 74 434 33 q 175 -7 238 25 q 68 -39 113 -39 q 33 -30 52 -39 q -5 29 -5 -12 q 77 100 -5 65 q 98 110 94 108 l 272 189 q 349 428 290 215 q 262 413 303 422 q 213 404 222 404 q 195 411 204 404 q 186 437 186 418 q 221 476 186 467 q 374 515 267 494 q 500 856 452 790 q 571 922 525 891 q 431 928 503 928 q 181 887 261 928 q 102 775 102 846 q 136 703 102 737 q 235 646 171 669 q 229 594 235 622 q 215 559 222 566 q 56 649 111 596 q 1 760 1 703 q 121 955 1 881 q 446 1029 240 1029 l 643 1029 q 1064 1011 1064 1029 q 1051 990 1064 1003 l 983 913 q 912 889 948 889 q 786 903 877 889 q 653 920 694 918 q 611 759 648 899 q 549 539 574 619 q 710 546 637 546 q 863 542 783 546 q 888 520 888 542 q 866 477 888 499 q 819 454 845 454 q 525 447 619 454 l 525 446 q 396 161 490 319 l 418 163 m 511 1124 l 471 1153 q 597 1333 524 1246 q 709 1421 670 1421 q 762 1352 728 1421 q 819 1224 796 1284 q 844 1152 841 1164 l 795 1124 q 744 1210 783 1141 q 689 1307 705 1280 q 621 1236 662 1279 q 511 1124 531 1141 z "},"":{"ha":951,"x_min":-5,"x_max":1064,"o":"m 418 163 l 457 161 q 482 163 473 161 q 545 139 487 161 q 726 81 699 81 q 789 98 754 81 q 888 166 806 101 q 1034 297 970 231 l 1034 222 q 974 169 1013 204 q 917 117 935 133 q 866 75 899 102 q 814 35 833 47 q 766 5 795 22 q 715 -20 737 -12 q 606 -39 656 -39 q 592 -33 602 -39 q 572 -22 583 -28 q 539 -8 562 -17 q 487 12 517 1 q 300 74 434 33 q 175 -7 238 25 q 68 -39 113 -39 q 33 -30 52 -39 q -5 29 -5 -12 q 77 100 -5 65 q 98 110 94 108 l 272 189 q 349 428 290 215 q 262 413 303 422 q 213 404 222 404 q 195 411 204 404 q 186 437 186 418 q 221 476 186 467 q 374 515 267 494 q 500 856 452 790 q 571 922 525 891 q 431 928 503 928 q 181 887 261 928 q 102 775 102 846 q 136 703 102 737 q 235 646 171 669 q 229 594 235 622 q 215 559 222 566 q 56 649 111 596 q 1 760 1 703 q 121 955 1 881 q 446 1029 240 1029 l 643 1029 q 1064 1011 1064 1029 q 1051 990 1064 1003 l 983 913 q 912 889 948 889 q 786 903 877 889 q 653 920 694 918 q 611 759 648 899 q 549 539 574 619 q 710 546 637 546 q 863 542 783 546 q 888 520 888 542 q 866 477 888 499 q 819 454 845 454 q 525 447 619 454 l 525 446 q 396 161 490 319 l 418 163 m 598 1227 q 598 1212 598 1227 q 562 1162 598 1198 q 491 1127 526 1127 q 429 1180 429 1127 q 456 1252 429 1217 q 522 1287 484 1287 q 579 1272 560 1287 q 598 1227 598 1257 m 925 1227 q 925 1212 925 1227 q 890 1162 925 1197 q 818 1127 854 1127 q 755 1180 755 1127 q 783 1252 755 1217 q 849 1287 811 1287 q 906 1272 888 1287 q 925 1227 925 1257 z "},"":{"ha":720,"x_min":140,"x_max":950,"o":"m 273 205 l 272 144 q 290 53 272 79 q 347 28 309 28 q 543 410 475 28 q 544 415 544 413 q 545 419 545 416 q 546 424 545 422 l 555 476 q 290 562 370 490 q 245 647 245 602 q 350 834 245 727 q 532 955 419 904 q 799 1007 650 1007 q 879 1022 829 1007 q 950 1038 928 1036 q 916 945 942 987 q 847 889 889 903 q 717 538 762 743 l 694 439 q 619 165 656 243 q 514 20 569 60 q 335 -39 435 -39 q 208 -1 268 -39 q 159 47 178 16 q 140 117 140 79 q 273 205 140 205 m 357 644 q 579 571 357 583 q 654 763 610 685 q 777 884 698 840 q 617 863 691 884 q 497 811 543 842 q 418 747 451 781 q 357 644 357 683 m 646 1218 l 586 1242 q 574 1263 574 1245 q 598 1306 574 1282 q 646 1331 623 1331 q 784 1270 696 1328 q 930 1158 872 1213 l 916 1121 q 646 1218 720 1189 z "},"":{"ha":720,"x_min":140,"x_max":1060,"o":"m 273 205 l 272 144 q 290 53 272 79 q 347 28 309 28 q 543 410 475 28 q 544 415 544 413 q 545 419 545 416 q 546 424 545 422 l 555 476 q 290 562 370 490 q 245 647 245 602 q 350 834 245 727 q 532 955 419 904 q 799 1007 650 1007 q 879 1022 829 1007 q 950 1038 928 1036 q 916 945 942 987 q 847 889 889 903 q 717 538 762 743 l 694 439 q 619 165 656 243 q 514 20 569 60 q 335 -39 435 -39 q 208 -1 268 -39 q 159 47 178 16 q 140 117 140 79 q 273 205 140 205 m 357 644 q 579 571 357 583 q 654 763 610 685 q 777 884 698 840 q 617 863 691 884 q 497 811 543 842 q 418 747 451 781 q 357 644 357 683 m 1047 1242 l 987 1218 q 718 1121 912 1188 l 703 1158 q 850 1271 762 1213 q 987 1331 937 1328 q 1035 1306 1010 1331 q 1060 1263 1060 1282 q 1047 1242 1060 1245 z "},"":{"ha":720,"x_min":140,"x_max":1025,"o":"m 273 205 l 272 144 q 290 53 272 79 q 347 28 309 28 q 543 410 475 28 q 544 415 544 413 q 545 419 545 416 q 546 424 545 422 l 555 476 q 290 562 370 490 q 245 647 245 602 q 350 834 245 727 q 532 955 419 904 q 799 1007 650 1007 q 879 1022 829 1007 q 950 1038 928 1036 q 916 945 942 987 q 847 889 889 903 q 717 538 762 743 l 694 439 q 619 165 656 243 q 514 20 569 60 q 335 -39 435 -39 q 208 -1 268 -39 q 159 47 178 16 q 140 117 140 79 q 273 205 140 205 m 357 644 q 579 571 357 583 q 654 763 610 685 q 777 884 698 840 q 617 863 691 884 q 497 811 543 842 q 418 747 451 781 q 357 644 357 683 m 693 1124 l 653 1153 q 779 1333 706 1246 q 890 1421 852 1421 q 944 1352 910 1421 q 1000 1224 978 1284 q 1025 1152 1023 1164 l 977 1124 q 925 1210 964 1141 q 871 1307 886 1280 q 803 1236 844 1279 q 693 1124 713 1141 z "},"":{"ha":720,"x_min":140,"x_max":1107,"o":"m 273 205 l 272 144 q 290 53 272 79 q 347 28 309 28 q 543 410 475 28 q 544 415 544 413 q 545 419 545 416 q 546 424 545 422 l 555 476 q 290 562 370 490 q 245 647 245 602 q 350 834 245 727 q 532 955 419 904 q 799 1007 650 1007 q 879 1022 829 1007 q 950 1038 928 1036 q 916 945 942 987 q 847 889 889 903 q 717 538 762 743 l 694 439 q 619 165 656 243 q 514 20 569 60 q 335 -39 435 -39 q 208 -1 268 -39 q 159 47 178 16 q 140 117 140 79 q 273 205 140 205 m 357 644 q 579 571 357 583 q 654 763 610 685 q 777 884 698 840 q 617 863 691 884 q 497 811 543 842 q 418 747 451 781 q 357 644 357 683 m 780 1227 q 780 1212 780 1227 q 744 1162 780 1198 q 673 1127 708 1127 q 610 1180 610 1127 q 638 1252 610 1217 q 704 1287 665 1287 q 761 1272 742 1287 q 780 1227 780 1257 m 1107 1227 q 1107 1212 1107 1227 q 1072 1162 1107 1197 q 1000 1127 1036 1127 q 937 1180 937 1127 q 965 1252 937 1217 q 1031 1287 993 1287 q 1088 1272 1069 1287 q 1107 1227 1107 1257 z "},"":{"ha":1207,"x_min":-36,"x_max":1141,"o":"m 103 221 l 98 150 q 116 61 98 94 q 179 28 133 28 q 230 46 205 28 q 269 97 254 64 q 354 346 312 184 l 297 342 q 258 370 258 342 q 292 428 258 419 q 375 437 307 433 l 449 819 q 536 846 458 846 l 600 846 q 575 670 595 814 q 536 446 555 526 l 551 446 q 693 418 693 446 q 672 375 693 397 q 625 353 650 353 l 532 354 l 513 354 q 444 179 486 265 q 521 80 464 119 q 638 40 578 40 q 758 74 699 40 q 863 168 817 109 q 938 317 909 228 q 966 494 966 407 q 952 644 966 581 q 908 763 939 707 q 831 859 877 819 q 570 945 734 945 q 374 905 471 945 q 216 806 277 866 q 155 688 155 745 q 267 566 155 608 q 260 500 267 534 q 249 456 254 466 q 97 547 148 488 q 46 668 46 606 q 68 778 46 729 q 140 873 91 827 q 259 954 189 919 q 659 1029 414 1029 q 838 1001 756 1029 q 975 926 920 972 q 1068 818 1029 879 q 1141 571 1141 701 q 1103 329 1141 440 q 999 138 1065 218 q 841 9 934 57 q 644 -39 749 -39 q 396 90 490 -39 q 282 -12 343 14 q 143 -37 221 -37 q 15 14 65 -37 q -36 125 -36 65 q 103 221 -36 221 z "},"":{"ha":999,"x_min":-1,"x_max":1083,"o":"m 909 132 l 1083 298 l 1082 224 q 990 131 1002 140 q 746 -39 813 -39 q 653 187 653 -39 q 714 713 653 412 q 726 760 718 728 q 746 860 746 831 q 728 888 746 888 q 681 872 719 888 q 594 826 643 856 q 508 765 545 795 q 438 697 471 734 q 382 628 405 660 q 339 555 359 595 q 307 486 319 515 q 283 419 295 456 q 259 332 265 361 q 236 223 252 302 q 184 0 220 144 l 45 0 q 70 169 45 63 q 137 428 94 275 q 200 675 179 581 l 256 890 l 37 736 l 17 729 q -1 764 -1 729 q 16 791 -1 780 l 307 975 q 422 1028 389 1028 q 436 1015 436 1028 q 410 872 436 976 q 383 761 383 769 l 372 705 q 785 1018 594 969 q 861 1028 825 1028 q 918 965 918 1028 q 890 807 918 946 q 806 244 806 389 q 852 100 806 100 q 909 132 878 100 m 546 1289 q 602 1234 553 1234 q 700 1259 628 1234 q 804 1285 772 1285 q 858 1274 836 1285 q 892 1248 880 1263 q 911 1213 903 1233 q 921 1178 919 1194 q 926 1135 926 1145 l 842 1122 q 791 1182 831 1182 q 700 1154 768 1182 q 597 1125 631 1125 q 541 1136 563 1125 q 507 1162 519 1147 q 488 1197 496 1177 q 477 1232 480 1217 q 473 1275 473 1265 l 546 1289 z "},"":{"ha":1121,"x_min":68,"x_max":1257,"o":"m 996 763 q 1053 662 1031 725 q 1075 537 1075 600 q 1067 432 1075 474 q 1257 504 1160 446 l 1257 441 q 1044 346 1165 370 q 912 143 1003 232 q 710 8 822 54 q 485 -39 598 -39 q 151 129 267 -39 q 68 450 68 250 q 175 768 68 618 q 472 994 291 931 q 682 1029 572 1029 q 775 1021 724 1029 l 772 951 q 680 957 741 957 q 542 929 619 957 q 407 856 464 902 q 307 753 349 810 q 222 507 222 635 q 371 170 222 275 q 578 109 458 109 q 795 172 699 109 q 946 336 892 235 l 937 336 q 690 408 792 336 q 611 500 641 444 q 582 637 582 557 q 644 779 582 718 q 825 840 705 840 q 996 763 922 840 m 699 677 q 779 498 699 570 q 982 425 859 427 q 1000 542 1000 483 q 950 701 1000 639 q 807 764 901 764 q 725 741 752 764 q 699 677 699 718 m 591 1218 l 532 1242 q 519 1263 519 1245 q 544 1306 519 1282 q 591 1331 568 1331 q 730 1270 642 1328 q 876 1158 818 1213 l 861 1121 q 591 1218 666 1189 z "},"":{"ha":1121,"x_min":68,"x_max":1257,"o":"m 996 763 q 1053 662 1031 725 q 1075 537 1075 600 q 1067 432 1075 474 q 1257 504 1160 446 l 1257 441 q 1044 346 1165 370 q 912 143 1003 232 q 710 8 822 54 q 485 -39 598 -39 q 151 129 267 -39 q 68 450 68 250 q 175 768 68 618 q 472 994 291 931 q 682 1029 572 1029 q 775 1021 724 1029 l 772 951 q 680 957 741 957 q 542 929 619 957 q 407 856 464 902 q 307 753 349 810 q 222 507 222 635 q 371 170 222 275 q 578 109 458 109 q 795 172 699 109 q 946 336 892 235 l 937 336 q 690 408 792 336 q 611 500 641 444 q 582 637 582 557 q 644 779 582 718 q 825 840 705 840 q 996 763 922 840 m 699 677 q 779 498 699 570 q 982 425 859 427 q 1000 542 1000 483 q 950 701 1000 639 q 807 764 901 764 q 725 741 752 764 q 699 677 699 718 m 993 1242 l 933 1218 q 664 1121 858 1188 l 648 1158 q 795 1271 708 1213 q 933 1331 883 1328 q 981 1306 956 1331 q 1006 1263 1006 1282 q 993 1242 1006 1245 z "},"":{"ha":1121,"x_min":68,"x_max":1257,"o":"m 996 763 q 1053 662 1031 725 q 1075 537 1075 600 q 1067 432 1075 474 q 1257 504 1160 446 l 1257 441 q 1044 346 1165 370 q 912 143 1003 232 q 710 8 822 54 q 485 -39 598 -39 q 151 129 267 -39 q 68 450 68 250 q 175 768 68 618 q 472 994 291 931 q 682 1029 572 1029 q 775 1021 724 1029 l 772 951 q 680 957 741 957 q 542 929 619 957 q 407 856 464 902 q 307 753 349 810 q 222 507 222 635 q 371 170 222 275 q 578 109 458 109 q 795 172 699 109 q 946 336 892 235 l 937 336 q 690 408 792 336 q 611 500 641 444 q 582 637 582 557 q 644 779 582 718 q 825 840 705 840 q 996 763 922 840 m 699 677 q 779 498 699 570 q 982 425 859 427 q 1000 542 1000 483 q 950 701 1000 639 q 807 764 901 764 q 725 741 752 764 q 699 677 699 718 m 639 1124 l 599 1153 q 725 1333 652 1246 q 836 1421 798 1421 q 890 1352 856 1421 q 946 1224 924 1284 q 971 1152 968 1164 l 922 1124 q 871 1210 910 1141 q 817 1307 832 1280 q 749 1236 789 1279 q 639 1124 659 1141 z "},"":{"ha":1121,"x_min":68,"x_max":1257,"o":"m 996 763 q 1053 662 1031 725 q 1075 537 1075 600 q 1067 432 1075 474 q 1257 504 1160 446 l 1257 441 q 1044 346 1165 370 q 912 143 1003 232 q 710 8 822 54 q 485 -39 598 -39 q 151 129 267 -39 q 68 450 68 250 q 175 768 68 618 q 472 994 291 931 q 682 1029 572 1029 q 775 1021 724 1029 l 772 951 q 680 957 741 957 q 542 929 619 957 q 407 856 464 902 q 307 753 349 810 q 222 507 222 635 q 371 170 222 275 q 578 109 458 109 q 795 172 699 109 q 946 336 892 235 l 937 336 q 690 408 792 336 q 611 500 641 444 q 582 637 582 557 q 644 779 582 718 q 825 840 705 840 q 996 763 922 840 m 699 677 q 779 498 699 570 q 982 425 859 427 q 1000 542 1000 483 q 950 701 1000 639 q 807 764 901 764 q 725 741 752 764 q 699 677 699 718 m 647 1289 q 703 1234 654 1234 q 801 1259 729 1234 q 905 1285 873 1285 q 959 1274 937 1285 q 993 1248 981 1263 q 1012 1213 1004 1233 q 1023 1178 1020 1194 q 1027 1135 1027 1145 l 943 1122 q 892 1182 932 1182 q 801 1154 869 1182 q 698 1125 732 1125 q 642 1136 664 1125 q 608 1162 620 1147 q 589 1197 597 1177 q 579 1232 581 1217 q 574 1275 574 1265 l 647 1289 z "},"":{"ha":1121,"x_min":68,"x_max":1257,"o":"m 996 763 q 1053 662 1031 725 q 1075 537 1075 600 q 1067 432 1075 474 q 1257 504 1160 446 l 1257 441 q 1044 346 1165 370 q 912 143 1003 232 q 710 8 822 54 q 485 -39 598 -39 q 151 129 267 -39 q 68 450 68 250 q 175 768 68 618 q 472 994 291 931 q 682 1029 572 1029 q 775 1021 724 1029 l 772 951 q 680 957 741 957 q 542 929 619 957 q 407 856 464 902 q 307 753 349 810 q 222 507 222 635 q 371 170 222 275 q 578 109 458 109 q 795 172 699 109 q 946 336 892 235 l 937 336 q 690 408 792 336 q 611 500 641 444 q 582 637 582 557 q 644 779 582 718 q 825 840 705 840 q 996 763 922 840 m 699 677 q 779 498 699 570 q 982 425 859 427 q 1000 542 1000 483 q 950 701 1000 639 q 807 764 901 764 q 725 741 752 764 q 699 677 699 718 m 726 1227 q 726 1212 726 1227 q 690 1162 726 1198 q 618 1127 654 1127 q 557 1180 557 1127 q 584 1252 557 1217 q 650 1287 612 1287 q 707 1272 688 1287 q 726 1227 726 1257 m 1053 1227 q 1053 1212 1053 1227 q 1018 1162 1053 1197 q 947 1127 983 1127 q 884 1180 884 1127 q 911 1252 884 1217 q 978 1287 939 1287 q 1035 1272 1016 1287 q 1053 1227 1053 1257 z "},"":{"ha":760,"x_min":183,"x_max":577,"o":"m 256 623 q 380 518 302 587 l 431 574 q 541 661 514 661 q 555 652 546 661 q 566 611 566 642 q 550 564 566 581 l 447 457 q 515 393 482 427 q 577 310 577 332 q 563 290 577 300 q 538 277 549 281 q 500 283 515 269 q 461 320 486 298 q 427 353 437 342 l 387 389 l 285 267 q 255 250 267 250 q 237 258 244 252 q 207 304 207 286 q 217 326 207 309 q 319 450 227 342 q 252 511 307 463 q 193 563 197 559 q 183 584 183 574 q 192 603 183 594 q 230 627 214 627 q 256 623 246 627 z "},"":{"ha":1121,"x_min":68,"x_max":1257,"o":"m 1061 1042 q 1086 1023 1086 1042 q 1079 1002 1086 1012 l 932 812 q 1035 704 996 777 q 1075 521 1075 630 q 1067 432 1075 474 q 1257 504 1160 446 l 1257 441 q 1044 346 1165 370 q 912 143 1003 232 q 710 8 822 54 q 491 -39 598 -39 q 300 1 384 -39 l 272 -36 q 266 -44 270 -39 q 251 -62 262 -49 q 229 -84 240 -75 q 170 -110 197 -110 q 142 -94 142 -110 q 164 -55 142 -82 q 194 -15 186 -27 q 235 39 202 -3 q 68 450 68 165 q 175 768 68 618 q 472 994 291 931 q 682 1029 572 1029 q 775 1021 724 1029 l 772 951 q 680 957 741 957 q 542 929 619 957 q 407 856 464 902 q 307 753 349 810 q 222 507 222 635 q 349 186 222 294 l 605 513 q 582 628 582 565 q 644 779 582 718 q 825 840 705 840 q 860 838 844 840 l 945 945 q 981 991 960 963 q 1012 1027 1002 1019 q 1051 1042 1027 1042 l 1061 1042 m 937 336 q 773 365 849 336 q 648 448 696 393 l 412 144 q 571 109 484 109 q 795 172 699 109 q 946 336 892 235 l 937 336 m 699 677 q 779 498 699 570 q 982 425 859 427 q 1000 542 1000 483 q 950 701 1000 639 q 807 764 901 764 q 725 741 752 764 q 699 677 699 718 z "},"":{"ha":1116,"x_min":-29,"x_max":1235,"o":"m 542 1023 q 506 935 542 1016 q 427 754 470 854 q 349 527 385 654 q 313 310 313 400 q 505 100 313 100 q 681 146 597 100 q 826 267 766 193 q 923 436 886 342 q 966 627 961 531 q 889 659 927 633 q 830 708 852 684 q 778 846 778 765 q 810 967 778 910 q 924 1031 847 1031 q 980 1010 956 1031 q 1017 957 1004 989 q 1040 885 1030 924 q 1050 810 1049 846 q 1054 744 1052 773 q 1055 705 1056 714 q 1054 694 1054 696 q 1183 748 1112 704 q 1235 787 1211 766 l 1235 710 q 1053 624 1138 639 q 909 244 1026 414 q 613 -3 785 66 q 436 -39 522 -39 q 298 -16 351 -39 q 213 49 245 7 q 151 276 151 132 q 212 592 151 420 q 364 889 273 764 q 361 892 364 892 q 353 888 359 892 l 275 828 q 216 791 263 821 q -29 642 83 709 l -29 717 q 188 848 45 760 q 417 987 330 936 q 523 1038 505 1038 q 542 1023 542 1038 m 970 697 l 971 724 q 950 850 971 791 q 896 908 929 908 q 859 851 859 908 q 891 751 859 795 q 970 697 923 707 m 530 1218 l 471 1242 q 458 1263 458 1245 q 483 1306 458 1282 q 530 1331 507 1331 q 669 1270 581 1328 q 815 1158 757 1213 l 800 1121 q 530 1218 605 1189 z "},"":{"ha":1116,"x_min":-29,"x_max":1235,"o":"m 542 1023 q 506 935 542 1016 q 427 754 470 854 q 349 527 385 654 q 313 310 313 400 q 505 100 313 100 q 681 146 597 100 q 826 267 766 193 q 923 436 886 342 q 966 627 961 531 q 889 659 927 633 q 830 708 852 684 q 778 846 778 765 q 810 967 778 910 q 924 1031 847 1031 q 980 1010 956 1031 q 1017 957 1004 989 q 1040 885 1030 924 q 1050 810 1049 846 q 1054 744 1052 773 q 1055 705 1056 714 q 1054 694 1054 696 q 1183 748 1112 704 q 1235 787 1211 766 l 1235 710 q 1053 624 1138 639 q 909 244 1026 414 q 613 -3 785 66 q 436 -39 522 -39 q 298 -16 351 -39 q 213 49 245 7 q 151 276 151 132 q 212 592 151 420 q 364 889 273 764 q 361 892 364 892 q 353 888 359 892 l 275 828 q 216 791 263 821 q -29 642 83 709 l -29 717 q 188 848 45 760 q 417 987 330 936 q 523 1038 505 1038 q 542 1023 542 1038 m 970 697 l 971 724 q 950 850 971 791 q 896 908 929 908 q 859 851 859 908 q 891 751 859 795 q 970 697 923 707 m 932 1242 l 872 1218 q 603 1121 797 1188 l 587 1158 q 734 1271 647 1213 q 872 1331 822 1328 q 920 1306 895 1331 q 945 1263 945 1282 q 932 1242 945 1245 z "},"":{"ha":1116,"x_min":-29,"x_max":1235,"o":"m 542 1023 q 506 935 542 1016 q 427 754 470 854 q 349 527 385 654 q 313 310 313 400 q 505 100 313 100 q 681 146 597 100 q 826 267 766 193 q 923 436 886 342 q 966 627 961 531 q 889 659 927 633 q 830 708 852 684 q 778 846 778 765 q 810 967 778 910 q 924 1031 847 1031 q 980 1010 956 1031 q 1017 957 1004 989 q 1040 885 1030 924 q 1050 810 1049 846 q 1054 744 1052 773 q 1055 705 1056 714 q 1054 694 1054 696 q 1183 748 1112 704 q 1235 787 1211 766 l 1235 710 q 1053 624 1138 639 q 909 244 1026 414 q 613 -3 785 66 q 436 -39 522 -39 q 298 -16 351 -39 q 213 49 245 7 q 151 276 151 132 q 212 592 151 420 q 364 889 273 764 q 361 892 364 892 q 353 888 359 892 l 275 828 q 216 791 263 821 q -29 642 83 709 l -29 717 q 188 848 45 760 q 417 987 330 936 q 523 1038 505 1038 q 542 1023 542 1038 m 970 697 l 971 724 q 950 850 971 791 q 896 908 929 908 q 859 851 859 908 q 891 751 859 795 q 970 697 923 707 m 578 1124 l 538 1153 q 664 1333 591 1246 q 775 1421 736 1421 q 829 1352 795 1421 q 885 1224 863 1284 q 910 1152 907 1164 l 861 1124 q 810 1210 849 1141 q 755 1307 771 1280 q 688 1236 728 1279 q 578 1124 597 1141 z "},"":{"ha":1116,"x_min":-29,"x_max":1235,"o":"m 542 1023 q 506 935 542 1016 q 427 754 470 854 q 349 527 385 654 q 313 310 313 400 q 505 100 313 100 q 681 146 597 100 q 826 267 766 193 q 923 436 886 342 q 966 627 961 531 q 889 659 927 633 q 830 708 852 684 q 778 846 778 765 q 810 967 778 910 q 924 1031 847 1031 q 980 1010 956 1031 q 1017 957 1004 989 q 1040 885 1030 924 q 1050 810 1049 846 q 1054 744 1052 773 q 1055 705 1056 714 q 1054 694 1054 696 q 1183 748 1112 704 q 1235 787 1211 766 l 1235 710 q 1053 624 1138 639 q 909 244 1026 414 q 613 -3 785 66 q 436 -39 522 -39 q 298 -16 351 -39 q 213 49 245 7 q 151 276 151 132 q 212 592 151 420 q 364 889 273 764 q 361 892 364 892 q 353 888 359 892 l 275 828 q 216 791 263 821 q -29 642 83 709 l -29 717 q 188 848 45 760 q 417 987 330 936 q 523 1038 505 1038 q 542 1023 542 1038 m 970 697 l 971 724 q 950 850 971 791 q 896 908 929 908 q 859 851 859 908 q 891 751 859 795 q 970 697 923 707 m 665 1227 q 665 1212 665 1227 q 629 1162 665 1198 q 557 1127 593 1127 q 495 1180 495 1127 q 523 1252 495 1217 q 588 1287 550 1287 q 646 1272 627 1287 q 665 1227 665 1257 m 991 1227 q 991 1212 991 1227 q 956 1162 991 1197 q 884 1127 921 1127 q 822 1180 822 1127 q 850 1252 822 1217 q 916 1287 878 1287 q 973 1272 954 1287 q 991 1227 991 1257 z "},"":{"ha":1054,"x_min":103,"x_max":1135,"o":"m 679 -94 l 490 -204 q 366 -283 414 -239 q 318 -372 318 -327 q 335 -442 318 -417 q 375 -471 351 -467 q 478 -427 420 -471 q 586 -314 536 -383 q 654 -176 635 -245 l 679 -94 m 443 1008 q 518 1029 474 1029 q 562 1010 562 1029 q 543 935 562 998 q 510 814 524 871 q 452 618 495 756 q 355 243 355 307 q 372 193 355 218 q 408 168 388 168 q 519 194 456 168 q 645 262 583 220 q 757 369 707 305 q 823 501 807 433 l 885 755 q 924 903 895 802 q 965 1008 953 1004 l 1112 1008 l 872 58 l 1135 298 l 1135 222 l 860 -22 q 422 -509 702 -433 q 308 -525 363 -525 q 209 -510 252 -525 q 134 -461 165 -495 q 103 -384 103 -428 q 138 -321 103 -340 l 686 -28 l 794 310 q 534 85 684 182 q 297 -12 384 -12 q 213 30 246 -12 q 180 168 180 72 q 195 295 180 233 q 217 387 210 357 q 243 474 224 416 q 269 552 262 532 q 323 714 286 607 l 396 925 l 187 781 l 180 777 q 169 771 175 771 q 157 778 163 771 q 150 800 150 784 q 164 827 150 817 l 443 1008 m 1006 1242 l 947 1218 q 677 1121 871 1188 l 662 1158 q 809 1271 722 1213 q 947 1331 897 1328 q 995 1306 970 1331 q 1019 1263 1019 1282 q 1006 1242 1019 1245 z "},"":{"ha":1054,"x_min":-90,"x_max":1050,"o":"m 43 119 l 41 45 q 121 -56 41 -56 q 231 30 185 -56 q 293 189 274 111 q 340 416 327 330 l 440 951 q 480 981 444 971 q 543 991 517 991 l 595 991 l 572 859 q 625 860 590 860 q 814 836 731 860 q 948 772 898 812 q 1050 575 1050 690 q 937 355 1050 452 q 799 281 884 309 q 628 253 715 253 q 457 269 541 253 q 262 -74 394 16 q 109 -122 191 -122 q -32 -81 27 -122 q -90 36 -90 -39 q 43 119 -90 119 m 851 705 q 742 757 809 738 q 623 777 675 777 q 557 775 570 777 q 471 343 493 438 q 586 336 523 336 q 847 399 756 336 q 939 550 939 462 q 851 705 939 639 z "},"":{"ha":667,"x_min":-32,"x_max":690,"o":"m 192 29 l 225 106 q 352 60 283 60 q 455 106 421 60 q 489 217 489 153 q 470 338 489 281 q 411 442 450 394 q 319 513 372 490 l 319 591 q 430 614 380 591 q 509 673 479 637 q 571 831 571 747 q 549 913 571 881 q 496 946 528 946 q 439 935 464 946 q 390 897 415 923 q 342 831 364 871 q 268 603 294 748 q 196 257 262 563 q 110 -125 130 -49 l -31 -125 q -32 -90 -32 -119 q -15 26 -32 -61 q 21 183 3 113 q 86 424 73 384 q 326 953 182 817 q 498 1029 407 1029 q 640 970 590 1029 q 690 827 690 911 q 623 656 690 734 q 408 555 548 572 q 536 472 483 527 q 639 222 639 367 q 574 37 639 113 q 391 -40 509 -40 q 192 29 273 -40 z "},"":{"ha":629,"x_min":-3,"x_max":713,"o":"m 102 -20 q 1 95 20 -20 q -3 153 -3 123 q 34 302 -3 227 q 131 436 71 377 q 274 532 191 495 q 446 570 358 570 q 559 547 488 570 q 546 485 559 543 q 520 368 533 428 q 485 165 485 205 q 505 126 485 126 q 713 298 550 126 l 713 222 q 516 48 610 116 q 392 -20 423 -20 q 340 69 340 -20 q 346 135 340 98 q 232 26 297 71 q 102 -20 168 -20 m 142 191 q 208 89 142 89 q 278 119 237 89 q 354 184 320 149 l 432 518 q 290 466 359 518 q 182 338 222 414 q 142 191 142 262 m 259 747 l 199 770 q 187 792 187 774 q 212 835 187 810 q 259 859 236 859 q 398 799 310 857 q 544 687 486 741 l 529 650 q 259 747 334 718 z "},"":{"ha":629,"x_min":-3,"x_max":713,"o":"m 102 -20 q 1 95 20 -20 q -3 153 -3 123 q 34 302 -3 227 q 131 436 71 377 q 274 532 191 495 q 446 570 358 570 q 559 547 488 570 q 546 485 559 543 q 520 368 533 428 q 485 165 485 205 q 505 126 485 126 q 713 298 550 126 l 713 222 q 516 48 610 116 q 392 -20 423 -20 q 340 69 340 -20 q 346 135 340 98 q 232 26 297 71 q 102 -20 168 -20 m 142 191 q 208 89 142 89 q 278 119 237 89 q 354 184 320 149 l 432 518 q 290 466 359 518 q 182 338 222 414 q 142 191 142 262 m 661 770 l 601 747 q 332 650 526 717 l 316 687 q 463 799 376 742 q 601 859 551 857 q 649 835 624 859 q 673 792 673 810 q 661 770 673 774 z "},"":{"ha":629,"x_min":-3,"x_max":713,"o":"m 102 -20 q 1 95 20 -20 q -3 153 -3 123 q 34 302 -3 227 q 131 436 71 377 q 274 532 191 495 q 446 570 358 570 q 559 547 488 570 q 546 485 559 543 q 520 368 533 428 q 485 165 485 205 q 505 126 485 126 q 713 298 550 126 l 713 222 q 516 48 610 116 q 392 -20 423 -20 q 340 69 340 -20 q 346 135 340 98 q 232 26 297 71 q 102 -20 168 -20 m 142 191 q 208 89 142 89 q 278 119 237 89 q 354 184 320 149 l 432 518 q 290 466 359 518 q 182 338 222 414 q 142 191 142 262 m 307 652 l 267 682 q 392 862 319 774 q 504 949 465 949 q 557 881 524 949 q 614 752 591 812 q 639 680 636 692 l 590 652 q 539 739 578 669 q 484 836 500 808 q 416 765 457 808 q 307 652 326 670 z "},"":{"ha":629,"x_min":-3,"x_max":713,"o":"m 102 -20 q 1 95 20 -20 q -3 153 -3 123 q 34 302 -3 227 q 131 436 71 377 q 274 532 191 495 q 446 570 358 570 q 559 547 488 570 q 546 485 559 543 q 520 368 533 428 q 485 165 485 205 q 505 126 485 126 q 713 298 550 126 l 713 222 q 516 48 610 116 q 392 -20 423 -20 q 340 69 340 -20 q 346 135 340 98 q 232 26 297 71 q 102 -20 168 -20 m 142 191 q 208 89 142 89 q 278 119 237 89 q 354 184 320 149 l 432 518 q 290 466 359 518 q 182 338 222 414 q 142 191 142 262 m 315 818 q 371 762 323 762 q 470 788 397 762 q 574 814 542 814 q 628 803 606 814 q 661 777 650 792 q 681 742 673 762 q 691 707 688 722 q 696 664 696 673 l 611 651 q 560 711 600 711 q 469 682 538 711 q 367 654 401 654 q 310 665 332 654 q 277 691 288 675 q 257 726 265 706 q 248 761 250 745 q 242 804 242 794 l 315 818 z "},"":{"ha":629,"x_min":-3,"x_max":721,"o":"m 102 -20 q 1 95 20 -20 q -3 153 -3 123 q 34 302 -3 227 q 131 436 71 377 q 274 532 191 495 q 446 570 358 570 q 559 547 488 570 q 546 485 559 543 q 520 368 533 428 q 485 165 485 205 q 505 126 485 126 q 713 298 550 126 l 713 222 q 516 48 610 116 q 392 -20 423 -20 q 340 69 340 -20 q 346 135 340 98 q 232 26 297 71 q 102 -20 168 -20 m 142 191 q 208 89 142 89 q 278 119 237 89 q 354 184 320 149 l 432 518 q 290 466 359 518 q 182 338 222 414 q 142 191 142 262 m 394 756 q 394 742 394 756 q 358 692 394 727 q 287 656 322 656 q 224 709 224 656 q 252 782 224 747 q 318 817 279 817 q 375 801 356 817 q 394 756 394 786 m 721 756 q 721 741 721 756 q 686 691 721 726 q 614 656 650 656 q 551 709 551 656 q 579 782 551 747 q 645 817 607 817 q 702 802 684 817 q 721 756 721 787 z "},"":{"ha":629,"x_min":-3,"x_max":713,"o":"m 102 -20 q 1 95 20 -20 q -3 153 -3 123 q 34 302 -3 227 q 131 436 71 377 q 274 532 191 495 q 446 570 358 570 q 559 547 488 570 q 546 485 559 543 q 520 368 533 428 q 485 165 485 205 q 505 126 485 126 q 713 298 550 126 l 713 222 q 516 48 610 116 q 392 -20 423 -20 q 340 69 340 -20 q 346 135 340 98 q 232 26 297 71 q 102 -20 168 -20 m 142 191 q 208 89 142 89 q 278 119 237 89 q 354 184 320 149 l 432 518 q 290 466 359 518 q 182 338 222 414 q 142 191 142 262 m 546 773 q 485 839 546 839 q 429 813 450 839 q 408 756 408 787 q 467 688 408 688 q 524 714 502 688 q 546 773 546 741 m 482 884 q 510 884 482 884 q 567 852 538 884 q 596 768 596 821 q 556 680 596 716 q 468 643 517 643 q 388 671 420 643 q 355 751 355 699 q 391 844 355 804 q 482 884 426 884 z "},"":{"ha":827,"x_min":-3,"x_max":908,"o":"m 538 507 q 707 570 609 570 q 803 540 765 570 q 842 443 842 510 q 780 318 842 376 q 639 261 718 261 q 574 280 608 261 q 517 335 540 298 q 488 215 488 275 q 602 58 488 58 q 675 87 631 58 q 752 147 718 115 q 837 230 786 179 q 908 300 888 281 l 908 225 q 776 92 834 143 q 534 -20 648 -20 q 432 8 476 -20 q 371 89 388 36 l 371 87 q 266 8 334 37 q 135 -20 198 -20 q 35 29 72 -20 q -3 153 -3 78 q 37 302 -3 228 q 147 436 77 376 q 323 533 217 496 q 551 570 429 570 l 538 507 m 443 518 q 282 447 351 498 q 177 329 212 396 q 142 191 142 262 q 208 89 142 89 q 286 112 242 89 q 363 167 330 134 l 443 518 m 536 386 q 650 319 588 319 q 718 358 689 319 q 747 439 747 397 q 731 497 747 482 q 685 511 715 511 q 629 498 655 511 q 585 464 603 484 q 536 386 548 422 z "},"":{"ha":472,"x_min":-3,"x_max":558,"o":"m 154 -20 q 37 29 76 -20 q -3 150 -3 78 q 24 295 -3 222 q 95 428 50 367 q 205 530 139 490 q 345 570 272 570 q 469 524 441 570 q 479 482 479 507 q 454 437 479 456 q 390 418 429 418 q 351 461 369 418 q 329 490 344 477 q 293 504 313 504 q 219 460 254 504 q 165 353 184 416 q 146 230 146 290 q 168 133 146 170 q 233 96 189 96 q 558 300 351 96 l 558 224 q 256 0 375 45 q 154 -20 203 -20 m 155 0 q 227 -79 227 0 q 199 -197 227 -133 q 68 -334 148 -317 l 57 -292 q 108 -182 93 -256 q 114 -118 114 -151 q 75 -95 88 -111 q 61 -58 61 -79 q 86 -18 61 -37 q 155 0 111 0 z "},"":{"ha":496,"x_min":18,"x_max":578,"o":"m 205 383 q 319 317 257 317 q 388 355 359 317 q 416 437 416 394 q 400 494 416 479 q 354 509 385 509 q 298 495 324 509 q 254 461 272 481 q 205 383 218 421 m 578 297 l 578 222 q 385 42 470 104 q 224 -20 300 -20 q 33 80 71 -20 q 18 175 18 119 q 60 364 18 274 q 179 512 101 454 q 351 570 256 570 q 511 450 511 570 q 449 316 511 373 q 309 258 387 258 q 243 277 277 258 q 186 332 210 295 q 157 212 157 271 q 271 56 157 56 q 344 84 300 56 q 421 144 388 113 q 507 228 455 176 q 578 297 558 279 m 172 745 l 112 769 q 100 791 100 772 q 124 833 100 809 q 172 858 149 858 q 310 798 222 855 q 456 686 398 740 l 441 648 q 172 745 246 716 z "},"":{"ha":496,"x_min":18,"x_max":586,"o":"m 205 383 q 319 317 257 317 q 388 355 359 317 q 416 437 416 394 q 400 494 416 479 q 354 509 385 509 q 298 495 324 509 q 254 461 272 481 q 205 383 218 421 m 578 297 l 578 222 q 385 42 470 104 q 224 -20 300 -20 q 33 80 71 -20 q 18 175 18 119 q 60 364 18 274 q 179 512 101 454 q 351 570 256 570 q 511 450 511 570 q 449 316 511 373 q 309 258 387 258 q 243 277 277 258 q 186 332 210 295 q 157 212 157 271 q 271 56 157 56 q 344 84 300 56 q 421 144 388 113 q 507 228 455 176 q 578 297 558 279 m 573 760 l 513 736 q 244 639 438 706 l 229 676 q 376 788 288 731 q 513 848 463 846 q 561 824 536 848 q 586 781 586 800 q 573 760 586 763 z "},"":{"ha":496,"x_min":18,"x_max":578,"o":"m 205 383 q 319 317 257 317 q 388 355 359 317 q 416 437 416 394 q 400 494 416 479 q 354 509 385 509 q 298 495 324 509 q 254 461 272 481 q 205 383 218 421 m 578 297 l 578 222 q 385 42 470 104 q 224 -20 300 -20 q 33 80 71 -20 q 18 175 18 119 q 60 364 18 274 q 179 512 101 454 q 351 570 256 570 q 511 450 511 570 q 449 316 511 373 q 309 258 387 258 q 243 277 277 258 q 186 332 210 295 q 157 212 157 271 q 271 56 157 56 q 344 84 300 56 q 421 144 388 113 q 507 228 455 176 q 578 297 558 279 m 219 651 l 179 680 q 305 861 232 773 q 416 948 378 948 q 470 880 436 948 q 526 751 504 811 q 551 679 549 691 l 503 651 q 451 738 490 668 q 397 834 412 807 q 330 764 370 806 q 219 651 239 669 z "},"":{"ha":496,"x_min":18,"x_max":633,"o":"m 205 383 q 319 317 257 317 q 388 355 359 317 q 416 437 416 394 q 400 494 416 479 q 354 509 385 509 q 298 495 324 509 q 254 461 272 481 q 205 383 218 421 m 578 297 l 578 222 q 385 42 470 104 q 224 -20 300 -20 q 33 80 71 -20 q 18 175 18 119 q 60 364 18 274 q 179 512 101 454 q 351 570 256 570 q 511 450 511 570 q 449 316 511 373 q 309 258 387 258 q 243 277 277 258 q 186 332 210 295 q 157 212 157 271 q 271 56 157 56 q 344 84 300 56 q 421 144 388 113 q 507 228 455 176 q 578 297 558 279 m 307 755 q 307 740 307 755 q 271 690 307 726 q 199 655 235 655 q 137 708 137 655 q 164 780 137 745 q 230 815 192 815 q 288 800 269 815 q 307 755 307 785 m 633 755 q 633 740 633 755 q 598 690 633 725 q 526 655 563 655 q 464 708 464 655 q 492 780 464 745 q 558 815 519 815 q 615 800 596 815 q 633 755 633 785 z "},"":{"ha":318,"x_min":-17,"x_max":400,"o":"m 157 135 q 180 90 157 90 q 274 168 195 90 q 400 297 353 245 l 400 221 q 221 52 267 90 q 79 -20 138 -17 q 35 7 50 -20 q 20 76 20 34 q 58 273 20 118 q 108 461 96 429 q 129 507 121 494 q 149 527 137 519 q 171 539 161 534 q 199 545 180 543 q 264 547 225 547 q 157 135 157 204 m 55 755 l -5 779 q -17 801 -17 783 q 7 844 -17 819 q 55 868 32 868 q 194 808 106 865 q 340 696 281 750 l 325 659 q 55 755 130 726 z "},"":{"ha":318,"x_min":20,"x_max":469,"o":"m 157 135 q 180 90 157 90 q 274 168 195 90 q 400 297 353 245 l 400 221 q 221 52 267 90 q 79 -20 138 -17 q 35 7 50 -20 q 20 76 20 34 q 58 273 20 118 q 108 461 96 429 q 129 507 121 494 q 149 527 137 519 q 171 539 161 534 q 199 545 180 543 q 264 547 225 547 q 157 135 157 204 m 456 779 l 397 755 q 127 659 321 726 l 112 696 q 259 808 172 751 q 397 868 347 865 q 445 844 420 868 q 469 801 469 819 q 456 779 469 783 z "},"":{"ha":318,"x_min":20,"x_max":435,"o":"m 157 135 q 180 90 157 90 q 274 168 195 90 q 400 297 353 245 l 400 221 q 221 52 267 90 q 79 -20 138 -17 q 35 7 50 -20 q 20 76 20 34 q 58 273 20 118 q 108 461 96 429 q 129 507 121 494 q 149 527 137 519 q 171 539 161 534 q 199 545 180 543 q 264 547 225 547 q 157 135 157 204 m 102 661 l 62 690 q 188 871 115 783 q 300 958 261 958 q 353 890 319 958 q 410 761 387 821 q 435 689 432 701 l 386 661 q 335 748 374 678 q 280 844 296 817 q 212 774 253 817 q 102 661 122 679 z "},"":{"ha":318,"x_min":20,"x_max":517,"o":"m 157 135 q 180 90 157 90 q 274 168 195 90 q 400 297 353 245 l 400 221 q 221 52 267 90 q 79 -20 138 -17 q 35 7 50 -20 q 20 76 20 34 q 58 273 20 118 q 108 461 96 429 q 129 507 121 494 q 149 527 137 519 q 171 539 161 534 q 199 545 180 543 q 264 547 225 547 q 157 135 157 204 m 190 765 q 190 750 190 765 q 154 700 190 735 q 83 665 118 665 q 20 718 20 665 q 48 790 20 755 q 114 825 75 825 q 171 809 152 825 q 190 765 190 794 m 517 765 q 517 750 517 765 q 481 700 517 734 q 410 665 446 665 q 347 718 347 665 q 375 790 347 755 q 441 825 403 825 q 498 810 479 825 q 517 765 517 795 z "},"":{"ha":703,"x_min":56,"x_max":662,"o":"m 227 1038 q 446 872 328 1038 l 486 888 q 609 930 581 930 q 638 902 638 930 q 627 862 638 882 q 596 834 616 842 q 496 792 541 812 q 615 526 569 668 q 662 265 662 384 q 592 68 662 146 q 394 -9 522 -9 q 262 19 326 -9 q 155 92 199 47 q 83 197 110 138 q 56 317 56 256 q 120 493 56 429 q 281 558 184 558 q 407 526 355 558 q 435 484 435 509 q 429 460 435 473 q 333 481 382 481 q 250 440 284 481 q 216 330 216 399 q 245 201 216 262 q 316 106 273 141 q 393 71 359 71 q 447 77 427 71 q 481 96 467 83 q 504 125 494 109 q 517 165 513 142 q 526 270 526 206 q 353 728 526 451 l 255 681 q 224 674 235 674 q 205 692 214 674 q 197 727 197 710 q 212 756 197 744 q 304 806 228 768 q 132 1038 237 905 l 227 1038 z "},"":{"ha":568,"x_min":-17,"x_max":650,"o":"m 650 296 l 650 220 q 459 45 542 110 q 348 -20 376 -20 q 297 37 297 -20 q 322 173 297 94 q 373 316 348 252 q 399 402 399 380 q 391 434 399 424 q 372 444 383 444 q 289 390 334 444 q 209 260 244 336 q 113 0 136 101 l -17 0 q 24 243 -16 73 q 97 493 65 412 q 134 536 110 526 q 199 547 158 547 l 244 547 q 171 301 195 376 q 302 473 216 386 q 394 543 345 515 q 488 570 444 570 q 554 490 554 570 q 506 310 554 452 q 458 154 458 168 q 467 139 458 139 q 489 148 475 139 q 570 221 503 157 q 650 296 636 284 m 224 818 q 279 762 231 762 q 378 788 306 762 q 482 814 450 814 q 536 803 514 814 q 570 777 558 792 q 589 742 581 762 q 600 707 597 722 q 604 664 604 673 l 519 651 q 469 711 509 711 q 378 682 446 711 q 275 654 309 654 q 219 665 241 654 q 185 691 197 675 q 166 726 174 706 q 156 761 158 745 q 151 804 151 794 l 224 818 z "},"":{"ha":615,"x_min":21,"x_max":697,"o":"m 464 561 q 449 532 464 541 q 243 454 314 532 q 176 290 176 381 q 217 144 176 199 q 315 90 257 90 q 428 151 374 90 q 350 235 377 183 q 322 341 322 288 q 355 429 322 395 q 449 463 387 463 q 539 429 511 463 q 567 348 567 396 q 504 172 567 249 q 533 165 521 165 q 558 171 545 165 q 589 192 572 177 q 618 219 606 206 q 656 258 631 232 q 697 300 680 283 l 697 225 q 606 140 641 165 q 537 115 571 115 q 476 125 504 115 q 352 21 424 61 q 204 -20 281 -20 q 47 84 94 -20 q 21 215 21 142 q 138 475 21 380 q 449 570 255 570 q 464 561 463 570 m 503 335 q 447 397 503 397 q 392 332 392 397 q 411 260 392 297 q 461 201 429 223 q 489 263 475 224 q 503 335 503 303 m 235 747 l 175 770 q 163 792 163 774 q 187 835 163 810 q 235 859 212 859 q 373 799 286 857 q 519 687 461 741 l 505 650 q 235 747 309 718 z "},"":{"ha":615,"x_min":21,"x_max":697,"o":"m 464 561 q 449 532 464 541 q 243 454 314 532 q 176 290 176 381 q 217 144 176 199 q 315 90 257 90 q 428 151 374 90 q 350 235 377 183 q 322 341 322 288 q 355 429 322 395 q 449 463 387 463 q 539 429 511 463 q 567 348 567 396 q 504 172 567 249 q 533 165 521 165 q 558 171 545 165 q 589 192 572 177 q 618 219 606 206 q 656 258 631 232 q 697 300 680 283 l 697 225 q 606 140 641 165 q 537 115 571 115 q 476 125 504 115 q 352 21 424 61 q 204 -20 281 -20 q 47 84 94 -20 q 21 215 21 142 q 138 475 21 380 q 449 570 255 570 q 464 561 463 570 m 503 335 q 447 397 503 397 q 392 332 392 397 q 411 260 392 297 q 461 201 429 223 q 489 263 475 224 q 503 335 503 303 m 636 770 l 576 747 q 307 650 501 717 l 292 687 q 439 799 351 742 q 576 859 526 857 q 624 835 600 859 q 649 792 649 810 q 636 770 649 774 z "},"":{"ha":615,"x_min":21,"x_max":697,"o":"m 464 561 q 449 532 464 541 q 243 454 314 532 q 176 290 176 381 q 217 144 176 199 q 315 90 257 90 q 428 151 374 90 q 350 235 377 183 q 322 341 322 288 q 355 429 322 395 q 449 463 387 463 q 539 429 511 463 q 567 348 567 396 q 504 172 567 249 q 533 165 521 165 q 558 171 545 165 q 589 192 572 177 q 618 219 606 206 q 656 258 631 232 q 697 300 680 283 l 697 225 q 606 140 641 165 q 537 115 571 115 q 476 125 504 115 q 352 21 424 61 q 204 -20 281 -20 q 47 84 94 -20 q 21 215 21 142 q 138 475 21 380 q 449 570 255 570 q 464 561 463 570 m 503 335 q 447 397 503 397 q 392 332 392 397 q 411 260 392 297 q 461 201 429 223 q 489 263 475 224 q 503 335 503 303 m 282 652 l 242 682 q 368 862 295 774 q 479 949 441 949 q 533 881 499 949 q 589 752 567 812 q 614 680 612 692 l 566 652 q 514 739 553 669 q 460 836 475 808 q 392 765 433 808 q 282 652 302 670 z "},"":{"ha":615,"x_min":21,"x_max":697,"o":"m 464 561 q 449 532 464 541 q 243 454 314 532 q 176 290 176 381 q 217 144 176 199 q 315 90 257 90 q 428 151 374 90 q 350 235 377 183 q 322 341 322 288 q 355 429 322 395 q 449 463 387 463 q 539 429 511 463 q 567 348 567 396 q 504 172 567 249 q 533 165 521 165 q 558 171 545 165 q 589 192 572 177 q 618 219 606 206 q 656 258 631 232 q 697 300 680 283 l 697 225 q 606 140 641 165 q 537 115 571 115 q 476 125 504 115 q 352 21 424 61 q 204 -20 281 -20 q 47 84 94 -20 q 21 215 21 142 q 138 475 21 380 q 449 570 255 570 q 464 561 463 570 m 503 335 q 447 397 503 397 q 392 332 392 397 q 411 260 392 297 q 461 201 429 223 q 489 263 475 224 q 503 335 503 303 m 290 818 q 346 762 298 762 q 445 788 372 762 q 549 814 517 814 q 603 803 581 814 q 636 777 625 792 q 655 742 648 762 q 666 707 663 722 q 671 664 671 673 l 586 651 q 535 711 575 711 q 444 682 513 711 q 341 654 376 654 q 285 665 307 654 q 252 691 263 675 q 232 726 240 706 q 222 761 224 745 q 217 804 217 794 l 290 818 z "},"":{"ha":615,"x_min":21,"x_max":697,"o":"m 464 561 q 449 532 464 541 q 243 454 314 532 q 176 290 176 381 q 217 144 176 199 q 315 90 257 90 q 428 151 374 90 q 350 235 377 183 q 322 341 322 288 q 355 429 322 395 q 449 463 387 463 q 539 429 511 463 q 567 348 567 396 q 504 172 567 249 q 533 165 521 165 q 558 171 545 165 q 589 192 572 177 q 618 219 606 206 q 656 258 631 232 q 697 300 680 283 l 697 225 q 606 140 641 165 q 537 115 571 115 q 476 125 504 115 q 352 21 424 61 q 204 -20 281 -20 q 47 84 94 -20 q 21 215 21 142 q 138 475 21 380 q 449 570 255 570 q 464 561 463 570 m 503 335 q 447 397 503 397 q 392 332 392 397 q 411 260 392 297 q 461 201 429 223 q 489 263 475 224 q 503 335 503 303 m 369 756 q 369 742 369 756 q 333 692 369 727 q 262 656 297 656 q 199 709 199 656 q 227 782 199 747 q 293 817 254 817 q 350 801 331 817 q 369 756 369 786 m 696 756 q 696 741 696 756 q 661 691 696 726 q 589 656 625 656 q 526 709 526 656 q 554 782 526 747 q 620 817 582 817 q 677 802 659 817 q 696 756 696 787 z "},"":{"ha":585,"x_min":78,"x_max":554,"o":"m 486 416 l 351 418 q 117 406 290 418 q 78 433 78 406 q 111 492 78 482 q 233 503 134 496 q 371 510 333 510 q 554 482 554 510 q 533 439 554 462 q 486 416 511 416 m 374 272 q 374 257 374 272 q 338 207 374 242 q 267 172 303 172 q 204 225 204 172 q 232 297 204 262 q 298 332 260 332 q 355 317 336 332 q 374 272 374 302 m 388 621 q 375 603 388 621 q 328 586 361 586 q 277 601 294 586 q 260 646 260 616 q 284 711 260 676 q 343 746 308 746 q 397 731 378 746 q 415 686 415 716 q 388 621 415 656 z "},"":{"ha":615,"x_min":21,"x_max":697,"o":"m 472 370 q 546 294 546 370 q 533 224 546 261 q 507 171 520 188 q 533 165 520 165 q 558 171 545 165 q 589 192 572 177 q 618 219 606 206 q 656 258 631 232 q 697 300 680 283 l 697 225 q 606 140 641 165 q 531 115 571 115 q 478 126 490 115 q 353 21 425 62 q 204 -20 281 -20 q 176 -17 193 -20 l 122 -104 q 65 -143 94 -141 q 52 -131 52 -141 q 64 -102 52 -120 q 81 -73 76 -84 q 123 0 86 -62 q 46 86 72 26 q 21 211 21 146 q 55 339 21 275 q 141 454 88 404 q 263 537 194 505 q 385 570 333 570 q 475 558 437 570 l 524 635 q 544 666 532 648 q 561 692 555 684 q 596 711 575 711 q 616 692 616 711 q 612 682 616 686 l 522 538 q 603 464 564 513 q 594 435 603 441 q 575 425 585 429 q 494 493 535 471 l 254 109 q 315 90 279 90 q 429 153 375 90 q 389 252 389 197 q 411 338 389 307 q 472 370 433 370 m 215 147 q 444 510 281 253 q 395 514 426 514 q 321 492 365 514 q 245 435 277 469 q 176 279 176 358 q 215 147 176 200 m 469 192 q 498 281 498 250 q 473 313 498 313 q 450 296 458 313 q 441 258 441 280 q 469 192 441 210 z "},"":{"ha":673,"x_min":25,"x_max":755,"o":"m 104 -20 q 25 94 25 -20 q 35 170 25 133 q 147 530 75 323 q 257 547 150 547 l 281 547 q 253 458 281 546 q 170 147 170 196 q 215 98 170 98 q 311 132 254 98 q 378 184 368 165 l 452 467 q 492 537 467 524 q 555 547 512 547 l 602 547 q 500 167 515 236 q 494 105 494 115 q 497 91 494 95 q 511 87 500 87 q 755 297 546 87 l 755 221 q 699 169 739 206 q 638 112 659 131 q 582 63 617 92 q 522 19 546 34 q 421 -20 460 -20 q 363 69 363 -20 q 370 132 363 106 q 104 -20 213 -20 m 198 745 l 138 769 q 126 791 126 772 q 151 833 126 809 q 198 858 175 858 q 337 798 249 855 q 483 686 425 740 l 468 648 q 198 745 273 716 z "},"":{"ha":673,"x_min":25,"x_max":755,"o":"m 104 -20 q 25 94 25 -20 q 35 170 25 133 q 147 530 75 323 q 257 547 150 547 l 281 547 q 253 458 281 546 q 170 147 170 196 q 215 98 170 98 q 311 132 254 98 q 378 184 368 165 l 452 467 q 492 537 467 524 q 555 547 512 547 l 602 547 q 500 167 515 236 q 494 105 494 115 q 497 91 494 95 q 511 87 500 87 q 755 297 546 87 l 755 221 q 699 169 739 206 q 638 112 659 131 q 582 63 617 92 q 522 19 546 34 q 421 -20 460 -20 q 363 69 363 -20 q 370 132 363 106 q 104 -20 213 -20 m 600 769 l 540 745 q 271 648 465 715 l 255 686 q 402 798 315 741 q 540 858 490 855 q 588 833 563 858 q 612 791 612 809 q 600 769 612 772 z "},"":{"ha":673,"x_min":25,"x_max":755,"o":"m 104 -20 q 25 94 25 -20 q 35 170 25 133 q 147 530 75 323 q 257 547 150 547 l 281 547 q 253 458 281 546 q 170 147 170 196 q 215 98 170 98 q 311 132 254 98 q 378 184 368 165 l 452 467 q 492 537 467 524 q 555 547 512 547 l 602 547 q 500 167 515 236 q 494 105 494 115 q 497 91 494 95 q 511 87 500 87 q 755 297 546 87 l 755 221 q 699 169 739 206 q 638 112 659 131 q 582 63 617 92 q 522 19 546 34 q 421 -20 460 -20 q 363 69 363 -20 q 370 132 363 106 q 104 -20 213 -20 m 245 651 l 205 680 q 331 861 258 773 q 443 948 404 948 q 496 880 463 948 q 553 751 530 811 q 578 679 575 691 l 529 651 q 478 738 517 668 q 423 834 439 807 q 355 764 396 806 q 245 651 265 669 z "},"":{"ha":673,"x_min":25,"x_max":755,"o":"m 104 -20 q 25 94 25 -20 q 35 170 25 133 q 147 530 75 323 q 257 547 150 547 l 281 547 q 253 458 281 546 q 170 147 170 196 q 215 98 170 98 q 311 132 254 98 q 378 184 368 165 l 452 467 q 492 537 467 524 q 555 547 512 547 l 602 547 q 500 167 515 236 q 494 105 494 115 q 497 91 494 95 q 511 87 500 87 q 755 297 546 87 l 755 221 q 699 169 739 206 q 638 112 659 131 q 582 63 617 92 q 522 19 546 34 q 421 -20 460 -20 q 363 69 363 -20 q 370 132 363 106 q 104 -20 213 -20 m 333 755 q 333 740 333 755 q 297 690 333 726 q 225 655 261 655 q 163 708 163 655 q 191 780 163 745 q 257 815 218 815 q 314 800 295 815 q 333 755 333 785 m 660 755 q 660 740 660 755 q 625 690 660 725 q 553 655 589 655 q 490 708 490 655 q 518 780 490 745 q 584 815 546 815 q 641 800 623 815 q 660 755 660 785 z "},"":{"ha":583,"x_min":-3,"x_max":667,"o":"m 343 132 q 77 -20 185 -20 q 16 13 35 -20 q -3 97 -3 45 q 119 530 -3 183 q 229 547 122 547 l 253 547 q 225 458 253 546 q 142 147 142 196 q 187 98 142 98 q 283 132 226 98 q 350 184 340 165 l 424 467 q 465 537 439 524 q 528 547 484 547 l 574 547 q 531 402 558 503 q 492 259 503 301 q 457 130 467 168 l 452 111 q 667 298 606 240 l 667 222 l 440 18 l 440 16 q 391 -139 425 -71 q 315 -248 357 -208 q 139 -332 229 -332 q 52 -302 92 -332 q 11 -231 11 -272 q 38 -162 11 -191 q 117 -106 66 -134 l 321 24 l 343 132 m 313 -60 l 187 -139 q 152 -162 165 -153 q 125 -191 138 -172 q 113 -229 113 -209 q 163 -285 113 -285 q 260 -223 223 -285 q 313 -60 298 -161 m 564 769 l 504 745 q 235 648 429 715 l 219 686 q 366 798 279 741 q 504 858 454 855 q 552 833 527 858 q 576 791 576 809 q 564 769 576 772 z "},"":{"ha":656,"x_min":-93,"x_max":667,"o":"m 554 467 q 492 260 554 377 q 358 98 430 143 q 541 198 428 98 q 667 318 595 245 l 667 240 q 621 195 650 224 q 577 153 591 165 q 539 117 564 140 q 501 83 514 93 q 466 56 488 73 q 430 32 444 39 q 394 14 415 24 q 354 -1 372 3 q 277 -11 308 -11 q 237 0 245 -11 q 228 24 228 11 q 229 42 228 37 q 234 54 231 47 q 241 64 238 60 q 251 77 244 69 q 260 89 257 85 q 271 102 264 93 q 363 247 323 160 q 403 389 403 334 q 358 444 403 444 q 217 320 281 444 q 113 57 160 210 l 94 -1 q 29 -264 83 -42 l -93 -264 q -5 118 -56 -121 q 201 937 115 674 q 274 990 219 985 q 310 991 288 991 l 355 991 q 334 909 349 968 q 207 457 290 736 l 170 323 q 271 457 213 398 q 468 570 382 570 q 554 467 554 570 z "},"":{"ha":583,"x_min":-3,"x_max":667,"o":"m 343 132 q 77 -20 185 -20 q 16 13 35 -20 q -3 97 -3 45 q 119 530 -3 183 q 229 547 122 547 l 253 547 q 225 458 253 546 q 142 147 142 196 q 187 98 142 98 q 283 132 226 98 q 350 184 340 165 l 424 467 q 465 537 439 524 q 528 547 484 547 l 574 547 q 531 402 558 503 q 492 259 503 301 q 457 130 467 168 l 452 111 q 667 298 606 240 l 667 222 l 440 18 l 440 16 q 391 -139 425 -71 q 315 -248 357 -208 q 139 -332 229 -332 q 52 -302 92 -332 q 11 -231 11 -272 q 38 -162 11 -191 q 117 -106 66 -134 l 321 24 l 343 132 m 313 -60 l 187 -139 q 152 -162 165 -153 q 125 -191 138 -172 q 113 -229 113 -209 q 163 -285 113 -285 q 260 -223 223 -285 q 313 -60 298 -161 m 297 755 q 297 740 297 755 q 261 690 297 726 q 190 655 225 655 q 127 708 127 655 q 155 780 127 745 q 221 815 182 815 q 278 800 259 815 q 297 755 297 785 m 624 755 q 624 740 624 755 q 589 690 624 725 q 517 655 553 655 q 454 708 454 655 q 482 780 454 745 q 548 815 510 815 q 605 800 587 815 q 624 755 624 785 z "},"":{"ha":860,"x_min":56,"x_max":951,"o":"m 743 779 q 628 961 707 961 q 485 926 553 958 q 366 843 417 895 q 278 726 315 791 q 201 432 201 594 q 283 177 201 270 q 498 85 365 85 q 722 141 604 85 q 951 306 840 198 l 951 231 q 418 -39 667 -39 q 111 142 209 -39 q 56 380 56 248 q 161 749 56 571 q 353 948 232 870 q 648 1029 479 1029 q 821 960 749 1029 q 892 799 892 890 q 861 744 892 760 q 711 663 831 729 q 529 570 543 570 q 503 597 503 570 q 623 683 503 631 q 706 729 668 703 q 743 779 743 755 m 515 1124 l 475 1153 q 601 1333 528 1246 q 713 1421 674 1421 q 766 1352 732 1421 q 823 1224 800 1284 q 848 1152 845 1164 l 799 1124 q 748 1210 787 1141 q 693 1307 709 1280 q 625 1236 666 1279 q 515 1124 535 1141 z "},"":{"ha":472,"x_min":-3,"x_max":558,"o":"m 154 -20 q 37 29 76 -20 q -3 150 -3 78 q 24 295 -3 222 q 95 428 50 367 q 205 530 139 490 q 345 570 272 570 q 469 524 441 570 q 479 482 479 507 q 454 437 479 456 q 390 418 429 418 q 351 461 369 418 q 329 490 344 477 q 293 504 313 504 q 219 460 254 504 q 165 353 184 416 q 146 230 146 290 q 168 133 146 170 q 233 96 189 96 q 558 300 351 96 l 558 224 q 256 0 375 45 q 154 -20 203 -20 m 211 651 l 171 680 q 297 861 224 773 q 408 948 370 948 q 462 880 428 948 q 518 751 496 811 q 543 679 541 691 l 494 651 q 443 738 482 668 q 389 834 404 807 q 321 764 361 806 q 211 651 231 669 z "},"":{"ha":496,"x_min":18,"x_max":594,"o":"m 205 383 q 319 317 257 317 q 388 355 359 317 q 416 437 416 394 q 400 494 416 479 q 354 509 385 509 q 298 495 324 509 q 254 461 272 481 q 205 383 218 421 m 578 297 l 578 222 q 385 42 470 104 q 224 -20 300 -20 q 33 80 71 -20 q 18 175 18 119 q 60 364 18 274 q 179 512 101 454 q 351 570 256 570 q 511 450 511 570 q 449 316 511 373 q 309 258 387 258 q 243 277 277 258 q 186 332 210 295 q 157 212 157 271 q 271 56 157 56 q 344 84 300 56 q 421 144 388 113 q 507 228 455 176 q 578 297 558 279 m 594 909 q 469 728 540 815 q 359 642 398 642 q 318 682 342 642 q 274 774 294 722 q 224 909 238 865 l 301 925 q 379 742 349 814 l 529 925 l 594 909 z "},"":{"ha":597,"x_min":7,"x_max":684,"o":"m 449 664 l 355 665 q 315 665 333 665 l 227 346 q 358 504 277 439 q 517 570 439 570 q 583 490 583 570 q 539 335 583 462 q 496 158 496 208 q 509 138 496 138 q 587 208 517 138 q 684 301 656 278 l 684 225 q 404 -20 470 -20 q 361 32 361 -20 q 363 58 361 39 q 385 141 366 77 q 440 406 440 324 q 401 444 440 444 q 276 357 342 444 q 186 181 210 270 q 149 56 163 93 q 113 0 134 18 l 7 0 q 173 656 17 77 q 121 653 165 656 q 82 681 82 653 q 115 739 82 728 q 198 749 139 745 l 216 817 q 276 968 248 937 q 319 989 292 987 q 371 991 345 991 q 404 989 397 991 l 340 756 q 375 757 351 757 q 517 729 517 757 q 496 686 517 709 q 449 664 475 664 z "},"":{"ha":720,"x_min":140,"x_max":1082,"o":"m 273 205 l 272 144 q 290 53 272 79 q 347 28 309 28 q 543 410 475 28 q 544 415 544 413 q 545 419 545 416 q 546 424 545 422 l 555 476 q 290 562 370 490 q 245 647 245 602 q 350 834 245 727 q 532 955 419 904 q 799 1007 650 1007 q 879 1022 829 1007 q 950 1038 928 1036 q 916 945 942 987 q 847 889 889 903 q 717 538 762 743 l 694 439 q 619 165 656 243 q 514 20 569 60 q 335 -39 435 -39 q 208 -1 268 -39 q 159 47 178 16 q 140 117 140 79 q 273 205 140 205 m 357 644 q 579 571 357 583 q 654 763 610 685 q 777 884 698 840 q 617 863 691 884 q 497 811 543 842 q 418 747 451 781 q 357 644 357 683 m 701 1289 q 757 1234 709 1234 q 856 1259 783 1234 q 960 1285 928 1285 q 1014 1274 991 1285 q 1047 1248 1036 1263 q 1066 1213 1059 1233 q 1077 1178 1074 1194 q 1082 1135 1082 1145 l 997 1122 q 946 1182 986 1182 q 855 1154 924 1182 q 752 1125 787 1125 q 696 1136 718 1125 q 663 1162 674 1147 q 643 1197 651 1177 q 633 1232 635 1217 q 628 1275 628 1265 l 701 1289 z "},"":{"ha":318,"x_min":20,"x_max":492,"o":"m 157 135 q 180 90 157 90 q 274 168 195 90 q 400 297 353 245 l 400 221 q 221 52 267 90 q 79 -20 138 -17 q 35 7 50 -20 q 20 76 20 34 q 58 273 20 118 q 108 461 96 429 q 129 507 121 494 q 149 527 137 519 q 171 539 161 534 q 199 545 180 543 q 264 547 225 547 q 157 135 157 204 m 111 827 q 167 771 119 771 q 266 797 193 771 q 370 823 338 823 q 424 812 401 823 q 457 786 446 801 q 476 751 469 770 q 487 715 484 731 q 492 673 492 682 l 407 660 q 356 720 396 720 q 265 691 334 720 q 162 663 197 663 q 106 673 128 663 q 73 700 84 684 q 53 734 61 715 q 43 770 45 754 q 38 812 38 803 l 111 827 z "},"":{"ha":720,"x_min":140,"x_max":950,"o":"m 273 205 l 272 144 q 290 53 272 79 q 347 28 309 28 q 543 410 475 28 q 544 415 544 413 q 545 419 545 416 q 546 424 545 422 l 555 476 q 290 562 370 490 q 245 647 245 602 q 350 834 245 727 q 532 955 419 904 q 799 1007 650 1007 q 879 1022 829 1007 q 950 1038 928 1036 q 916 945 942 987 q 847 889 889 903 q 717 538 762 743 l 694 439 q 619 165 656 243 q 514 20 569 60 q 335 -39 435 -39 q 208 -1 268 -39 q 159 47 178 16 q 140 117 140 79 q 273 205 140 205 m 357 644 q 579 571 357 583 q 654 763 610 685 q 777 884 698 840 q 617 863 691 884 q 497 811 543 842 q 418 747 451 781 q 357 644 357 683 m 427 -391 q 376 -395 403 -395 q 322 -390 349 -395 q 266 -372 295 -385 q 213 -340 236 -359 q 161 -220 161 -296 q 218 -91 161 -141 q 296 -37 262 -52 q 330 -20 329 -21 l 431 -20 q 382 -41 418 -20 q 321 -81 345 -62 q 280 -130 297 -100 q 262 -192 262 -159 q 279 -249 262 -224 q 318 -286 296 -273 q 366 -307 340 -299 q 427 -319 405 -319 l 427 -391 z "},"":{"ha":318,"x_min":-121,"x_max":400,"o":"m 157 135 q 180 90 157 90 q 274 168 195 90 q 400 297 353 245 l 400 221 q 221 52 267 90 q 79 -20 138 -17 q 35 7 50 -20 q 20 76 20 34 q 58 273 20 118 q 108 461 96 429 q 129 507 121 494 q 149 527 137 519 q 171 539 161 534 q 199 545 180 543 q 264 547 225 547 q 157 135 157 204 m 273 728 q 225 777 225 728 q 251 842 225 810 q 311 873 276 873 q 362 860 345 873 q 379 819 379 846 q 347 760 379 791 q 273 728 315 728 m 144 -371 q 94 -375 121 -375 q 40 -370 67 -375 q -17 -352 13 -365 q -69 -320 -46 -339 q -121 -200 -121 -276 q -64 -71 -121 -121 q 14 -17 -20 -33 q 48 0 47 -1 l 149 0 q 100 -21 136 0 q 39 -61 63 -42 q -2 -110 15 -81 q -20 -172 -20 -140 q -3 -229 -20 -204 q 36 -267 14 -254 q 84 -288 58 -279 q 144 -300 123 -300 l 144 -371 z "},"":{"ha":318,"x_min":20,"x_max":400,"o":"m 157 135 q 180 90 157 90 q 274 168 195 90 q 400 297 353 245 l 400 221 q 221 52 267 90 q 79 -20 138 -17 q 35 7 50 -20 q 20 76 20 34 q 58 273 20 118 q 108 461 96 429 q 129 507 121 494 q 149 527 137 519 q 171 539 161 534 q 199 545 180 543 q 264 547 225 547 q 157 135 157 204 z "},"":{"ha":1255,"x_min":140,"x_max":1356,"o":"m 273 205 l 272 144 q 290 53 272 79 q 347 28 309 28 q 543 410 475 28 q 544 415 544 413 q 545 419 545 416 q 546 424 545 422 l 555 476 q 290 562 370 490 q 245 647 245 602 q 350 834 245 727 q 532 955 419 904 q 799 1007 650 1007 q 1204 1007 1002 1007 q 1284 1022 1235 1007 q 1356 1038 1333 1036 q 1321 945 1348 987 q 1253 889 1295 903 q 1136 570 1181 765 l 1036 90 q 1105 129 1061 105 q 1179 171 1149 153 q 1346 302 1260 219 l 1346 227 q 1187 96 1293 164 q 1021 7 1080 28 q 918 -214 989 -138 q 749 -290 846 -290 q 660 -270 705 -290 q 583 -211 614 -250 q 551 -132 551 -172 q 566 -63 551 -92 q 608 -26 581 -34 l 892 50 q 1004 570 907 140 q 1182 884 1055 805 q 846 888 942 884 q 721 561 766 751 q 907 579 790 561 q 886 501 907 524 q 701 469 789 476 l 694 439 q 619 165 656 243 q 514 20 569 60 q 335 -39 435 -39 q 208 -1 268 -39 q 159 47 178 16 q 140 117 140 79 q 273 205 140 205 m 357 644 q 579 571 357 583 q 654 763 610 685 q 777 884 698 840 q 617 863 691 884 q 497 811 543 842 q 418 747 451 781 q 357 644 357 683 m 880 -45 q 801 -65 857 -53 q 723 -85 746 -77 q 675 -140 675 -102 q 698 -210 675 -179 q 754 -241 722 -241 q 808 -221 787 -241 q 842 -165 828 -200 q 880 -45 866 -109 z "},"":{"ha":618,"x_min":18,"x_max":703,"o":"m 83 -536 q 18 -433 18 -536 q 294 -9 18 -251 l 306 1 l 332 93 q 367 224 333 102 q 405 360 401 345 q 281 98 345 180 q 209 21 235 38 q 169 -2 182 5 q 136 -13 155 -9 q 78 -19 107 -18 q 35 7 50 -20 q 20 76 20 34 q 58 273 20 118 q 108 461 96 429 q 129 507 121 494 q 149 527 137 519 q 171 539 161 534 q 199 545 180 543 q 264 547 225 547 q 157 135 157 204 q 181 90 157 90 q 243 139 205 90 q 317 256 281 187 q 408 439 388 388 q 434 500 428 490 q 448 518 439 511 q 462 531 456 526 q 480 539 468 536 q 499 544 492 542 q 522 547 505 546 q 545 547 538 547 l 572 547 q 559 502 572 544 q 538 430 547 459 q 515 351 530 401 q 491 262 501 300 q 471 184 481 224 q 450 72 450 102 q 544 148 464 77 q 703 298 624 218 l 703 222 q 604 123 640 159 q 425 -11 502 26 q 414 -63 422 -27 q 405 -109 407 -99 q 397 -145 402 -119 q 389 -180 391 -172 q 382 -209 387 -189 q 375 -241 378 -230 q 367 -272 372 -252 q 357 -309 362 -291 q 346 -349 352 -326 q 246 -475 328 -414 q 83 -536 164 -536 m 129 -320 q 110 -377 116 -349 q 103 -419 103 -406 q 116 -447 103 -432 q 148 -463 130 -463 q 180 -454 167 -463 q 204 -428 193 -446 q 224 -392 215 -410 q 242 -343 233 -373 q 258 -291 252 -313 q 272 -234 264 -269 q 283 -179 279 -199 q 302 -79 294 -125 q 129 -320 159 -249 m 582 728 q 533 777 533 728 q 558 842 533 810 q 619 873 584 873 q 671 860 654 873 q 688 819 688 846 q 655 760 688 791 q 582 728 623 728 m 273 728 q 225 777 225 728 q 251 842 225 810 q 311 873 276 873 q 362 860 345 873 q 379 819 379 846 q 347 760 379 791 q 273 728 315 728 z "},"":{"ha":730,"x_min":26,"x_max":931,"o":"m 728 889 q 611 570 656 765 q 798 585 701 570 q 777 507 798 530 q 591 475 688 483 l 511 90 q 596 137 528 100 q 712 209 663 174 q 821 302 761 244 l 821 227 q 662 96 768 164 q 496 7 555 28 q 393 -214 465 -138 q 224 -290 321 -290 q 135 -270 180 -290 q 58 -211 90 -250 q 26 -132 26 -172 q 83 -26 26 -41 l 367 50 q 416 286 379 125 q 458 473 453 446 l 458 475 q 160 575 239 486 q 131 625 138 599 q 133 682 121 644 q 161 746 144 721 q 198 798 178 772 q 247 849 218 823 q 309 898 277 875 q 384 941 342 921 q 471 975 426 961 q 679 1007 568 1007 q 759 1022 709 1007 q 831 1038 808 1036 q 796 945 823 987 q 728 889 770 903 m 237 644 q 297 594 237 614 q 479 570 357 574 q 547 761 506 682 q 657 884 587 840 q 498 863 572 884 q 378 811 424 842 q 298 747 332 781 q 237 644 237 683 m 355 -45 q 276 -65 332 -53 q 198 -85 221 -77 q 150 -140 150 -102 q 173 -210 150 -179 q 230 -241 197 -241 q 283 -221 262 -241 q 317 -165 303 -200 q 355 -45 341 -109 m 599 1124 l 559 1153 q 685 1333 612 1246 q 796 1421 758 1421 q 850 1352 816 1421 q 906 1224 884 1284 q 931 1152 928 1164 l 882 1124 q 831 1210 870 1141 q 777 1307 792 1280 q 709 1236 749 1279 q 599 1124 618 1141 z "},"":{"ha":300,"x_min":-301,"x_max":413,"o":"m -12 1 l 14 93 q 60 309 29 175 q 101 467 92 444 q 116 500 110 490 q 130 518 121 511 q 144 531 138 526 q 162 539 150 536 q 181 544 174 542 q 203 547 187 546 q 227 547 220 547 q 254 547 227 547 q 241 502 254 544 q 220 430 229 459 q 197 351 212 401 q 173 262 183 300 q 153 184 163 224 q 132 72 132 102 q 226 148 146 77 q 385 298 306 218 l 385 222 q 285 123 322 159 q 107 -11 184 26 q 96 -63 104 -27 q 86 -109 89 -99 q 79 -145 84 -119 q 71 -180 73 -172 q 64 -209 69 -189 q 57 -241 60 -230 q 49 -272 54 -252 q 39 -309 44 -291 q 28 -349 34 -326 q -72 -475 9 -414 q -235 -536 -154 -536 q -272 -523 -257 -536 q -301 -429 -301 -496 q -262 -293 -301 -366 q -182 -172 -222 -220 q -38 -20 -101 -74 l -12 1 m -190 -320 q -209 -376 -202 -349 q -215 -414 -215 -402 q -204 -445 -215 -427 q -173 -463 -194 -463 q -138 -454 -151 -463 q -114 -428 -125 -446 q -94 -392 -103 -410 q -76 -343 -85 -373 q -60 -291 -66 -313 q -46 -234 -54 -269 q -35 -179 -39 -199 q -16 -79 -24 -125 q -190 -320 -159 -249 m 81 651 l 41 680 q 166 861 94 773 q 278 948 239 948 q 332 880 298 948 q 388 751 366 811 q 413 679 410 691 l 364 651 q 313 738 352 668 q 258 834 274 807 q 191 764 231 806 q 81 651 100 669 z "},"":{"ha":614,"x_min":-7,"x_max":697,"o":"m 465 178 l 464 127 q 476 82 464 82 q 485 86 481 82 q 515 116 488 90 q 572 172 543 143 q 697 298 664 263 l 697 222 q 490 24 535 62 q 400 -20 440 -20 q 336 77 336 -20 l 346 205 q 335 237 346 225 q 196 262 312 262 l 192 244 q 98 0 146 41 l -7 0 q 153 632 2 74 l 203 817 q 262 968 235 935 q 305 990 279 989 q 357 991 331 991 q 390 989 383 991 q 300 677 364 895 q 236 457 236 459 l 472 570 q 537 542 512 570 q 562 482 562 514 q 557 430 562 450 q 545 397 551 411 q 522 369 538 382 q 494 347 506 355 q 458 328 483 338 q 385 298 406 305 q 360 290 363 291 q 354 288 357 288 q 447 252 425 288 q 465 178 465 224 m 200 310 l 245 310 q 354 332 307 310 q 441 438 441 373 q 389 503 441 503 q 321 472 364 503 q 241 394 278 441 q 200 310 204 347 m 236 -61 q 307 -113 307 -61 q 263 -262 307 -158 q 218 -367 219 -366 l 179 -353 q 195 -221 189 -288 q 155 -206 168 -221 q 142 -161 142 -191 q 170 -96 142 -131 q 236 -61 198 -61 z "},"":{"ha":614,"x_min":-7,"x_max":697,"o":"m 336 77 l 346 205 q 337 242 346 228 q 303 262 328 257 l 196 262 l 192 244 q 98 0 146 41 l -7 0 q 87 369 4 80 l 114 466 q 150 533 126 518 q 214 548 174 548 q 262 545 254 548 q 250 500 259 532 q 200 310 222 402 q 271 305 246 305 q 313 311 296 305 q 346 337 330 317 q 374 379 362 357 q 477 546 417 460 l 596 547 q 561 485 582 524 q 522 415 539 446 q 486 354 505 385 q 401 286 444 290 q 454 245 442 279 q 465 178 465 218 l 464 127 q 476 82 464 82 q 485 86 481 82 q 515 116 488 90 q 572 172 543 143 q 697 298 664 263 l 697 222 q 490 24 535 62 q 400 -20 440 -20 q 336 77 336 -20 z "},"":{"ha":928,"x_min":-141,"x_max":902,"o":"m 178 79 q -68 -20 28 -20 q -102 -11 -82 -20 q -141 49 -141 7 q -113 92 -141 74 q -37 129 -81 111 l 140 210 l 298 771 q 339 838 311 814 q 370 862 355 851 q 403 886 385 872 q 467 930 421 899 q 577 995 512 960 q 673 1029 643 1029 q 831 958 760 1029 q 902 799 902 887 q 872 745 902 760 q 722 663 842 730 q 539 570 553 570 q 513 597 513 570 q 632 682 513 630 q 714 728 676 701 q 753 778 752 754 l 749 797 q 684 942 728 902 q 637 961 663 961 q 558 910 605 957 q 476 809 511 863 q 435 724 441 754 q 277 180 368 393 q 303 172 286 178 q 329 163 321 165 q 399 139 337 161 q 596 81 559 81 q 787 195 656 81 q 892 297 836 238 l 892 221 q 651 17 739 68 q 470 -39 556 -39 q 456 -34 465 -39 q 437 -24 448 -29 q 406 -9 427 -19 q 357 12 385 0 q 178 79 275 45 m 774 446 q 774 431 774 446 q 739 381 774 416 q 667 346 703 346 q 604 399 604 346 q 632 471 604 436 q 698 506 660 506 q 755 491 736 506 q 774 446 774 476 z "},"":{"ha":661,"x_min":61,"x_max":652,"o":"m 460 961 q 367 829 412 961 q 264 419 322 696 q 359 545 315 471 q 431 688 404 618 q 489 897 489 833 q 460 961 489 961 m 122 -20 q 90 -7 98 -20 q 76 13 81 5 q 68 36 71 22 q 64 60 66 50 q 62 88 62 71 q 61 114 61 105 l 61 140 q 97 430 61 271 q 190 723 134 589 q 323 948 247 857 q 471 1039 399 1039 q 540 1009 515 1039 q 566 919 566 979 q 548 786 566 860 q 501 651 530 713 q 438 532 473 590 q 369 430 404 474 q 259 304 298 340 l 241 286 q 201 130 201 180 q 225 79 201 79 q 318 154 242 79 q 457 298 394 229 l 457 222 q 264 41 340 97 q 122 -20 188 -15 m 652 486 q 652 471 652 486 q 616 421 652 456 q 545 386 581 386 q 482 439 482 386 q 510 511 482 476 q 576 546 538 546 q 633 531 614 546 q 652 486 652 516 z "},"":{"ha":928,"x_min":-141,"x_max":902,"o":"m 139 597 q 113 637 113 597 q 131 671 113 657 q 283 719 161 683 l 298 771 q 310 802 304 793 q 318 815 315 810 q 328 826 321 820 q 337 836 334 833 q 349 846 340 840 q 361 854 357 852 q 401 885 380 870 q 467 930 421 899 q 577 995 512 960 q 673 1029 643 1029 q 831 958 760 1029 q 902 799 902 887 q 872 745 902 760 q 722 663 842 730 q 539 570 553 570 q 513 597 513 570 q 632 682 513 630 q 714 728 676 701 q 753 778 752 754 l 749 797 q 684 942 728 902 q 637 961 663 961 q 541 892 598 956 q 451 765 484 828 q 489 777 453 765 q 550 789 526 789 q 580 785 575 789 q 585 766 585 781 q 572 732 585 752 q 538 705 560 712 q 465 685 515 698 l 425 675 q 277 180 361 380 q 302 172 283 178 q 330 163 320 166 q 399 139 339 161 q 596 81 560 81 q 787 195 656 81 q 892 297 836 238 l 892 221 q 651 17 739 68 q 470 -39 556 -39 q 456 -34 465 -39 q 437 -24 448 -29 q 406 -9 427 -19 q 357 12 385 0 q 178 79 275 45 q -68 -20 28 -20 q -102 -11 -82 -20 q -141 49 -141 7 q -113 92 -141 74 q -37 129 -81 111 l 140 210 l 258 629 l 157 600 q 139 597 143 597 z "},"":{"ha":375,"x_min":-23,"x_max":566,"o":"m 2 247 q -23 287 -23 247 q -5 321 -23 309 q 81 349 2 324 q 170 671 110 515 q 311 933 229 828 q 471 1039 393 1039 q 540 1009 515 1039 q 566 930 566 979 q 487 632 566 784 q 314 416 409 479 q 371 432 336 422 q 422 445 406 441 q 458 452 439 449 q 503 444 495 458 q 495 402 507 427 q 466 373 483 378 q 423 359 449 368 q 385 349 397 351 l 249 315 q 235 269 248 310 q 201 124 201 168 q 225 79 201 79 q 318 154 242 79 q 457 298 394 229 l 457 222 q 264 41 340 97 q 122 -20 188 -15 q 90 -7 98 -20 q 76 13 81 5 q 68 36 71 22 q 64 60 66 50 q 62 88 62 71 q 61 114 61 105 l 61 140 q 68 262 61 191 l 18 250 q 14 248 16 249 q 2 247 9 247 m 278 461 q 429 694 369 552 q 489 898 489 836 q 460 961 489 961 q 373 839 415 961 q 278 461 331 716 z "},"":{"ha":999,"x_min":-1,"x_max":1083,"o":"m 909 132 l 1083 298 l 1082 224 q 990 131 1002 140 q 746 -39 813 -39 q 653 187 653 -39 q 714 713 653 412 q 726 760 718 728 q 746 860 746 831 q 728 888 746 888 q 681 872 719 888 q 594 826 643 856 q 508 765 545 795 q 438 697 471 734 q 382 628 405 660 q 339 555 359 595 q 307 486 319 515 q 283 419 295 456 q 259 332 265 361 q 236 223 252 302 q 184 0 220 144 l 45 0 q 70 169 45 63 q 137 428 94 275 q 200 675 179 581 l 256 890 l 37 736 l 17 729 q -1 764 -1 729 q 16 791 -1 780 l 307 975 q 422 1028 389 1028 q 436 1015 436 1028 q 410 872 436 976 q 383 761 383 769 l 372 705 q 785 1018 594 969 q 861 1028 825 1028 q 918 965 918 1028 q 890 807 918 946 q 806 244 806 389 q 852 100 806 100 q 909 132 878 100 m 891 1242 l 831 1218 q 562 1121 756 1188 l 547 1158 q 694 1271 606 1213 q 831 1331 781 1328 q 879 1306 854 1331 q 904 1263 904 1282 q 891 1242 904 1245 z "},"":{"ha":568,"x_min":-17,"x_max":650,"o":"m 650 296 l 650 220 q 459 45 542 110 q 348 -20 376 -20 q 297 37 297 -20 q 322 173 297 94 q 373 316 348 252 q 399 402 399 380 q 391 434 399 424 q 372 444 383 444 q 289 390 334 444 q 209 260 244 336 q 113 0 136 101 l -17 0 q 24 243 -16 73 q 97 493 65 412 q 134 536 110 526 q 199 547 158 547 l 244 547 q 171 301 195 376 q 302 473 216 386 q 394 543 345 515 q 488 570 444 570 q 554 490 554 570 q 506 310 554 452 q 458 154 458 168 q 467 139 458 139 q 489 148 475 139 q 570 221 503 157 q 650 296 636 284 m 569 770 l 509 747 q 240 650 434 717 l 224 687 q 372 799 284 742 q 509 859 459 857 q 557 835 532 859 q 582 792 582 810 q 569 770 582 774 z "},"":{"ha":1428,"x_min":68,"x_max":1540,"o":"m 895 163 l 933 161 q 958 163 949 161 q 1021 139 963 161 q 1208 81 1175 81 q 1402 194 1272 81 q 1510 297 1453 238 l 1510 222 q 1450 169 1489 203 q 1393 117 1411 134 q 1342 74 1375 101 q 1291 35 1310 47 q 1243 5 1272 22 q 1191 -20 1214 -12 q 1082 -39 1132 -39 q 1069 -33 1078 -39 q 1049 -22 1059 -28 q 1016 -8 1038 -17 q 964 12 994 1 q 777 74 906 34 l 753 81 q 598 -7 687 24 q 422 -39 510 -39 q 266 -8 335 -39 q 155 77 197 23 q 68 349 68 186 q 183 745 68 561 q 393 948 262 870 q 717 1029 532 1029 l 1120 1029 q 1540 1011 1540 1029 q 1528 990 1540 1004 l 1459 913 q 1389 889 1426 889 q 1262 903 1353 889 q 1129 920 1171 918 q 1087 760 1124 901 q 1025 539 1050 619 q 1190 546 1113 546 l 1339 542 q 1364 520 1364 542 q 1343 477 1364 499 q 1296 454 1322 454 q 1002 447 1096 454 l 1002 446 q 872 161 966 317 l 895 163 m 825 428 q 696 403 755 418 q 663 432 663 403 q 703 481 663 465 q 788 504 740 495 q 850 515 837 513 q 944 790 903 700 q 1047 922 985 880 q 881 934 1036 924 q 713 943 726 943 q 536 911 618 943 q 397 827 454 880 q 300 706 340 774 q 221 419 221 572 q 292 201 221 288 q 508 109 367 109 q 747 184 649 109 l 749 189 q 825 428 765 213 z "},"":{"ha":904,"x_min":21,"x_max":986,"o":"m 518 444 q 760 570 618 570 q 920 450 920 570 q 857 316 920 373 q 717 258 795 258 q 651 277 685 258 q 595 332 618 295 q 566 212 566 273 q 679 56 566 56 q 752 84 709 56 q 830 144 796 113 q 915 228 863 176 q 986 297 966 279 l 986 222 q 793 42 878 104 q 633 -20 709 -20 q 508 4 557 -20 q 439 85 460 28 q 204 -20 333 -20 q 47 84 94 -20 q 21 214 21 142 q 52 353 21 286 q 129 466 82 420 q 234 541 176 513 q 349 570 291 570 q 452 538 406 570 q 518 444 498 507 m 315 90 q 464 205 420 90 q 485 340 485 262 q 449 465 485 419 q 351 510 412 510 q 233 442 289 510 q 176 286 176 374 q 217 144 176 199 q 315 90 257 90 m 614 383 q 728 317 665 317 q 796 355 767 317 q 825 437 825 394 q 809 494 825 479 q 763 509 793 509 q 706 495 732 509 q 662 461 680 481 q 614 383 627 420 z "},"":{"ha":1096,"x_min":-78,"x_max":1179,"o":"m 517 467 q 662 493 594 467 q 773 559 730 519 q 842 646 817 600 q 867 734 867 692 q 789 881 867 818 q 590 945 711 945 q 301 891 435 945 q 198 825 237 865 q 158 738 158 784 q 188 665 158 691 q 268 619 218 640 q 250 511 268 557 q 113 587 170 537 q 49 718 49 642 q 97 852 49 794 q 224 949 146 911 q 604 1029 391 1029 q 909 954 777 1029 q 1009 864 971 918 q 1047 746 1047 809 q 1022 635 1047 683 q 944 552 996 587 q 665 440 850 488 q 742 357 702 420 q 810 230 782 294 q 864 116 838 166 q 905 65 891 65 q 946 83 920 65 q 1006 130 973 100 q 1069 188 1040 160 q 1132 250 1099 216 q 1178 294 1166 283 l 1179 225 q 1139 180 1172 217 q 1090 128 1105 144 q 1044 81 1076 113 q 990 33 1012 49 q 940 -3 969 17 q 844 -39 886 -39 q 777 -30 802 -39 q 733 -4 751 -21 q 705 29 715 14 q 681 68 694 44 q 660 102 667 92 q 507 407 583 307 q 497 369 505 400 q 481 310 489 337 q 455 231 473 282 q 420 149 437 180 q 375 78 404 117 q 315 16 347 38 q 146 -39 239 -39 q -4 5 64 -39 q -78 139 -78 54 q -36 196 -78 176 q 69 216 7 216 q 79 214 74 216 q 77 164 77 186 q 161 36 77 36 q 248 105 207 36 q 318 280 290 175 q 369 488 347 385 q 406 680 391 591 q 427 784 422 769 q 433 803 431 798 q 443 820 435 808 q 461 835 451 831 q 528 847 492 847 q 582 846 564 847 q 517 467 564 699 m 826 1242 l 766 1218 q 497 1121 691 1188 l 481 1158 q 629 1271 541 1213 q 766 1331 716 1328 q 814 1306 789 1331 q 839 1263 839 1282 q 826 1242 839 1245 z "},"":{"ha":1096,"x_min":-78,"x_max":1179,"o":"m 517 467 q 662 493 594 467 q 773 559 730 519 q 842 646 817 600 q 867 734 867 692 q 789 881 867 818 q 590 945 711 945 q 301 891 435 945 q 198 825 237 865 q 158 738 158 784 q 188 665 158 691 q 268 619 218 640 q 250 511 268 557 q 113 587 170 537 q 49 718 49 642 q 97 852 49 794 q 224 949 146 911 q 604 1029 391 1029 q 909 954 777 1029 q 1009 864 971 918 q 1047 746 1047 809 q 1022 635 1047 683 q 944 552 996 587 q 665 440 850 488 q 742 357 702 420 q 810 230 782 294 q 864 116 838 166 q 905 65 891 65 q 946 83 920 65 q 1006 130 973 100 q 1069 188 1040 160 q 1132 250 1099 216 q 1178 294 1166 283 l 1179 225 q 1139 180 1172 217 q 1090 128 1105 144 q 1044 81 1076 113 q 990 33 1012 49 q 940 -3 969 17 q 844 -39 886 -39 q 777 -30 802 -39 q 733 -4 751 -21 q 705 29 715 14 q 681 68 694 44 q 660 102 667 92 q 507 407 583 307 q 497 369 505 400 q 481 310 489 337 q 455 231 473 282 q 420 149 437 180 q 375 78 404 117 q 315 16 347 38 q 146 -39 239 -39 q -4 5 64 -39 q -78 139 -78 54 q -36 196 -78 176 q 69 216 7 216 q 79 214 74 216 q 77 164 77 186 q 161 36 77 36 q 248 105 207 36 q 318 280 290 175 q 369 488 347 385 q 406 680 391 591 q 427 784 422 769 q 433 803 431 798 q 443 820 435 808 q 461 835 451 831 q 528 847 492 847 q 582 846 564 847 q 517 467 564 699 m 513 -61 q 585 -113 585 -61 q 541 -262 585 -158 q 496 -367 496 -366 l 456 -353 q 472 -221 467 -288 q 432 -206 446 -221 q 419 -161 419 -191 q 447 -96 419 -131 q 513 -61 475 -61 z "},"":{"ha":447,"x_min":81,"x_max":529,"o":"m 334 494 l 415 504 q 435 494 435 504 q 388 388 435 485 q 281 123 281 168 q 280 118 281 123 q 280 112 280 114 q 281 105 281 109 q 283 99 282 101 q 297 93 288 93 q 405 173 315 93 q 529 298 496 254 l 529 222 q 203 -20 287 -20 q 158 7 173 -20 q 143 60 143 34 q 153 119 143 85 q 181 196 163 153 q 213 275 198 239 q 246 351 228 310 q 267 399 264 392 q 177 313 228 359 q 81 220 125 266 l 81 296 l 218 439 q 111 503 136 459 q 106 518 106 511 q 142 602 106 566 q 237 637 178 637 q 268 602 268 637 q 256 556 268 581 q 227 522 243 531 q 334 494 258 494 m 236 -61 q 307 -113 307 -61 q 263 -262 307 -158 q 218 -367 219 -366 l 179 -353 q 195 -221 189 -288 q 155 -206 168 -221 q 142 -161 142 -191 q 170 -96 142 -131 q 236 -61 198 -61 z "},"":{"ha":1096,"x_min":-78,"x_max":1179,"o":"m 517 467 q 662 493 594 467 q 773 559 730 519 q 842 646 817 600 q 867 734 867 692 q 789 881 867 818 q 590 945 711 945 q 301 891 435 945 q 198 825 237 865 q 158 738 158 784 q 188 665 158 691 q 268 619 218 640 q 250 511 268 557 q 113 587 170 537 q 49 718 49 642 q 97 852 49 794 q 224 949 146 911 q 604 1029 391 1029 q 909 954 777 1029 q 1009 864 971 918 q 1047 746 1047 809 q 1022 635 1047 683 q 944 552 996 587 q 665 440 850 488 q 742 357 702 420 q 810 230 782 294 q 864 116 838 166 q 905 65 891 65 q 946 83 920 65 q 1006 130 973 100 q 1069 188 1040 160 q 1132 250 1099 216 q 1178 294 1166 283 l 1179 225 q 1139 180 1172 217 q 1090 128 1105 144 q 1044 81 1076 113 q 990 33 1012 49 q 940 -3 969 17 q 844 -39 886 -39 q 777 -30 802 -39 q 733 -4 751 -21 q 705 29 715 14 q 681 68 694 44 q 660 102 667 92 q 507 407 583 307 q 497 369 505 400 q 481 310 489 337 q 455 231 473 282 q 420 149 437 180 q 375 78 404 117 q 315 16 347 38 q 146 -39 239 -39 q -4 5 64 -39 q -78 139 -78 54 q -36 196 -78 176 q 69 216 7 216 q 79 214 74 216 q 77 164 77 186 q 161 36 77 36 q 248 105 207 36 q 318 280 290 175 q 369 488 347 385 q 406 680 391 591 q 427 784 422 769 q 433 803 431 798 q 443 820 435 808 q 461 835 451 831 q 528 847 492 847 q 582 846 564 847 q 517 467 564 699 m 847 1392 q 722 1211 793 1297 q 612 1124 651 1124 q 571 1164 595 1124 q 526 1257 547 1204 q 477 1392 491 1347 l 554 1407 q 632 1224 602 1296 l 782 1407 l 847 1392 z "},"":{"ha":447,"x_min":81,"x_max":570,"o":"m 334 494 l 415 504 q 435 494 435 504 q 388 388 435 485 q 281 123 281 168 q 280 118 281 123 q 280 112 280 114 q 281 105 281 109 q 283 99 282 101 q 297 93 288 93 q 405 173 315 93 q 529 298 496 254 l 529 222 q 203 -20 287 -20 q 158 7 173 -20 q 143 60 143 34 q 153 119 143 85 q 181 196 163 153 q 213 275 198 239 q 246 351 228 310 q 267 399 264 392 q 177 313 228 359 q 81 220 125 266 l 81 296 l 218 439 q 111 503 136 459 q 106 518 106 511 q 142 602 106 566 q 237 637 178 637 q 268 602 268 637 q 256 556 268 581 q 227 522 243 531 q 334 494 258 494 m 570 932 q 445 751 515 838 q 335 664 374 664 q 294 704 318 664 q 249 797 270 745 q 200 932 214 887 l 277 947 q 355 764 324 836 l 505 947 l 570 932 z "},"":{"ha":725,"x_min":-47,"x_max":789,"o":"m 399 942 q 371 930 399 942 q 302 871 342 919 q 262 776 262 824 q 282 692 262 728 q 335 624 302 656 q 406 560 368 593 q 484 491 445 527 q 555 415 523 454 q 628 220 628 328 q 600 97 628 154 q 527 1 572 41 q 421 -66 481 -38 q 171 -122 304 -122 q 26 -83 92 -122 q -27 -32 -7 -64 q -47 42 -47 0 q -15 111 -47 84 q 65 140 18 138 l 94 142 q 92 80 92 105 q 92 45 92 55 q 95 18 92 36 q 101 -8 97 1 q 115 -28 106 -16 q 138 -45 125 -40 q 215 -60 175 -60 q 290 -51 255 -60 q 359 -24 326 -42 q 420 18 393 -7 q 481 149 481 72 q 408 306 481 221 q 296 424 372 349 q 188 537 220 500 q 115 688 115 621 q 142 810 115 755 q 213 904 169 865 q 313 972 257 943 q 545 1029 425 1029 q 696 987 626 1029 q 754 926 732 966 q 777 832 777 886 q 643 741 777 819 q 473 650 509 663 l 473 717 q 536 747 483 722 q 654 831 654 803 q 513 965 654 965 q 399 942 455 965 m 789 1392 q 664 1211 734 1297 q 554 1124 593 1124 q 513 1164 537 1124 q 468 1257 489 1204 q 419 1392 433 1347 l 496 1407 q 574 1224 543 1296 l 724 1407 l 789 1392 z "},"":{"ha":437,"x_min":-58,"x_max":524,"o":"m 231 5 q 219 0 231 5 q 180 -12 208 -5 q 125 -20 153 -20 q 67 -14 98 -20 q 8 3 37 -9 q -58 97 -58 31 q -39 157 -58 123 q 4 217 -19 191 q 60 276 28 243 q 103 323 92 309 q 85 422 85 369 q 134 554 85 502 q 279 606 182 606 q 322 582 322 606 q 286 516 322 540 q 208 493 250 493 q 286 368 231 423 q 326 326 307 346 q 370 249 370 281 q 322 134 370 199 l 524 298 l 524 224 q 483 189 515 217 q 436 148 451 160 q 389 109 422 135 q 336 68 356 82 q 285 35 316 54 q 231 5 254 15 m 132 271 q 91 232 127 264 q 11 122 11 161 q 50 58 11 84 q 135 32 90 32 q 208 47 180 32 q 236 86 236 62 q 230 129 236 110 q 211 169 224 148 q 188 202 197 189 q 158 239 178 216 q 132 271 138 262 m 501 932 q 376 751 447 838 q 267 664 305 664 q 225 704 250 664 q 180 797 201 745 q 132 932 145 887 l 208 947 q 286 764 256 836 l 436 947 l 501 932 z "},"":{"ha":1116,"x_min":-29,"x_max":1235,"o":"m 542 1023 q 506 935 542 1016 q 427 754 470 854 q 349 527 385 654 q 313 310 313 400 q 505 100 313 100 q 681 146 597 100 q 826 267 766 193 q 923 436 886 342 q 966 627 961 531 q 889 659 927 633 q 830 708 852 684 q 778 846 778 765 q 810 967 778 910 q 924 1031 847 1031 q 980 1010 956 1031 q 1017 957 1004 989 q 1040 885 1030 924 q 1050 810 1049 846 q 1054 744 1052 773 q 1055 705 1056 714 q 1054 694 1054 696 q 1183 748 1112 704 q 1235 787 1211 766 l 1235 710 q 1053 624 1138 639 q 909 244 1026 414 q 613 -3 785 66 q 436 -39 522 -39 q 298 -16 351 -39 q 213 49 245 7 q 151 276 151 132 q 212 592 151 420 q 364 889 273 764 q 361 892 364 892 q 353 888 359 892 l 275 828 q 216 791 263 821 q -29 642 83 709 l -29 717 q 188 848 45 760 q 417 987 330 936 q 523 1038 505 1038 q 542 1023 542 1038 m 970 697 l 971 724 q 950 850 971 791 q 896 908 929 908 q 859 851 859 908 q 891 751 859 795 q 970 697 923 707 m 878 1136 l 785 1137 q 550 1125 724 1137 q 511 1153 511 1125 q 545 1211 511 1200 q 644 1222 562 1216 q 804 1229 726 1229 q 946 1201 946 1229 q 925 1158 946 1181 q 878 1136 904 1136 z "},"":{"ha":673,"x_min":25,"x_max":755,"o":"m 104 -20 q 25 94 25 -20 q 35 170 25 133 q 147 530 75 323 q 257 547 150 547 l 281 547 q 253 458 281 546 q 170 147 170 196 q 215 98 170 98 q 311 132 254 98 q 378 184 368 165 l 452 467 q 492 537 467 524 q 555 547 512 547 l 602 547 q 500 167 515 236 q 494 105 494 115 q 497 91 494 95 q 511 87 500 87 q 755 297 546 87 l 755 221 q 699 169 739 206 q 638 112 659 131 q 582 63 617 92 q 522 19 546 34 q 421 -20 460 -20 q 363 69 363 -20 q 370 132 363 106 q 104 -20 213 -20 m 546 664 l 452 665 q 218 653 391 665 q 179 681 179 653 q 212 739 179 728 q 312 750 230 744 q 472 757 393 757 q 614 729 614 757 q 593 686 614 709 q 546 664 572 664 z "},"":{"ha":1116,"x_min":-29,"x_max":1235,"o":"m 542 1023 q 523 1038 542 1038 q 417 987 505 1038 q 188 848 330 936 q -29 717 45 760 l -29 642 q 173 765 83 709 q 275 828 263 821 l 353 888 q 361 892 359 892 q 364 889 364 892 q 212 592 273 764 q 151 273 151 420 q 213 49 151 132 q 424 -39 279 -39 q 613 -2 522 -39 q 778 97 705 34 q 909 244 850 161 q 1053 624 1026 414 q 1235 710 1138 639 l 1235 787 q 1150 729 1187 745 q 1092 705 1113 712 q 1054 694 1069 697 q 1055 705 1054 696 q 1054 744 1056 714 q 1050 810 1052 773 q 1040 885 1049 846 q 1017 957 1030 924 q 980 1010 1004 989 q 921 1031 956 1031 q 856 1013 886 1031 q 810 967 827 996 q 778 858 778 910 q 793 769 778 805 q 830 708 808 732 q 879 666 852 684 q 966 627 927 633 q 923 436 961 531 q 826 267 886 342 q 681 146 766 193 q 505 100 597 100 q 313 310 313 100 q 349 527 313 400 q 427 754 385 654 q 506 935 470 854 q 542 1023 542 1016 m 896 908 q 950 850 929 908 q 971 724 971 791 q 970 710 971 720 q 970 697 970 701 q 891 751 923 707 q 859 851 859 795 q 896 908 859 908 m 517 -371 q 466 -375 493 -375 q 412 -370 439 -375 q 356 -352 385 -365 q 304 -320 326 -339 q 251 -200 251 -276 q 308 -71 251 -121 q 386 -17 353 -33 q 420 0 419 -1 l 521 0 q 472 -21 509 0 q 411 -61 435 -42 q 370 -110 387 -81 q 353 -172 353 -140 q 369 -229 353 -204 q 408 -267 386 -254 q 456 -288 430 -279 q 517 -300 495 -300 l 517 -371 z "},"":{"ha":673,"x_min":25,"x_max":755,"o":"m 104 -20 q 25 94 25 -20 q 35 170 25 133 q 147 530 75 323 q 257 547 150 547 l 281 547 q 253 458 281 546 q 170 147 170 196 q 215 98 170 98 q 311 132 254 98 q 378 184 368 165 l 452 467 q 492 537 467 524 q 555 547 512 547 l 602 547 q 500 167 515 236 q 494 105 494 115 q 497 91 494 95 q 511 87 500 87 q 755 297 546 87 l 755 221 q 699 169 739 206 q 638 112 659 131 q 582 63 617 92 q 522 19 546 34 q 421 -20 460 -20 q 363 69 363 -20 q 370 132 363 106 q 104 -20 213 -20 m 479 -371 q 429 -375 456 -375 q 375 -370 402 -375 q 318 -352 348 -365 q 266 -320 289 -339 q 214 -200 214 -276 q 271 -71 214 -121 q 349 -17 315 -33 q 383 0 382 -1 l 484 0 q 435 -21 471 0 q 374 -61 398 -42 q 333 -110 350 -81 q 315 -172 315 -140 q 332 -229 315 -204 q 371 -267 349 -254 q 419 -288 393 -279 q 479 -300 458 -300 l 479 -371 z "},"":{"ha":1054,"x_min":103,"x_max":1135,"o":"m 679 -94 l 490 -204 q 366 -283 414 -239 q 318 -372 318 -327 q 335 -442 318 -417 q 375 -471 351 -467 q 478 -427 420 -471 q 586 -314 536 -383 q 654 -176 635 -245 l 679 -94 m 443 1008 q 518 1029 474 1029 q 562 1010 562 1029 q 543 935 562 998 q 510 814 524 871 q 452 618 495 756 q 355 243 355 307 q 372 193 355 218 q 408 168 388 168 q 519 194 456 168 q 645 262 583 220 q 757 369 707 305 q 823 501 807 433 l 885 755 q 924 903 895 802 q 965 1008 953 1004 l 1112 1008 l 872 58 l 1135 298 l 1135 222 l 860 -22 q 422 -509 702 -433 q 308 -525 363 -525 q 209 -510 252 -525 q 134 -461 165 -495 q 103 -384 103 -428 q 138 -321 103 -340 l 686 -28 l 794 310 q 534 85 684 182 q 297 -12 384 -12 q 213 30 246 -12 q 180 168 180 72 q 195 295 180 233 q 217 387 210 357 q 243 474 224 416 q 269 552 262 532 q 323 714 286 607 l 396 925 l 187 781 l 180 777 q 169 771 175 771 q 157 778 163 771 q 150 800 150 784 q 164 827 150 817 l 443 1008 m 740 1227 q 740 1212 740 1227 q 704 1162 740 1198 q 633 1127 668 1127 q 570 1180 570 1127 q 598 1252 570 1217 q 664 1287 625 1287 q 721 1272 702 1287 q 740 1227 740 1257 m 1067 1227 q 1067 1212 1067 1227 q 1031 1162 1067 1197 q 960 1127 996 1127 q 897 1180 897 1127 q 925 1252 897 1217 q 991 1287 953 1287 q 1048 1272 1029 1287 q 1067 1227 1067 1257 z "},"":{"ha":983,"x_min":69,"x_max":1019,"o":"m 160 143 l 328 218 q 489 444 436 360 l 791 933 q 552 945 671 945 q 338 918 432 945 q 244 868 244 892 q 286 746 244 783 q 240 720 286 729 q 120 805 160 749 q 79 929 79 861 q 317 1013 79 984 q 575 1029 446 1029 q 820 1018 704 1029 q 953 1004 935 1006 l 982 939 q 893 790 957 900 q 774 587 829 681 q 634 376 718 494 q 473 176 551 258 q 514 164 480 174 q 570 147 548 153 q 629 129 592 140 q 694 111 667 118 q 751 96 722 103 q 833 81 810 81 q 880 92 857 81 q 1019 182 958 129 l 1019 114 q 922 51 991 98 q 807 -18 854 3 q 708 -39 760 -39 q 699 -36 705 -39 q 688 -31 694 -33 q 671 -23 682 -28 q 644 -12 659 -18 q 605 4 629 -5 q 552 23 581 13 q 389 79 482 49 q 257 8 324 37 q 143 -20 191 -20 q 109 -11 130 -20 q 69 49 69 6 q 160 143 69 103 m 864 1398 q 739 1217 810 1304 q 629 1131 668 1131 q 588 1171 612 1131 q 544 1263 564 1211 q 494 1398 508 1354 l 571 1414 q 649 1231 618 1303 l 799 1414 l 864 1398 z "},"":{"ha":500,"x_min":-57,"x_max":619,"o":"m 386 494 l 467 504 q 485 484 485 504 q 484 475 485 476 l 392 283 q 326 144 376 245 q 356 127 345 138 q 370 103 367 117 q 506 221 425 139 q 591 307 587 302 l 619 257 q 412 60 478 113 l 390 43 q 299 -240 376 -127 q 107 -363 222 -354 q -14 -332 30 -363 q -57 -250 -57 -301 q 23 -75 -57 -145 q 264 47 104 -4 q 227 56 256 50 q 165 75 165 67 q 223 221 165 98 q 297 380 281 345 l 256 390 q 178 315 243 377 q 78 218 113 253 l 78 293 l 210 432 q 160 522 160 457 q 195 600 160 562 q 288 637 231 637 q 311 629 300 637 q 322 604 322 621 q 281 524 322 553 q 386 494 309 494 m 306 -3 q 201 -49 249 -34 q 129 -76 153 -64 q 92 -104 105 -89 q 61 -211 61 -137 q 75 -266 61 -242 q 121 -290 88 -290 q 197 -244 153 -290 q 272 -130 241 -199 q 306 -3 304 -62 m 611 908 q 486 727 557 814 q 376 640 415 640 q 335 681 359 640 q 290 773 311 721 q 241 908 255 863 l 318 924 q 396 741 366 812 l 546 924 l 611 908 z "},"":{"ha":629,"x_min":-3,"x_max":713,"o":"m 102 -20 q 1 95 20 -20 q -3 153 -3 123 q 34 302 -3 227 q 131 436 71 377 q 274 532 191 495 q 446 570 358 570 q 559 547 488 570 q 546 485 559 543 q 520 368 533 428 q 485 165 485 205 q 505 126 485 126 q 713 298 550 126 l 713 222 q 516 48 610 116 q 392 -20 423 -20 q 340 69 340 -20 q 346 135 340 98 q 232 26 297 71 q 102 -20 168 -20 m 142 191 q 208 89 142 89 q 278 119 237 89 q 354 184 320 149 l 432 518 q 290 466 359 518 q 182 338 222 414 q 142 191 142 262 m 682 920 q 556 739 627 826 q 447 652 486 652 q 406 693 430 652 q 361 785 382 733 q 312 920 326 876 l 389 936 q 467 753 436 825 l 616 936 l 682 920 z "},"":{"ha":1954,"x_min":-36,"x_max":1990,"o":"m 1360 79 q 1114 -20 1207 -20 q 1080 -11 1099 -20 q 1040 49 1040 7 q 1058 92 1040 71 q 1131 143 1083 121 l 1299 218 q 1324 252 1302 223 q 1357 295 1346 281 q 1388 337 1367 310 q 1459 444 1417 378 l 1763 933 q 1565 945 1670 945 q 1365 918 1459 945 q 1271 868 1271 892 q 1312 746 1271 782 q 1267 720 1312 731 q 1146 805 1187 749 q 1105 929 1105 861 q 1320 1013 1105 984 q 1554 1029 1434 1029 q 1790 1018 1674 1029 q 1923 1004 1906 1006 l 1952 939 q 1864 790 1927 900 q 1745 587 1801 681 q 1605 376 1689 494 q 1444 176 1522 258 q 1486 164 1453 174 q 1541 147 1518 154 q 1600 129 1564 140 q 1665 111 1637 118 q 1721 96 1692 103 q 1805 81 1781 81 q 1862 98 1829 81 q 1916 129 1873 102 q 1990 182 1959 155 l 1990 114 q 1893 51 1962 98 q 1778 -18 1825 3 q 1679 -39 1731 -39 q 1670 -36 1676 -39 q 1659 -31 1665 -33 q 1642 -23 1653 -28 q 1615 -12 1630 -18 q 1576 4 1600 -5 q 1523 23 1552 13 q 1360 79 1453 49 m 103 221 l 98 150 q 116 61 98 94 q 179 28 133 28 q 230 46 205 28 q 269 97 254 64 q 368 403 319 200 l 449 819 q 536 846 458 846 l 600 846 q 577 690 591 795 q 552 520 563 585 q 514 360 542 456 q 444 179 486 264 q 521 80 464 119 q 638 40 578 40 q 758 74 699 40 q 863 168 817 109 q 938 317 909 228 q 966 494 966 407 q 952 644 966 581 q 908 763 939 707 q 831 859 877 819 q 570 945 734 945 q 374 905 471 945 q 216 806 277 866 q 155 688 155 745 q 267 566 155 608 q 260 500 267 534 q 249 456 254 466 q 97 547 148 488 q 46 668 46 606 q 68 778 46 729 q 140 873 91 827 q 259 954 189 919 q 659 1029 414 1029 q 838 1001 756 1029 q 975 926 920 972 q 1068 818 1029 879 q 1141 571 1141 701 q 1103 329 1141 440 q 999 138 1065 218 q 841 9 934 57 q 644 -39 749 -39 q 396 90 490 -39 q 282 -12 343 14 q 143 -37 221 -37 q 15 14 65 -37 q -36 125 -36 65 q 103 221 -36 221 z "},"":{"ha":1554,"x_min":-36,"x_max":1674,"o":"m 103 221 l 98 150 q 116 61 98 94 q 179 28 133 28 q 230 46 205 28 q 269 97 254 64 q 368 403 319 200 l 449 819 q 536 846 458 846 l 600 846 q 577 690 591 795 q 552 520 563 585 q 514 360 542 456 q 444 179 486 264 q 521 80 464 119 q 638 40 578 40 q 758 74 699 40 q 863 168 817 109 q 938 317 909 228 q 966 494 966 407 q 952 644 966 581 q 908 763 939 707 q 831 859 877 819 q 570 945 734 945 q 374 905 471 945 q 216 806 277 866 q 155 688 155 745 q 267 566 155 608 q 260 500 267 534 q 249 456 254 466 q 97 547 148 488 q 46 668 46 606 q 68 778 46 729 q 140 873 91 827 q 259 954 189 919 q 659 1029 414 1029 q 838 1001 756 1029 q 975 926 920 972 q 1068 818 1029 879 q 1141 562 1141 701 q 1061 231 1141 381 q 1168 337 1101 267 q 1264 432 1235 407 q 1214 522 1214 457 q 1250 600 1214 562 q 1341 637 1285 637 q 1365 629 1354 637 q 1377 604 1377 621 q 1335 524 1377 549 q 1440 494 1364 494 l 1521 504 q 1539 484 1539 504 q 1537 475 1539 476 l 1446 283 q 1408 200 1431 248 q 1381 144 1385 153 q 1410 127 1399 138 q 1423 103 1421 117 q 1500 164 1461 127 q 1557 219 1539 201 q 1606 267 1575 237 l 1646 307 l 1674 257 q 1466 60 1531 113 l 1444 43 q 1353 -240 1430 -127 q 1161 -363 1276 -354 q 1041 -332 1084 -363 q 997 -250 997 -301 q 1078 -75 997 -145 q 1318 47 1158 -5 q 1280 56 1311 50 q 1219 75 1219 68 q 1277 220 1219 97 q 1352 380 1335 343 l 1310 390 q 1272 350 1308 389 q 1199 275 1236 311 q 1112 193 1162 238 q 917 57 1002 92 q 641 -39 792 -39 q 396 90 490 -39 q 282 -12 343 14 q 143 -37 221 -37 q 15 14 65 -37 q -36 125 -36 65 q 103 221 -36 221 m 1360 -3 q 1279 -38 1324 -22 q 1210 -64 1235 -55 q 1161 -91 1185 -74 q 1116 -211 1116 -121 q 1129 -267 1116 -243 q 1175 -290 1142 -290 q 1251 -244 1208 -290 q 1326 -130 1295 -199 q 1360 -3 1358 -62 z "},"":{"ha":300,"x_min":-301,"x_max":385,"o":"m -12 1 l 14 93 q 60 309 29 175 q 101 467 92 444 q 116 500 110 490 q 130 518 121 511 q 144 531 138 526 q 162 539 150 536 q 181 544 174 542 q 203 547 187 546 q 227 547 220 547 q 254 547 227 547 q 241 502 254 544 q 220 430 229 459 q 197 351 212 401 q 173 262 183 300 q 153 184 163 224 q 132 72 132 102 q 226 148 146 77 q 385 298 306 218 l 385 222 q 285 123 322 159 q 107 -11 184 26 q 96 -63 104 -27 q 86 -109 89 -99 q 79 -145 84 -119 q 71 -180 73 -172 q 64 -209 69 -189 q 57 -241 60 -230 q 49 -272 54 -252 q 39 -309 44 -291 q 28 -349 34 -326 q -72 -475 9 -414 q -235 -536 -154 -536 q -272 -523 -257 -536 q -301 -429 -301 -496 q -262 -293 -301 -366 q -182 -172 -222 -220 q -38 -20 -101 -74 l -12 1 m -190 -320 q -209 -376 -202 -349 q -215 -414 -215 -402 q -204 -445 -215 -427 q -173 -463 -194 -463 q -138 -454 -151 -463 q -114 -428 -125 -446 q -94 -392 -103 -410 q -76 -343 -85 -373 q -60 -291 -66 -313 q -46 -234 -54 -269 q -35 -179 -39 -199 q -16 -79 -24 -125 q -190 -320 -159 -249 z "},"":{"ha":1157,"x_min":542,"x_max":914,"o":"m 582 640 l 542 669 q 668 850 595 762 q 779 937 741 937 q 833 869 799 937 q 889 740 867 800 q 914 668 911 680 l 865 640 q 814 727 853 657 q 760 823 775 796 q 692 753 732 795 q 582 640 602 658 z "},"":{"ha":1157,"x_min":587,"x_max":957,"o":"m 957 908 q 832 727 903 814 q 722 640 761 640 q 681 681 705 640 q 636 773 657 721 q 587 908 601 863 l 664 924 q 742 741 711 812 l 892 924 l 957 908 z "},"":{"ha":1157,"x_min":589,"x_max":985,"o":"m 985 852 q 920 718 972 781 q 852 664 894 684 q 764 643 810 643 q 687 658 718 643 q 639 695 656 673 q 611 744 622 717 q 596 794 600 772 q 591 834 593 816 q 589 852 589 852 l 671 869 q 705 770 671 806 q 759 746 727 746 q 815 759 790 746 q 859 789 841 771 q 909 857 894 827 l 916 869 l 985 852 z "},"":{"ha":504,"x_min":225,"x_max":395,"o":"m 395 808 q 395 793 395 808 q 359 743 395 779 q 288 708 323 708 q 225 761 225 708 q 253 833 225 798 q 318 868 280 868 q 376 853 357 868 q 395 808 395 838 z "},"":{"ha":452,"x_min":123,"x_max":364,"o":"m 314 761 q 253 827 314 827 q 197 801 218 827 q 176 744 176 774 q 235 676 176 676 q 292 702 270 676 q 314 761 314 728 m 250 872 q 278 872 250 872 q 335 840 307 872 q 364 756 364 808 q 325 667 364 704 q 236 631 285 631 q 156 659 188 631 q 123 739 123 686 q 159 832 123 792 q 250 872 194 872 z "},"":{"ha":1157,"x_min":330,"x_max":600,"o":"m 596 -371 q 546 -375 572 -375 q 492 -370 519 -375 q 435 -352 465 -365 q 382 -320 406 -339 q 330 -200 330 -276 q 388 -71 330 -121 q 465 -17 432 -33 q 500 0 498 -1 l 600 0 q 551 -21 588 0 q 491 -61 515 -42 q 449 -110 467 -81 q 432 -172 432 -140 q 449 -229 432 -204 q 487 -267 465 -254 q 536 -288 509 -279 q 596 -300 574 -300 l 596 -371 z "},"":{"ha":758,"x_min":163,"x_max":616,"o":"m 236 806 q 292 750 243 750 q 390 776 318 750 q 494 802 463 802 q 548 791 526 802 q 582 765 570 780 q 601 730 593 749 q 612 694 609 710 q 616 652 616 661 l 532 639 q 481 699 521 699 q 390 670 458 699 q 287 642 321 642 q 231 652 253 642 q 197 679 209 663 q 178 713 186 694 q 168 749 170 733 q 163 791 163 782 l 236 806 z "},"":{"ha":1157,"x_min":541,"x_max":1008,"o":"m 774 911 q 732 840 774 890 q 633 714 690 790 q 571 633 575 638 l 541 660 q 639 888 574 789 q 701 942 673 942 q 774 911 774 942 m 1002 873 l 954 831 q 741 640 787 677 l 711 669 q 853 885 768 791 q 928 937 901 937 q 982 921 956 937 q 1008 891 1008 905 q 1002 873 1008 877 z "},"":{"ha":504,"x_min":225,"x_max":395,"o":"m 395 808 q 395 793 395 808 q 359 743 395 779 q 288 708 323 708 q 225 761 225 708 q 253 833 225 798 q 318 868 280 868 q 376 853 357 868 q 395 808 395 838 z "},"":{"ha":637,"x_min":62,"x_max":530,"o":"m 500 633 q 438 714 496 638 q 339 840 380 790 q 297 911 297 890 q 370 942 297 942 q 433 888 397 942 q 530 660 497 789 l 500 633 m 117 831 l 69 873 q 62 891 62 877 q 89 921 62 905 q 143 937 115 937 q 217 885 170 937 q 359 669 302 791 l 330 640 q 117 831 283 677 z "},"":{"ha":654,"x_min":129,"x_max":525,"o":"m 199 643 l 129 660 q 194 795 141 729 q 262 849 220 828 q 350 869 304 869 q 427 854 395 869 q 475 818 458 840 q 503 768 492 795 q 517 719 514 741 q 523 679 521 696 q 525 660 524 661 l 443 643 q 409 743 443 706 q 355 766 387 766 q 298 754 323 766 q 256 723 273 741 q 205 655 220 686 l 199 643 z "},"":{"ha":481,"x_min":150,"x_max":315,"o":"m 244 -61 q 315 -113 315 -61 q 271 -262 315 -158 q 227 -367 227 -366 l 187 -353 q 203 -221 197 -288 q 163 -206 176 -221 q 150 -161 150 -191 q 178 -96 150 -131 q 244 -61 206 -61 z "},"":{"ha":631,"x_min":49,"x_max":595,"o":"m 526 416 l 433 418 q 87 406 339 418 q 49 433 49 406 q 82 492 49 482 q 255 503 113 496 q 453 510 398 510 q 595 482 595 510 q 573 439 595 462 q 526 416 552 416 z "},"":{"ha":811,"x_min":49,"x_max":775,"o":"m 707 416 l 558 418 q 87 406 427 418 q 49 433 49 406 q 82 492 49 482 q 313 503 122 496 q 578 510 505 510 q 775 482 775 510 q 754 439 775 462 q 707 416 732 416 z "},"":{"ha":254,"x_min":32,"x_max":197,"o":"m 103 724 q 32 803 32 724 q 58 885 32 835 q 98 957 85 935 q 149 1043 142 1036 l 187 1029 q 144 884 161 957 q 184 868 171 884 q 197 823 197 853 q 169 759 197 793 q 103 724 141 724 z "},"":{"ha":253,"x_min":57,"x_max":222,"o":"m 151 1043 q 222 964 222 1043 q 132 767 222 920 q 106 724 106 725 l 66 737 q 110 884 93 810 q 70 898 83 884 q 57 943 57 913 q 85 1008 57 973 q 151 1043 113 1043 z "},"":{"ha":253,"x_min":57,"x_max":222,"o":"m 151 140 q 222 61 222 140 q 132 -136 222 17 q 106 -179 106 -178 l 66 -165 q 110 -20 93 -93 q 70 -5 83 -20 q 57 40 57 10 q 85 105 57 71 q 151 140 113 140 z "},"":{"ha":510,"x_min":61,"x_max":433,"o":"m 132 724 q 61 803 61 724 q 87 885 61 835 q 126 957 114 935 q 178 1043 171 1036 l 216 1029 q 174 884 191 957 q 213 868 200 884 q 227 823 227 853 q 198 759 227 793 q 132 724 170 724 m 339 724 q 268 803 268 724 q 359 1000 268 847 q 385 1043 384 1042 l 424 1029 q 380 884 397 957 q 420 868 407 884 q 433 823 433 853 q 406 759 433 793 q 339 724 378 724 z "},"":{"ha":509,"x_min":77,"x_max":449,"o":"m 77 943 q 77 958 77 943 q 104 1008 77 973 q 171 1043 132 1043 q 225 1023 209 1043 q 241 975 241 1002 q 232 923 241 948 q 206 865 223 897 q 176 810 189 832 q 125 724 132 730 l 86 737 q 129 884 113 810 q 90 899 102 884 q 77 943 77 913 m 378 1043 q 449 964 449 1043 q 422 883 449 933 q 382 810 396 833 q 332 724 349 750 l 293 737 q 336 884 319 810 q 296 898 309 884 q 283 943 283 913 q 311 1008 283 973 q 378 1043 339 1043 z "},"":{"ha":509,"x_min":77,"x_max":449,"o":"m 171 160 q 241 81 241 160 q 215 0 241 50 q 176 -74 189 -50 q 144 -127 162 -98 q 125 -160 127 -157 l 86 -146 q 129 0 113 -74 q 90 15 102 0 q 77 60 77 30 q 104 125 77 90 q 171 160 132 160 m 378 160 q 449 81 449 160 q 351 -127 449 37 q 332 -160 334 -156 l 293 -146 q 336 0 319 -74 q 297 15 310 0 q 283 60 283 30 q 311 125 283 90 q 378 160 339 160 z "},"":{"ha":286,"x_min":-1,"x_max":342,"o":"m 107 273 q 26 304 53 273 q -1 382 -1 335 q 23 478 -1 429 q 94 563 48 528 q 203 597 139 597 q 304 567 267 597 q 342 490 342 536 q 270 344 342 415 q 107 273 199 273 z "},"":{"ha":472,"x_min":14,"x_max":407,"o":"m 225 297 l 288 212 q 374 65 374 106 q 359 36 374 49 q 316 24 345 24 q 239 83 287 24 q 14 418 14 366 q 46 477 14 442 q 100 536 87 522 l 205 654 q 237 693 215 665 q 276 740 260 722 q 317 774 292 758 q 370 790 343 790 q 407 754 407 790 q 383 719 407 741 q 235 562 278 622 l 131 440 l 225 297 z "},"":{"ha":493,"x_min":54,"x_max":473,"o":"m 54 60 q 164 212 54 97 l 240 297 l 358 440 l 275 562 q 210 654 248 610 q 152 719 172 697 q 135 754 132 741 q 172 790 140 790 q 227 774 204 790 q 263 740 250 758 q 294 693 276 722 q 319 654 311 665 l 406 536 q 430 504 416 523 q 450 477 444 486 q 473 435 473 446 q 472 418 473 423 q 192 83 462 362 q 105 24 135 24 q 65 35 75 24 q 54 60 54 47 z "},"":{"ha":557,"x_min":77,"x_max":755,"o":"m 600 932 q 653 1044 627 1017 q 742 1071 680 1071 q 751 1064 747 1071 q 755 1049 755 1057 q 751 1026 755 1040 l 224 -29 q 211 -57 220 -36 q 195 -91 202 -78 q 174 -119 187 -104 q 92 -151 146 -151 q 77 -130 77 -151 q 98 -70 77 -108 q 136 10 120 -31 q 269 284 151 52 q 492 719 386 516 q 600 932 597 922 z "},"":{"ha":603,"x_min":11,"x_max":593,"o":"m 262 138 l 127 161 q 72 140 88 140 q 45 143 56 140 q 23 158 35 146 q 11 190 11 170 q 21 217 11 209 q 52 232 31 226 l 103 252 l 243 574 q 285 676 274 663 q 306 699 296 689 q 327 712 315 709 q 381 721 354 721 q 412 711 408 721 q 193 235 343 555 q 290 211 238 220 q 359 385 339 333 q 410 397 368 397 l 453 397 q 380 203 448 372 q 479 224 442 203 q 516 244 486 225 q 570 282 547 263 l 593 241 q 534 195 565 222 q 488 156 503 168 q 382 127 450 127 q 351 129 363 127 l 317 46 q 290 0 304 0 l 216 0 l 214 9 q 262 138 246 98 z "},"":{"ha":930,"x_min":17,"x_max":925,"o":"m 570 85 q 925 236 736 85 l 925 161 q 489 -39 690 -39 q 339 -7 406 -39 q 229 77 272 24 q 129 330 142 184 l 57 328 q 20 353 20 328 q 52 404 20 395 q 126 408 71 404 q 134 481 127 416 l 54 476 q 17 501 17 476 q 34 548 17 540 q 94 558 51 557 q 150 561 138 560 q 270 826 185 711 q 650 1029 418 1029 q 842 960 763 1029 q 921 799 921 890 q 896 747 921 758 q 653 639 717 662 q 629 667 629 639 q 701 720 629 688 q 772 779 772 753 q 629 961 730 961 q 469 900 543 957 q 285 567 326 789 q 364 568 311 568 q 500 543 500 568 q 479 506 500 525 q 435 486 459 486 l 346 488 q 273 486 310 488 q 272 416 272 473 q 367 419 337 419 q 503 395 503 419 q 482 357 503 377 q 437 338 462 338 l 349 339 q 282 338 315 339 q 385 151 308 216 q 570 85 461 85 z "},"":{"ha":481,"x_min":150,"x_max":315,"o":"m 244 -61 q 315 -113 315 -61 q 271 -262 315 -158 q 227 -367 227 -366 l 187 -353 q 203 -221 197 -288 q 163 -206 176 -221 q 150 -161 150 -191 q 178 -96 150 -131 q 244 -61 206 -61 z "},"":{"ha":597,"x_min":-50,"x_max":794,"o":"m 546 916 q 730 994 635 994 q 793 924 789 994 q 794 877 794 914 q 775 773 794 840 q 724 646 755 706 q 656 528 693 587 q 581 423 618 470 q 463 285 509 332 l 443 265 q 463 191 443 220 q 507 161 484 161 q 591 212 530 161 q 681 298 651 262 l 681 222 q 583 132 638 175 q 496 89 527 89 q 425 131 441 89 q 393 -43 425 120 q 354 -228 360 -207 l 240 -228 q 309 150 259 -85 q 197 88 236 88 q 135 131 158 88 q 102 -43 135 120 q 64 -228 70 -207 l -50 -228 q 45 272 -23 -27 q 178 807 113 572 q 278 933 196 873 q 430 994 359 994 q 522 973 500 994 q 546 916 543 951 m 446 779 q 453 799 446 779 q 460 851 460 819 q 442 902 460 883 q 371 921 424 921 q 312 863 340 921 q 264 735 280 793 q 239 645 248 677 q 220 560 231 612 q 189 417 190 425 q 188 405 189 410 q 186 397 186 401 q 239 465 201 417 q 302 544 278 513 q 359 621 326 574 q 412 704 393 669 q 446 779 431 739 m 708 851 q 673 923 708 923 q 602 882 635 923 q 549 796 568 840 q 515 690 531 751 q 492 581 500 628 q 475 476 484 533 q 463 397 467 418 q 533 500 480 425 q 618 625 586 576 q 679 740 650 674 q 708 851 708 805 m 210 189 q 335 271 249 189 q 399 542 367 418 q 290 412 350 476 q 195 316 231 347 l 160 285 q 187 195 160 208 q 210 189 197 189 z "},"":{"ha":659,"x_min":-50,"x_max":711,"o":"m 350 309 q 369 332 350 309 q 418 401 387 355 q 458 470 448 447 q 476 507 468 494 q 496 527 484 519 q 518 539 509 534 q 546 545 527 543 q 611 547 572 547 q 598 504 610 542 q 580 441 587 467 q 560 371 572 415 q 539 294 547 327 q 522 225 530 260 q 504 134 504 153 q 505 106 504 115 q 528 79 509 79 q 602 121 541 79 q 696 191 663 163 l 711 153 q 564 40 652 98 q 427 -20 477 -17 q 382 7 397 -20 q 367 76 367 34 q 407 285 367 118 q 187 94 268 94 q 135 131 153 94 q 102 -43 135 120 q 64 -228 70 -207 l -50 -228 q 45 272 -23 -27 q 178 807 113 572 q 278 933 196 873 q 440 994 359 994 q 503 924 498 994 q 504 877 504 914 q 485 774 504 840 q 436 652 467 709 q 370 539 406 595 q 297 440 333 484 q 182 311 219 347 l 163 293 q 207 197 163 197 q 273 230 233 197 q 350 309 313 263 m 371 921 q 312 863 340 921 q 264 735 280 793 q 239 645 248 677 q 220 560 231 612 q 189 417 190 425 q 188 405 189 410 q 186 397 186 401 q 240 478 199 419 q 304 576 280 538 q 358 669 328 615 q 418 848 418 774 q 371 921 418 921 m 597 728 q 549 777 549 728 q 574 842 549 810 q 634 873 600 873 q 686 860 669 873 q 703 819 703 846 q 671 760 703 791 q 597 728 639 728 z "},"":{"ha":682,"x_min":-50,"x_max":873,"o":"m 371 921 q 312 863 340 921 q 264 735 280 793 q 239 645 248 677 q 220 560 231 612 q 189 417 190 425 q 188 405 189 410 q 186 397 186 401 q 240 478 199 419 q 304 576 280 538 q 358 669 328 615 q 418 848 418 774 q 371 921 418 921 m 390 298 l 390 222 q 208 89 265 89 q 135 131 151 89 q 102 -43 135 120 q 64 -228 70 -207 l -50 -228 q 45 272 -23 -27 q 178 807 113 572 q 278 933 196 873 q 440 994 359 994 q 503 924 498 994 q 504 899 504 914 q 468 729 504 818 q 380 566 431 640 q 277 429 328 492 q 189 318 225 366 q 153 244 153 271 q 174 189 153 217 q 218 161 195 161 q 301 212 242 161 q 390 298 361 262 m 767 961 q 674 829 720 961 q 571 419 629 696 q 667 545 622 471 q 739 688 711 618 q 796 897 796 833 q 767 961 796 961 m 429 -20 q 397 -7 406 -20 q 383 13 388 5 q 376 36 378 22 q 371 60 373 50 q 369 88 370 71 q 368 114 368 105 l 368 140 q 405 430 368 271 q 497 723 441 589 q 630 948 554 857 q 778 1039 706 1039 q 847 1009 822 1039 q 873 919 873 979 q 855 786 873 860 q 808 651 837 713 q 745 532 780 590 q 676 430 711 474 q 567 304 606 340 l 549 286 q 509 130 509 180 q 532 79 509 79 q 625 154 549 79 q 764 298 701 229 l 764 222 q 571 41 648 97 q 429 -20 495 -15 z "},"":{"ha":923,"x_min":-50,"x_max":1005,"o":"m 644 309 q 662 332 644 309 q 711 401 681 355 q 752 470 742 447 q 770 507 762 494 q 790 527 778 519 q 811 539 802 534 q 840 545 821 543 q 905 547 866 547 q 892 504 903 542 q 873 441 881 467 q 853 371 866 415 q 832 294 841 327 q 815 225 824 260 q 798 134 798 153 q 799 106 798 115 q 821 79 803 79 q 896 121 835 79 q 989 191 957 163 l 1005 153 q 858 40 945 98 q 720 -20 770 -17 q 675 7 690 -20 q 661 76 661 34 q 701 285 661 118 q 481 94 562 94 q 429 131 446 94 q 396 -43 429 120 q 357 -228 363 -207 l 243 -228 q 311 146 262 -83 q 205 89 242 89 q 135 131 151 89 q 102 -43 135 120 q 64 -228 70 -207 l -50 -228 q 45 272 -23 -27 q 178 807 113 572 q 278 933 196 873 q 440 994 359 994 q 503 924 498 994 q 504 898 504 914 q 502 866 504 882 q 606 957 541 919 q 734 994 671 994 q 797 924 792 994 q 798 877 798 914 q 779 774 798 840 q 730 652 760 709 q 663 539 700 595 q 590 440 627 484 q 475 311 513 347 l 456 293 q 500 197 456 197 q 567 230 527 197 q 644 309 607 263 m 330 237 q 428 646 372 430 q 251 397 361 526 q 153 249 153 281 q 174 189 153 217 q 221 161 195 161 q 330 237 248 161 m 665 921 q 606 863 633 921 q 558 735 574 793 q 533 645 542 677 q 513 560 524 612 q 483 417 484 425 q 481 405 482 410 q 479 397 480 401 q 533 478 493 419 q 598 576 574 538 q 652 669 622 615 q 711 848 711 774 q 665 921 711 921 m 371 921 q 312 863 340 921 q 264 735 280 793 q 239 645 248 677 q 220 560 231 612 q 189 417 190 425 q 188 405 189 410 q 186 397 186 401 q 240 478 199 419 q 304 576 280 538 q 358 669 328 615 q 418 848 418 774 q 371 921 418 921 m 891 728 q 842 777 842 728 q 868 842 842 810 q 928 873 893 873 q 980 860 963 873 q 996 819 996 846 q 964 760 996 791 q 891 728 932 728 z "},"":{"ha":989,"x_min":-50,"x_max":1179,"o":"m 371 921 q 312 863 340 921 q 264 735 280 793 q 239 645 248 677 q 220 560 231 612 q 189 417 190 425 q 188 405 189 410 q 186 397 186 401 q 240 478 199 419 q 304 576 280 538 q 358 669 328 615 q 418 848 418 774 q 371 921 418 921 m 390 298 l 390 222 q 208 89 265 89 q 135 131 151 89 q 102 -43 135 120 q 64 -228 70 -207 l -50 -228 q 45 272 -23 -27 q 178 807 113 572 q 278 933 196 873 q 440 994 359 994 q 503 924 498 994 q 504 899 504 914 q 468 729 504 818 q 380 566 431 640 q 277 429 328 492 q 189 318 225 366 q 153 244 153 271 q 174 189 153 217 q 218 161 195 161 q 301 212 242 161 q 390 298 361 262 m 678 921 q 620 863 647 921 q 571 735 587 793 q 547 645 555 677 q 526 560 538 612 q 496 417 497 425 q 495 405 496 410 q 493 397 494 401 q 547 478 507 419 q 611 576 587 538 q 665 669 635 615 q 725 848 725 774 q 678 921 725 921 m 697 298 l 697 222 q 515 89 572 89 q 442 131 458 89 q 410 -43 442 120 q 371 -228 377 -207 l 257 -228 q 352 272 284 -27 q 485 807 420 572 q 585 933 503 873 q 747 994 667 994 q 810 924 806 994 q 811 899 811 914 q 775 729 811 818 q 687 566 739 640 q 584 429 635 492 q 496 318 532 366 q 460 244 460 271 q 481 189 460 217 q 526 161 502 161 q 609 212 549 161 q 697 298 668 262 m 1074 961 q 981 829 1026 961 q 878 419 936 696 q 973 545 928 471 q 1045 688 1018 618 q 1103 897 1103 833 q 1074 961 1103 961 m 736 -20 q 703 -7 712 -20 q 690 13 694 5 q 682 36 685 22 q 678 60 680 50 q 675 88 676 71 q 675 114 675 105 l 675 140 q 711 430 675 271 q 804 723 747 589 q 937 948 861 857 q 1084 1039 1013 1039 q 1154 1009 1128 1039 q 1179 919 1179 979 q 1161 786 1179 860 q 1115 651 1143 713 q 1052 532 1086 590 q 983 430 1017 474 q 873 304 912 340 l 855 286 q 815 130 815 180 q 839 79 815 79 q 932 154 856 79 q 1071 298 1008 229 l 1071 222 q 878 41 954 97 q 736 -20 802 -15 z "}}}
